/* XPM */
static char *result[] = {
/* columns rows colors chars-per-pixel */
"50 50 123 2 ",
"   c #020202",
".  c #050C03",
"X  c #080E06",
"o  c #0B0C0B",
"O  c #071403",
"+  c #091207",
"@  c #0A1B05",
"#  c #0C1509",
"$  c #0D1B08",
"%  c #111D0E",
"&  c #131313",
"*  c #151B14",
"=  c #1B1B1B",
"-  c #0C2405",
";  c #0E2B06",
":  c #10270A",
">  c #122B0C",
",  c #0F3106",
"<  c #103407",
"1  c #113A07",
"2  c #14330B",
"3  c #143B09",
"4  c #172C10",
"5  c #193512",
"6  c #1A3D11",
"7  c #242424",
"8  c #2B2B2B",
"9  c #333333",
"0  c #3C3C3C",
"q  c #164A07",
"w  c #154309",
"e  c #19460D",
"r  c #17480B",
"t  c #194C0C",
"y  c #1B530C",
"u  c #1C5B0C",
"i  c #1F4615",
"p  c #1D4C10",
"a  c #205E0F",
"s  c #235B14",
"d  c #1E630C",
"f  c #1E690A",
"g  c #21640E",
"h  c #226C0E",
"j  c #22740D",
"k  c #247C0D",
"l  c #287F0E",
"z  c #236511",
"x  c #246C11",
"c  c #286A14",
"v  c #257511",
"b  c #287712",
"n  c #267C11",
"m  c #297D12",
"M  c #2B7418",
"N  c #2D7E18",
"B  c #337D10",
"V  c #317E1C",
"C  c #326A25",
"Z  c #367324",
"A  c #576F15",
"S  c #766410",
"D  c #434343",
"F  c #4A4B4B",
"G  c #545454",
"H  c #5B5C5B",
"J  c #4A6942",
"K  c #79694A",
"L  c #666666",
"P  c #6C6C6C",
"I  c #747474",
"U  c #7B7B7B",
"Y  c #82611F",
"T  c #BB4021",
"R  c #26820D",
"E  c #28830E",
"W  c #29890E",
"Q  c #278110",
"!  c #2A8412",
"~  c #2C8B13",
"^  c #2E8618",
"/  c #2F8B18",
"(  c #308617",
")  c #318E17",
"_  c #32831C",
"`  c #328D19",
"'  c #2E9114",
"]  c #329316",
"[  c #339B17",
"{  c #339319",
"}  c #38971E",
"|  c #359A1A",
" . c #399D1D",
".. c #3B9222",
"X. c #489332",
"o. c #4E963D",
"O. c #56834A",
"+. c #5D8053",
"@. c #668C5B",
"#. c #609752",
"$. c #649458",
"%. c #67995A",
"&. c #6CA55D",
"*. c #77966F",
"=. c #7D8A7A",
"-. c #7BA66F",
";. c #B5837C",
":. c #8EA479",
">. c #84A97B",
",. c #828681",
"<. c #8D8D8D",
"1. c gray58",
"2. c #949E91",
"3. c #9A9A9A",
"4. c #90A48B",
"5. c #99AD94",
"6. c #9CAB98",
"7. c #A0AF9C",
"8. c #A2B19E",
"9. c #A4A4A4",
"0. c #ACACAC",
"q. c #A4B4A0",
"w. c #B2B2B2",
/* pixels */
"! ! k ! } ] ~ ~ { ! ' j R E ! ! x ~ k k ~ ) m Q ! ~ R b j n ~ ~ Q _ ~ k ~ ~ ! ^ W ~ ' ~ ^ ] R j m v ",
"' ' ~ ~ { Q k k ! ~ Q ~ ~ j ~ ! ~ ~ R ~ Q ' ~ n k ~ ~ k ~ ) ~ E n Q ~ E Q { m j ! ~ Q v n Q Q Q E h ",
"! ] v ~ ~ / ~ n E ! k ~ ' ~ ~ ~ ~ ! n ~ { ~ ! / { b ! ' m l ~ ! n W n n Q ~ E k ~ ~ ! ~ ^ R m { ] ] ",
"n m Q b Q ~ R ] ! Q ! j ~ ] n h n l ] ~ ~ k n k Q ! ..%.5.8.7.4.@.Z k { Q ! ^ ~ ! ~ ! m Q ~ ~ ' ` | ",
"Q ^ R n ! ! ~ E ~ Q ] { ! ~ { / ! m R ! Q ~ ! ! k n &.6.*.#.$.>.q.4.J N ! ! j ! ! m ~ Q ! Q ! W ! ! ",
"Q Q ! Q n Q ] ! ~ ~ ! ~ { ! Q ~ Q E j k n Q R j v X.6.+.V ~ N V o.:.;.K A E ! ~ R m  .~ E ~ ~ ~ Q ! ",
"! ~ v m v Q ! ' ~ ~ b Q R R ! ~ j ~ ! { W ! ~ ~ ` -.=.c ( { ! v ! _ Y T S B ~ W { k ~ ~ Q m m ~ ! ! ",
"R b ~ ~ b ~ ! Q ! b Q R Q ~ m { ~ ~ ` } {  .n E ` 5.J Q k ~ | m n n k B ) ^ m ^ ' ~ ] R Q ^ E R k ~ ",
"m k ~ ! ! b R ! R m ~ ' ! R j m Q Q n ^ { ! ~ E X.2.C ~ m ~ ] Q { ! ! ~ ! Q n Q Q Q n ] ' n j | ~ W ",
"~ { m R ~ n ! / ~ ~ n ! k ~ j Q n ~ R E E m x g O.,.p g ^ k R h ~ ~ ~ ~ Q ~ ! v ! n k ) ! k m ! ! ! ",
"k ! n )  .R m [ n { ~ n ~ ] ' ~ ! ~ ~ k j e : @ H I X @ 3 g Q Q ~ ! m k ! { R n ! j k ] ] j ! ^ ~ Q ",
"' ~ ` ~ ~ ! Q R ! ~ ~ n ! W ~ | ~ k ~ b p # o   0 D   o X 2 z ~ ~ ! W Q ! ^ ! ~ ! ~ { ' ! Q ! ~ Q ` ",
"Q ! v ~ n ! ~ W ~ ' ) k ' ' E ! { l k h i & & & & &   o   @ g k R { | E ~ n Q ! ! ~ ~ ! m ~ m ` Q ! ",
"E ~ ! k k n ~ n j ` Q ! m Q m k ) E E h 5 = 7 8 7 o o     + r j m ~ Q ^ Q Q ~ / ^ ^ k { ] Q m ! ~ E ",
"~ m W ~ v Q ~ ! ! ! ~ Q b ! k k j h 6 % & = = = & o o       X - y b ! ~ ~ ~ ~ n ! Q R Q ~ j k ] ~ ~ ",
"~ ! ~  .~ | ^ Q ~ ~ ~ ~ h k k ~ e % & & & = = = & o o           . : c Q Q R Q ^ ' ~ v k ^ Q k ~ ] Q ",
"N ! n Q R ! m Q ~ ! ) Q R ~ M 4 & & & & & = = = & o               o X y m E ~ ! ) ! ! ! W ( ! ! ! ~ ",
"Q Q n ^ ~ ~ ~ ~ ! ] k Q Q c > & & = = = & = & & & o o o o o o         # e v k Q ! ! ) ) { m ~ ] W { ",
"~ Q j ! ^ ~ j k ! ! Q ! M 4 * & = = = = = = = & & & & o o o o           # t ! m Q ` k n m Q ^ ^ ~ ~ ",
"l k ' ! ' k v j k ! ^ N 6 & = = = = = = = = = = & & & & o o o           X $ y ! ] j ! { l ~ Q E ~ R ",
"^ k ] m ~ k ~ k ! j v s * = = = 7 = 7 7 8 7 7 = = & & o o o o             X > m Q { ^ n ~ ~ j m ! Q ",
"E n ! ~ ~ ~  .] j Q v 4 & = = 7 7 7 9 0 F D 0 8 7 & & & & o o o o           X e j ! k Q { ! k k ~ ! ",
"~ ^ m ! ~ k Q W W m p * = = = 7 7 9 F L P P H F 8 = & & & o o                 : v ! ~ ! Q ^ k l ' ! ",
"~ { j j ~ ~ ^ b ~ V 5 & = = = 7 9 G I <.1.<.U H 9 7 & & o o o                 . t n R { Q ` m R ~ ^ ",
"R k k ` ~ ~ E ~ ! z * & = = = 7 0 L <.9.0.9.<.P D 7 & & & o o o o               1 b k R ~ ! | { ~ E ",
"j f m ! ] ~ ! ) ~ t * = = = = 8 F U 3.w.w.0.1.P D 8 & & o o o o                 - m ! ^ ! Q ~ h ~ R ",
"~ ^ j ~ k ` W ! b 2 & & = = = 8 F I 1.0.0.9.<.L D 7 & o o o   o                 + x ! { m m ~ n ~ ~ ",
"[ ~ ) k k Q ~ ] h 2 & = = = = 8 D L <.3.3.<.U G 9 7 & o o o o                   . d ' m n ! / ! ~ ! ",
"^ Q ^ ~ Q ! ] k f 2 & & = = = 7 9 G L U U I H D 8 & & & o o   o                   g ! ! ' ! W ~ ^ Q ",
"! Q R l ^ ! ~ ! b 5 o & & & = = 7 0 F G G F 0 8 = & o o o o                     . h ! k k b n m Q E ",
"k ' ] ' { ! ~ ~ v 6 o & & = & = = 7 9 9 9 9 7 = & o o o o o o                   X u ~ ~ E m b n ~ ~ ",
"~ ! l ! ^ k ~ k h 6 o & & & = & = & = = = = & & & o o o   o                     O v ~ Q Q m k m ] ! ",
"! ! k ] ) ~ Q Q ! p o o & & & & & & & & & & & o & o o o   o                     - j ~ ~ ^ ~ ~ ] m n ",
"Q k ~ ~ ~ k ' ~ ~ a # o o & & & & & & & & & & o o o o   o                       3 n ' { ~ ~ Q ^ m Q ",
"n | n j j ~ m ~ j h > . o o o & & & & o o o o o o o   o                       . u ^ ! ~ k ) E ~ ~ k ",
"! ~ ~ v k { ^ ~ v f y X o o o o o & o o o o o o o o                           ; v ~ b h j ~ Q ' / R ",
"{ ! ~ { ! ' ~ ! ~ Q y - . o o . o o o o   o o o                               q j ' Q m n n { ! ! ! ",
"Q n E ! ! W ~ m Q m g w X     o o o   o o o                                 - y n ! ~ ] k Q ~ ~ ^ [ ",
"m ^ ~ ] k m ^ ` ` v m z -         o o           o                         O , u n j E ~ ! ~ k ' Q k ",
"! ! ~ ! ~ m Q ~ j h M x 3 #             o                                 ; y g h k j { ! W ! R k ~ ",
"' / j ! ! ~ ! ~ k n x z y 1 O                                           - t s v h ! Q { ` Q k ` ! R ",
"~ ~ k Q ! ~ k ] ~ b v u u t , .                                       $ 1 t t g Q b ~ { ' Q n Q ! ! ",
"! R ! ' ~ ~ ! ~ n ! x d d y r 1 @                                   - 1 t y d j Q j E ~ ! ~ ` n ~ ] ",
"~ ~ ! ~ k ! ! ] n ~ ~ m h d d r , - .                           @ , w t a d N Q m ~ k ~ ~ Q m m ` ! ",
"Q Q ! ! ~ Q ^ ~ ~ n ~ ~ n b b x y w 3 - @ .               O @ - w y u h j Q ( E Q { m Q ^ Q m v ~ ~ ",
"k ~ ' ~ ] ~ E k k n k ~ ! ! ~ b v d d t q r < ; - ; ; , , r y u h f n k j ! ~ b ~ Q ! k k l E ~ ~ ] ",
"! R Q Q } ~ ! Q ~ ~ ! Q b Q R m v f j m j j h j x d f f d f v ^ ) m b k ] ~ R ' ( ! k ! ] b ~ E k ! ",
"| Q k n ( n b ^ v Q ! n ! ) ] ] { n m k Q ^ ~ k ! ] j k ~ ~ { ~ ~ ^ m ~ Q E E b ! ! ~ Q ~ ! k k ] ~ ",
"^ ! ~ ' ~ v R ~ ~ { Q ! k k ~ ~ ! Q ! b ^ } R ! ~ ~ v n ) Q ' ! E ] ! Q ~ E ^ ~ n ~ ! n ~ ~ ! Q ) k ",
"x j k k ~ Q ' ~ ] ' / k ~ ! ! ~ ! k Q ~ ^ ~ k ~ ~ ! ! m Q ~ ~ / ^ { ~ ~ ~ ^ ! ~ ! k ' ] ! ~ ~ ~ v ~ "
};
