/* XPM */
static char *result[] = {
/* columns rows colors chars-per-pixel */
"50 50 132 2 ",
"   c #020202",
".  c #050C03",
"X  c #080E06",
"o  c #0B0C0B",
"O  c #071403",
"+  c #091207",
"@  c #0A1B05",
"#  c #0C1509",
"$  c #0D1B08",
"%  c #111D0E",
"&  c #131313",
"*  c #151B14",
"=  c #1B1B1B",
"-  c #0C2405",
";  c #0E2B06",
":  c #10270A",
">  c #122B0C",
",  c #0F3106",
"<  c #113A07",
"1  c #14330B",
"2  c #143B09",
"3  c #142011",
"4  c #172C10",
"5  c #193512",
"6  c #1A3D11",
"7  c #242424",
"8  c #2B2B2B",
"9  c #333333",
"0  c #3C3C3C",
"q  c #164A07",
"w  c #154309",
"e  c #19460D",
"r  c #17480B",
"t  c #194C0C",
"y  c #1B530C",
"u  c #1C5B0C",
"i  c #1F4615",
"p  c #1D4C10",
"a  c #235B14",
"s  c #1E630C",
"d  c #1E690A",
"f  c #21640E",
"g  c #226C0E",
"h  c #22740D",
"j  c #2D720C",
"k  c #247C0D",
"l  c #287F0E",
"z  c #236511",
"x  c #246C11",
"c  c #286A14",
"v  c #257511",
"b  c #287712",
"n  c #267C11",
"m  c #297D12",
"M  c #2B7418",
"N  c #2D7E18",
"B  c #317614",
"V  c #317E1C",
"C  c #326A25",
"Z  c #367324",
"A  c #557C10",
"S  c #6F6A0C",
"D  c #656513",
"F  c #434343",
"G  c #4A4B4B",
"H  c #545454",
"J  c #5B5C5B",
"K  c #4A6942",
"L  c #7E654A",
"P  c #666666",
"I  c #6C6C6C",
"U  c #747474",
"Y  c #7B7B7B",
"T  c #E6261E",
"R  c #91571E",
"E  c #CA4509",
"W  c #26820D",
"Q  c #28830E",
"!  c #29890E",
"~  c #278110",
"^  c #2A8412",
"/  c #2C8B13",
"(  c #2F8618",
")  c #2F8B18",
"_  c #338714",
"`  c #318E16",
"'  c #328D19",
"]  c #2E9115",
"[  c #329316",
"{  c #339B17",
"}  c #339319",
"|  c #38971E",
" . c #359A1A",
".. c #399D1D",
"X. c #3B9222",
"o. c #489E1B",
"O. c #619A16",
"+. c #489332",
"@. c #4E963D",
"#. c #56834A",
"$. c #5D8053",
"%. c #668C5B",
"&. c #609752",
"*. c #649458",
"=. c #67995A",
"-. c #6CA55D",
";. c #77966F",
":. c #7D8A7A",
">. c #7BA66F",
",. c #87A919",
"<. c #A2A90F",
"1. c #92AF27",
"2. c #88B126",
"3. c #C68F07",
"4. c #B8C329",
"5. c #E8D52D",
"6. c #B4837B",
"7. c #8EA479",
"8. c #84A97B",
"9. c #828681",
"0. c #8D8D8D",
"q. c gray58",
"w. c #949E91",
"e. c #9A9A9A",
"r. c #90A48B",
"t. c #99AD94",
"y. c #9CAB98",
"u. c #A2B19E",
"i. c #A4A4A4",
"p. c #ACACAC",
"a. c #A4B4A0",
"s. c #B2B2B2",
/* pixels */
"^ ^ k ^ | [ / / } ^ ] h W W ^ ^ x / k k / / ~ ^ ^ / W n g ~ / / ^ ( / k / / ^ ^ / / ] / ) / W h m v ",
"] ] / / } ~ k k ^ / ~ / ^ k / ^ / / W / ~ ] ( k k / / k / ` ^ Q n ~ ( l ~ } m k ~ / ~ v n Q ~ ^ Q g ",
"^ [ v / / ) / n Q ^ k / ] / / ^ ^ / n / [ ` ^ ) } n ( / m l / ^ n ! n n ^ / Q k / / ^ / ( W ~ } [ ' ",
"n m ~ b ~ / W [ ~ m ^ h / [ n v k m [ / / k n k ~ ^ X.=.t.u.u.r.%.Z k  .~ ~ ( / ^ / ^ m ^ / / / '  .",
"^ ( k n ^ ^ / Q / Q } { ( / } / ^ m W ^ n / ^ ^ n n -.y.;.&.*.8.a.r.K B N ^ h ^ ^ m / ~ ^ ~ / ! ^ ~ ",
"Q ~ ^ ~ n ~ [ ^ ^ ` ^ / [ ~ ~ / ~ Q h k n ~ W h v +.t.$.V / N V @.7.6.L D ^ ^ Q n m ../ Q ^ / / ~ / ",
"^ / n n v m ^ ] / / n m ! W ( / h / ^ } ! ^ / / ) >.:.c _ } ^ v ^ _ R T E A m Q } k ] / ^ n ~ / ^ ^ ",
"k n / / b / ^ ~ ~ b ~ W ~ ^ ~ ' / / } | } ..n Q X.t.K ~ k /  .m b l j S 3.<.o./ [ ! [ W ~ ( ^ k l / ",
"~ n ^ / ^ b Q ~ W m / ] ^ W h m ~ ~ ~ ^ } ^ ( ~ +.w.C / m / } m } ^ ^ _ ,.5.1._ m ~ m [ ) n h  ./ / ",
"/ } ~ k / m ^ ) / / m ^ k / h ~ k ( Q Q Q ~ g f #.9.p z ) n W g / / / [ O.4.2.B ^ n k ] ^ k m ^ ~ ^ ",
"k ^ m `  .~ m { ~ } / n / [ [ / ^ ` / k v e : + J I X $ 1 g ~ ~ / ~ m k _ o._ n ^ h k ` { h ^ / ( Q ",
"/ / ' / / ^ ~ W ^ ^ / n ^ ! /  ./ h / b p # o . 0 F .   X > g / / ^ ! ^ ! ^ ^ / ^ / [ ] ^ ~ ~ / ~ ` ",
"^ ^ v / n ~ / ! / ] / n [ ] W ^ } l k h i & & & & & o o   @ f m W [ { ~ / n n / ^ / / / m ) m ) Q ^ ",
"Q / ^ n k m / n h ' ^ ~ m ~ m l ` Q Q f 5 = 7 8 = o o     O w h k ( ~ ( ~ ~ / ) ^ ( h } ] m m ( / W ",
"/ ~ ! / n n / ^ ~ ^ / ~ b ~ k k h x 6 % & = = 7 = o o       X - y b ^ / / / ( ~ ^ ~ ~ ~ / k h  ./ / ",
"/ ^ / ../ | / ~ / / / ` h k h / t $ & & & & = & & o .         . X : c ~ ~ W ~ ^ ] / n k ^ ^ k / [ ~ ",
"^ ~ n ~ W / n ~ / / / m ! / c > & & & & & = = & & o             .   o y m Q / ~ / / ^ ^ ! _ ^ ^ ^ / ",
"m ~ n ) / / / / ^ [ ~ ~ ~ c 4 & & = = = & = & & & & o o o o o         # p b k ~ ^ ^ ` ` } m / ] / } ",
"/ ^ x ^ ^ / h k ~ ^ ^ ~ M 4 & = = = = = = = = & & & & & o o o           + p ^ ~ ~ ' n k m ~ ( ( / ^ ",
"l n ] / / n v h n ^ ( m 6 & = = = = = = = = = = & & & o o o o           . # y ( } h ~ } l / ~ ~ / W ",
"( k ] m / k / n m h v a * * = = 7 = 7 7 8 7 7 7 = & & & o o o   o         X : m ~ } ( n / ( h m / ^ ",
"Q n ^ / / / ..[ k m v 4 & = = 7 7 7 9 0 G F 0 8 = & & o & o o               X t k ^ k ~ [ ^ k k ^ ~ ",
"/ ^ m ^ / k ~ ! / m p * = = = = 7 9 H P I I J F 8 = & & & o o o .             : x ^ / ^ ^ ( k l [ / ",
"/ ' h n / ! ( b / N 5 & = = 7 7 8 H U 0.q.0.Y J 0 7 & & o o o                 . t n ! ` ~ ) Q W / ^ ",
"Q n n } / / Q / m z 3 & = = 7 7 0 I 0.i.p.i.0.I F 7 & & & o o o                 1 b k W / ^  .} ! ^ ",
"h d m ^ / ` / / ( t & * = 7 = 8 G U e.s.s.p.q.U F 8 & & o o o                   - m ^ ( ^ ~ / g ` W ",
"] ^ n / m ' Q / n 1 & = = = = 8 G U q.p.p.i.0.P F 7 & o o o o o .               O h ^ } m m / n ^ / ",
"} / / n h ~ / ] h > & & = = = 7 F P 0.e.e.0.U H 9 = & & o o o                   X s ] m n ^ ) ^ / ^ ",
") ~ / ^ ~ ^ ] W s 1 & = = = = = 9 H I Y Y U J F 8 & & & o o                       f ^ ^ ] ^ / / / ~ ",
"^ n ^ l ( / / ~ b 1 o & & = = = 7 0 G H H H 0 8 = & o o o o   o                 . f ^ W k b k n m Q ",
"k ] } ] [ / ^ ` v 6 o & & = = = = 7 8 9 9 8 7 = & o o o o o o                   . u / / Q m b n / / ",
"/ ^ m ^ ^ k / k g 6 o & & & & & = = = = = = & & & o o o   o                     O v / n ~ m k m [ ^ ",
"^ ^ k ] ] / ~ ~ ^ p o o & & & & & & & & & & & & o o o o o                       - h / / ( / / [ n m ",
"~ n / / / k / / ^ z # o o & & & & & & & & & o o o o o o   .                     2 n ] } / / ~ ( m ^ ",
"n  .n h k ( m / h z 1 X o o o & & o & & o & o o o o                           . u ( ^ / k ` Q / / k ",
"^ / / n n ' ^ / n d t X o o o o & o o o o o o o   o   o                       ; v / b g h / ~ ] ) ~ ",
"} ^ / [ ^ ] / ^ / ! u - . o o   o o o o o o   o   o                         . w h ] ^ b ~ n } ~ ~ ~ ",
"m n Q ^ ^ ! / m m b f 2 X     o   o o   o   o .                             - y n ^ / ] k ~ / / ) { ",
"m ( ^ [ n n ) ' / v N z - .       o                                       O , u n h Q / / / k ] ~ n ",
"^ ^ / / / m ~ / h x v x 2 #       o   o                                   ; y f d k k ` ^ / ^ k k / ",
"] / h ^ ^ / ^ / k n g z y < O                                           - t a v v ~ ~ } ' ~ k ' Q W ",
"/ / n ~ / / k } / m v u u t , .                                       - 2 r t f m b / } ] ~ n ~ ^ ^ ",
"^ ! ^ ] ^ / ^ ! n ^ x z s y w 2 O                                 . - 2 t y f v ~ h Q / ^ / ' n / [ ",
"/ ^ ^ / k ^ ^ ] n ^ / m g s s r , - .                           @ ; 2 y u s m m m / k / / m ~ m ' ~ ",
"~ ~ ^ ^ / m ( ] / b / / k b b g y w 2 - @ . .           . . @ ; w y u g h ~ _ m ~ ' m ~ ( ^ m v ] / ",
"k / } / [ / Q k k n k / ^ ( ^ m v s f t q w , ; - ; ; , , w y u g s k k h Q ] n / Q ( k k k Q / / [ ",
"^ W ~ ~ X./ ^ ~ ] / ~ m m ~ W m v d h m h v g h g s s d s d v ( / b b n } / W ] / ^ k ^ ` m / Q n ^ ",
" .~ k n / m b ( v ~ ~ n ^ ` [ [ } n m n ~ ^ / k / [ h k / ) } / / ' ~ / ~ Q ~ b Q ^ / ~ / ^ k k [ / ",
"^ ^ / ] / v ! / ) } n / h k / / ^ ~ ^ m ( | ! ~ / ^ n n ) W ] ~ ^ [ ^ ~ / Q ( / n / ^ ~ / ^ / Q / n ",
"x v k W ~ ~ / / { ] / k ^ / ^ / / k n / ( ^ k ^ / / ( m ~ / ] ( / } / ( / ( ^ / ^ k ] [ ^ / / / h ( "
};
