/* XPM */
static char *result[] = {
/* columns rows colors chars-per-pixel */
"50 50 150 2 ",
"   c #020202",
".  c #050C03",
"X  c #080E06",
"o  c #0B0C0B",
"O  c #071403",
"+  c #091207",
"@  c #0A1B05",
"#  c #0C1509",
"$  c #0D1B08",
"%  c #111D0E",
"&  c #131313",
"*  c #151B14",
"=  c #1B1B1B",
"-  c #0C2405",
";  c #0E2B06",
":  c #0F2709",
">  c #10270A",
",  c #122B0C",
"<  c #0F3106",
"1  c #103407",
"2  c #113A07",
"3  c #14330B",
"4  c #143B09",
"5  c #183E0D",
"6  c #172C10",
"7  c #193512",
"8  c #1A3D11",
"9  c #242424",
"0  c #2B2B2B",
"q  c #333333",
"w  c #3C3C3C",
"e  c #164A07",
"r  c #154309",
"t  c #19460D",
"y  c #17480B",
"u  c #194C0C",
"i  c #1B530C",
"p  c #1C5B0C",
"a  c #1F4615",
"s  c #1D4C10",
"d  c #205E0F",
"f  c #235B14",
"g  c #1E630C",
"h  c #1E690A",
"j  c #21640E",
"k  c #226C0E",
"l  c #3B6C0C",
"z  c #22740D",
"x  c #247C0D",
"c  c #287F0E",
"v  c #236511",
"b  c #246C11",
"n  c #286A14",
"m  c #257511",
"M  c #287712",
"N  c #267C11",
"B  c #297D12",
"V  c #2B7418",
"C  c #2D7E18",
"Z  c #327F10",
"A  c #317E1C",
"S  c #326A25",
"D  c #367324",
"F  c #4F760B",
"G  c #676414",
"H  c #434343",
"J  c #4A4B4B",
"K  c #545454",
"L  c #5B5C5B",
"P  c #4A6942",
"I  c #7E664A",
"U  c #666666",
"Y  c #6C6C6C",
"T  c #747474",
"R  c #7B7B7B",
"E  c #CC3C05",
"W  c #E13A07",
"Q  c #E9241E",
"!  c #92561E",
"~  c #AB7009",
"^  c #26820D",
"/  c #28830E",
"(  c #29890E",
")  c #328D0F",
"_  c #278110",
"`  c #2A8412",
"'  c #2C8B13",
"]  c #2F8618",
"[  c #2F8B18",
"{  c #328514",
"}  c #318E16",
"|  c #3B8B12",
" . c #328D19",
".. c #2E9115",
"X. c #329316",
"o. c #339B17",
"O. c #339319",
"+. c #38971E",
"@. c #359A1A",
"#. c #399D1D",
"$. c #3B9222",
"%. c #578C0D",
"&. c #5B8D0E",
"*. c #478211",
"=. c #488510",
"-. c #459811",
";. c #618E0F",
":. c #6E890E",
">. c #699310",
",. c #489332",
"<. c #4E963D",
"1. c #56834A",
"2. c #668C5B",
"3. c #609752",
"4. c #649458",
"5. c #67995A",
"6. c #6CA55D",
"7. c #77966F",
"8. c #7D8A7A",
"9. c #7BA66F",
"0. c #8E8E09",
"q. c #AC840A",
"w. c #BD9807",
"e. c #97A409",
"r. c #FB8703",
"t. c #C6AC09",
"y. c #D6AB0A",
"u. c #D7B80A",
"i. c #EBAC0C",
"p. c #E4BB07",
"a. c #F9BC06",
"s. c #F8B70E",
"d. c #FBD524",
"f. c #FCDD2E",
"g. c #B4837B",
"h. c #8EA479",
"j. c #84A97B",
"k. c #828681",
"l. c #8D8D8D",
"z. c gray58",
"x. c #949E91",
"c. c #9A9A9A",
"v. c #90A48B",
"b. c #99AD94",
"n. c #A0AF9C",
"m. c #A2B19E",
"M. c #A4A4A4",
"N. c #ACACAC",
"B. c #A4B4A0",
"V. c #B2B2B2",
/* pixels */
"` ` x ` +.X.' ' O.` ..z ^ ^ ` ` b ' x x ' ' ` ` ` ' _ M z _ ' ' ` ] ' x ' ' ` ` ' ' ..' [ X.x z x m ",
"....' ' O._ x x ` ' _ ' ` x ' ` ' ' ^ ' _ ..' M x ' ' x '  .' ( N B ' c _ O.B m ` ' _ m N ` _ ` / k ",
"` X.m ' ' ' ' N / ` x ' ..' ' ` ' ` N ' O.' ` ' O.N ` ' B c ` ` N ( x N ` ` ( x ' ` ` ' ` _ _ O.X.O.",
"N B _ M _ ' ^ X._ M ' z ' X.N m N c X.' ' x N x _ ` $.5.b.m.n.v.2.D x X._ ` ` ' ` ' ' B ` ' ' '  .@.",
"` ` x N ` ` ' _ ' _ X.X.` '  .[ ` B / ` _ ' ` ` / ` 6.b.7.3.4.j.B.x.P C { C z ' ` B ' ` ` _ ` ( ` ` ",
"_ _ ] _ _ B X.' ` } ' ' O.` _ ' _ / z x x ] ^ z m $.b.U A ' A A <.h.g.I G Z c _ N _ #.' / ' ' .._ ` ",
"' ` N N m B ` ..' ' N _ / / ` ..z ' ` O.( ` ` '  .9.8.n } X._ m ' { ! Q W ~ ;.) O.x ' ' ^ N B ' ` ` ",
"^ M ' ' M ' ` x _ M _ ^ _ ' N O.' ' O.O.O.@.B ` $.b.P B x ' @.B M x l E r.a.p.e.-.' O.^ N [ ` x x ' ",
"_ x ' ' ` M _ _ ^ B ' ..` ^ z B _ ` B _ +.` ` c ,.x.S ' B ' O.N O.` *.q.s.f.d.u.%.` N X.' N z O.' ( ",
"' O.B x ' N `  .' ' B ` x ' z _ N ` / ( / _ b k 1.k.s v [ N x z ' ' ' :.i.d.d.y.;.M x ..` _ N ' ` ' ",
"x ` N } #.^ N o.` O.' x ' X.' ' ` ' ' x z t : + L Y + $ 4 v _ _ ' B ` F w.u.t.0.=.z x } @.z ` ' ` c ",
"' '  .' ' ` _ ^ ` ` ' N _ ..( @.' x ' M s # o o w H .   X 1 v ' ' ' ( { &.>.&.| ' ' X...` _ B ' _  .",
"` ' m ' N _ ' ( ` X.' N ....B ' O.M x z a & & o & &   o   @ j N ^ X.@._ } B _ ` C ' } ' N ' B  .` ` ",
"^ ' ` N x B ' N z } ` ` N ` B ^ } / / k 7 = 9 0 9 & o     + y z B { _ ` ` _ ' [ ` ` z X.X.B B ] ' ^ ",
"' B ( ' N N ' ` ` ` ' _ N ` x z z v 8 % & = = = & o o       . - u B ` ' ' ( ' _ ` _ ( B ' x z @.' ' ",
"' _ ' #.' +.' _ ' ' ' ' k x x ' u % & & & = = = & o           . . : n ` _ c _ ] ' ' z x ` ` x ' X._ ",
"` ` m _ ^ ' B _ ' ' ' B / ' V 6 & & & & & = & & & o             o   o i B / ' ` } ` ' ` ' ` ' ` ` ' ",
"B ` N ] ' ' ' ' ` X._ B _ n , & & = = = = & = & & o o o o o o         # s M x ` ` /  .' O.B ` X.' X.",
"' _ m ` _ ' z x / ` ` _ V 6 & = = = = = = = = & & & o o o o   o         # u ] _ _  .N N _ _ { ` ` ' ",
"B x ..' ' N m z N ` ' C 8 & * = = = = = = = = = = & & & o o o           . # i _ X.z _ O.N ` ] ` ' ^ ",
"' x X.B ' x ' N B z N f * = = = 9 = 9 9 9 0 9 = = & & o o o o             X , B _ O.` B ' ` z B ' _ ",
"_ N ` ' ' ' #.X.z _ m 6 & = = 9 9 9 q w H H w q = = & & & o o               X t z ` x _ +.` x x ` _ ",
"} ` B ` ' x _ ( ' _ s & & = = = 9 q K U T Y L H 0 = & & & o o o .             > m _ ' ` ` ` x c X.` ",
"'  .z x ' ' ` M ' A 7 & = = 9 9 q J T l.z.l.R L w 9 & & o o o                 . u B ` X._  ._ / } ' ",
"^ N N O.' ' ( ' ] v * & = 9 9 9 H Y l.M.N.M.l.Y H 9 & & o o o                   1 M m _ ' ` X.@.( ' ",
"z h M ' ' ' ' } ` u & * = = 9 9 H T c.V.V.N.z.Y J 9 = o & o o o                 : B ` ' ` ` ' k ' x ",
"' ` B ' B  .( _ M 3 & & = 9 = 0 J T z.N.V.M.l.U H 9 & & o o o   .               O z ` O.B N ' N ' ' ",
"X.' ' N x _ ' } z 3 & = & = = 9 H U l.c.c.l.T K q = & o o o o                   X g ..B N ` [ ` ' ` ",
"] _ ' ' N ` X.B h 3 o & = = = = q J Y R R T L H 0 & & o o o   o                   k ` ` ..` ` ' { _ ",
"` N ` x ` ' ' ` M 7 & & & = = = 9 w J K L J w 0 = & o & o o                       k ` x x N x B _ c ",
"x ..O.X.X.` ` ' m 8 o & & = = = = 9 q q q q 9 = & & o o o o o                   . p ' ' / B M N ' ' ",
"' ` _ ` ` ^ ' x k 7 o & & & & & = = = = = = & & o o o o   o                     O m ' B _ B B B ' ' ",
"' ` x .. .' _ _ ` s X o & & & & & & & & & & & & o o o o   o                     - z ' ' ` ' ' O.N B ",
"N x ' ' ' N ..' ' d # o o & & & & & & & & & o o o o o     .                     4 N ..+.' ' ` ` B ` ",
"N @.N z z ' B ' z j , o o o o & & & o & o o & o o o o                         . p ` ` ' x  .` ' ' x ",
"` ' ' N x O.` ' N h i . o o o o o & o o o o o o o   o                         ; m ' B v z ' _ ..[ _ ",
"O.` ' ..` ' ' ` ' ` i -   o o o o o o o o o o                                 e m .._ B _ N O.` _ _ ",
"B M ` ' ` ' ' B _ N j 5 X   o   o o   o   o   . o                           - i N ` ' ..x _ ' ' [ o.",
"` ` '  .x M  . .' m ` v -     . o   o                                     O < p m x / ' ( ' x ' _ B ",
"_ ` ' ' ' _ _ ' z b m b 4 +               o                               ; i j h x z } ' ' ` ^ x ' ",
"X.' z ` ' ' ` ' ^ m v v i 4 O                                           - u f b b ` _ O. ._ x  .( x ",
"' ' N ` _ ' x X.' N N i p i < .                                       - 2 u u j N N ' O.X._ N _ ` ` ",
"` ^ _ ' ' ' ' ` N ` b g g i r 4 O                                   - 1 i u g m _ z / ' ` '  .N ' X.",
"' ' ' ' x B ' ' N ' ' B k g g y < - .                           @ 1 r u d h C _ B ' x ' ' B _ x  ._ ",
"N _ _ ` ' _ ` ' ' M ' ' x M M v i r 4 - @ .               O @ - r i p k z B { _ _ O.B _ ` ` B m ' ' ",
"^ ' O.' X.` ' x x N x ' ` ' ' M m g d i e y < ; - - ; 2 < r i p k g x x z ( ' N ' _ ` x B c ( ' [ X.",
"` ^ _ _ +.] ] ` ..` _ _ B _ ^ N m h m N z z k z k g g h g k m ] } M B z } } ^ ' ' ` x ` ..M ' / N ( ",
"@._ x N } _ m ` z ` ` N ` } O.X.O.N _ N ` ` ' x ' X.z x ' [ O.' ' [ ` ' _ ( _ M B ' ' ` ' ` m x X.' ",
"` ` ' ..' m ^ ' ' O._ ' z x ' ` ` _ ` N ] O./ ' ` ' N N [ _ ..` ` } ` ] ` ( ` ' B ' ` N ' ' ' _ ' N ",
"b m x ^ ' N ..' X...[ x ' ( ` ' ` ^ _ [ ] ] x ` ' ' ` N _ ' ' [ ' O.' ' ' ` ` ' ` N ..O.` ' ' ` m ' "
};
