/* XPM */
static char *result[] = {
/* columns rows colors chars-per-pixel */
"50 50 167 2 ",
"   c #020202",
".  c #050C03",
"X  c #080E06",
"o  c #0B0C0B",
"O  c #071403",
"+  c #091207",
"@  c #0A1B05",
"#  c #0C1509",
"$  c #0D1B08",
"%  c #131313",
"&  c #151B14",
"*  c #1B1B1B",
"=  c #0C2405",
"-  c #0E2B06",
";  c #0F2709",
":  c #10270A",
">  c #122B0C",
",  c #0F3106",
"<  c #113A07",
"1  c #14330B",
"2  c #143B09",
"3  c #183E0D",
"4  c #142011",
"5  c #172C10",
"6  c #193512",
"7  c #1A3D11",
"8  c #242424",
"9  c #2B2B2B",
"0  c #333333",
"q  c #3C3C3C",
"w  c #15430A",
"e  c #17480B",
"r  c #18480A",
"t  c #194C0C",
"y  c #1B530C",
"u  c #1C5B0C",
"i  c #1F4615",
"p  c #1D4C10",
"a  c #205E0F",
"s  c #235B14",
"d  c #1E630C",
"f  c #1E690A",
"g  c #21640E",
"h  c #226C0E",
"j  c #22740D",
"k  c #2A740D",
"l  c #247C0D",
"z  c #287F0E",
"x  c #236611",
"c  c #246C11",
"v  c #286A14",
"b  c #257511",
"n  c #287712",
"m  c #267C11",
"M  c #297D12",
"N  c #2B7418",
"B  c #2D7E18",
"V  c #347711",
"C  c #347C13",
"Z  c #3C7D13",
"A  c #387A19",
"S  c #326A25",
"D  c #367324",
"F  c #5A5F0E",
"G  c #5E5E12",
"H  c #7D480C",
"J  c #6E520E",
"K  c #77550E",
"L  c #7D5611",
"P  c #4C6A11",
"I  c #526317",
"U  c #5C6613",
"Y  c #536C15",
"T  c #457714",
"R  c #527B16",
"E  c #626411",
"W  c #434343",
"Q  c #4A4B4B",
"!  c #545454",
"~  c #5B5C5B",
"^  c #4A6942",
"/  c #666666",
"(  c #6C6C6C",
")  c #747474",
"_  c #7B7B7B",
"`  c #B92A0A",
"'  c #A23D0C",
"]  c #AA380A",
"[  c #B3320A",
"{  c #B8340A",
"}  c #DC2806",
"|  c #C93307",
" . c #C23208",
".. c #E42905",
"X. c #F32B04",
"o. c #F92F02",
"O. c #F03304",
"+. c #F53B03",
"@. c #EE211D",
"#. c #8E460C",
"$. c #8B4B0F",
"%. c #98450C",
"&. c #9E4A0F",
"*. c #9E501E",
"=. c #ED4E03",
"-. c #F44103",
";. c #F85902",
":. c #FB7902",
">. c #915A4A",
",. c #26820D",
"<. c #28830E",
"1. c #29890E",
"2. c #278110",
"3. c #2A8412",
"4. c #2C8B13",
"5. c #2F8718",
"6. c #2F8B18",
"7. c #348415",
"8. c #3B8414",
"9. c #318E17",
"0. c #328D19",
"q. c #3A8C19",
"w. c #2E9115",
"e. c #329316",
"r. c #339B17",
"t. c #339319",
"y. c #38971E",
"u. c #35991A",
"i. c #399D1D",
"p. c #3B9222",
"a. c #438417",
"s. c #468D1B",
"d. c #4A8B1A",
"f. c #4B9538",
"g. c #56834A",
"h. c #5D8053",
"j. c #668C5B",
"k. c #609752",
"l. c #649458",
"z. c #67995A",
"x. c #6CA55D",
"c. c #77966F",
"v. c #7D8A7A",
"b. c #7BA66F",
"n. c #FB8503",
"m. c #FB9606",
"M. c #FCAB06",
"N. c #FBA50A",
"B. c #FCBE06",
"V. c #FBB50D",
"C. c #FCD926",
"Z. c #FCD828",
"A. c #B3837C",
"S. c #89A77A",
"D. c #828681",
"F. c #8D8D8D",
"G. c gray58",
"H. c #949E91",
"J. c #9A9A9A",
"K. c #90A48B",
"L. c #99AD94",
"P. c #9CAB98",
"I. c #A0AF9C",
"U. c #A4A4A4",
"Y. c #ACACAC",
"T. c #A4B4A0",
"R. c #B2B2B2",
/* pixels */
"3.3.l 3.y.e.4.4.t.4.4.j ,.,.4.M c 4.l l 4.9.M 2.4.4.2.n j 2.4.4.4.5.5.l 4.4.3.3.4.4.w.4.5.w.,.j M b ",
"w.w.4.4.t.2.l l 3.4.2.4.3.l 4.3.4.4.,.4.2.w.4.m l 4.4.l 4.9.4.<.z 2.4.z m e.M l <.4.2.b m 2.2.3.<.h ",
"3.e.b 4.4.4.4.m <.<.z 4.w.4.4.3.5.4.m 4.e.4.3.6.0.m 3.4.M z 4.3.M 1.M M 2.4.<.l 4.4.3.4.5.,.2.t.e.e.",
"m M 2.n 2.4.,.e.M M 3.j 4.e.m b l 2.w.4.4.l m l 2.3.p.z.L.I.I.K.j.D j s.7.C Y 7.3.4.3.3.3.4.4.4.0.u.",
"2.5.l 2.3.3.4.3.1.M t.e.4.4.t.4.2.M ,.3.2.4.3.3.m B x.P.c.k.l.S.T.H.^ I U F H T Z C 4.2.3.3.3.1.3.3.",
"2.3.3.2.2.m e.3.4.9.4.4.e.3.m 4.<.<.j l m 3.,.j b s.P.h.A 4.N p.f.S.A.>.`  .| #.K V i.4.,.3.4.w.2.3.",
"3.4.b m b 2.3.w.4.4.M 2.,.,.5.4.j 4.3.t.1.5.3.4.6.b.v.v 4.u.m b 3.7.*.@.X.;.;.X.&.F 8.4.3.m 2.4.3.3.",
",.n 4.4.n 4.3.2.2.n 2.l 2.4.2.w.4.4.0.y.e.u.2.<.p.P.^ M l 4.t.A G J ` o.n.B.B.n.O.%.q.m 2.5.3.l l 4.",
"M l 4.4.3.n <.3.,.M 4.w.3.l j B 2.M M 3.t.3.5.3.f.H.S 4.m 4.t.M R #...;.V.Z.C.N.+.' P q.4.2.j t.4.1.",
"4.t.M l 4.M 3.6.4.4.m 3.l 4.j 2.m 4.,.,.<.2.c f g.D.p x 6.2.2.f 4.8.[ o.N.Z.Z.N.-.[ J a.3.l 2.3.3.3.",
"l 3.l 9.r.m M r.3.t.4.l 4.e.e.4.3.4.4.l b e ; # ~ ( X $ 2 x 3.3.7.Y #.} :.M.m.;...H k 9.t.l 5.4.5.2.",
"w.4.0.4.w.3.2.,.3.3.4.m 2.w.1.u.4.l 5.m p #   o q W .   X , g 4.1.8.8.{ O.=.+.} %.L d.w.3.M M 4.<.0.",
"2.4.b 4.m 2.4.1.3.r.9.l 4.w.2.3.t.l l j i % % % % % o o   @ g m ,.e.d.$.L ] [ $.Y 8.8.4.M 4.M 0.3.3.",
"z 4.3.m l M 4.m j 6.3.3.M 3.2.,.9.<.<.g 6 * 8 9 * o o     X e j l 5.C T C E E a.8.5.j e.e.2.M 3.4.,.",
"4.M 1.4.b 2.4.3.2.3.4.2.n 3.j l j h 7 : % * * * * o o       X = s n 4.4.9.8.7.M 3.2.<.3.4.j l t.4.4.",
"4.2.4.i.4.u.5.2.4.4.4.4.j l j 4.t % % % % % * * % o X             : x <.<.l 3.3.w.4.b l 4.3.j 4.e.,.",
"3.3.b 2.,.4.m 3.6.4.4.3.,.5.b > % % % % % * * % % o               o X y M <.4.2.9.3.4.M 4.4.3.<.3.4.",
"M 3.m 5.4.4.4.4.,.t.m m 2.v 5 % % * * * % * % % % % o o o o o         # p b l 2.4.<.9.4.e.M 5.e.1.t.",
"4.2.b 3.2.4.j l 2.3.3.3.N 5 % * * * * * * * * % % % % % o o             # y B M 2.0.m m M 2.5.5.4.4.",
"m l w.4.4.m b j m 3.3.M 7 & * * * * * * * * * * % % % o o o o o           $ y 4.e.j 2.t.M 1.3.2.5.,.",
"4.l t.2.4.l 4.m 3.j b s 4 * * * 8 * 8 8 9 8 8 * * % % % o o o o           . > M 2.t.3.2.4.5.j M 4.3.",
"2.m 3.4.4.4.i.e.b 2.b 5 % * * 8 8 8 0 q Q W q 0 * % % % o o o   o           X e j 4.l 3.t.3.l l 3.2.",
"4.3.n 5.4.l 2.<.4.M p & * * 8 * 8 0 ! / ( ( ~ W 9 * % o o o o                 : c 3.4.3.3.5.,.<.w.4.",
"4.0.j l 4.1.5.m 4.B 6 % * * * 8 0 Q ) F.G.F._ ~ q 8 % % % o o o               . t m ,.t.2.5.l <.4.3.",
"<.l m t.4.4.<.e.3.x 4 % * * * 8 q ( F.U.Y.U.F.( W 8 % % o o o   o               , M j 2.4.M r.t.4.3.",
"j f n 4.4.4.4.4.7.t % * * * 8 8 Q ) J.R.R.Y.G.( Q 8 % % % o o o                 ; m 5.4.3.3.4.h 4.,.",
"w.3.m 4.M 0.<.4.n 1 % % * * * 9 Q ) G.Y.R.U.F./ W 8 % % o o o                   O h 3.t.3.M 4.m 4.4.",
"e.4.4.m l 2.4.4.j 1 % * * * 8 8 W / F.J.J.F._ ! 0 * % o o o o                   . g w.n m 3.6.3.4.3.",
"5.2.4.3.m <.e.l g 1 % % * * * 8 0 Q ( _ _ ) ~ q 9 % % o o o   o                 . g 3.3.w.3.3.4.5.3.",
"3.2.3.<.5.4.4.3.n 1 o % % * % * 8 q Q ! ~ Q q 9 * % o % o o                     . g 3.l l m l M ,.z ",
"l w.t.w.t.3.3.4.b 7 o % % * * * * 8 0 0 0 9 8 * % o o o o o o                   X u 4.4.<.M b m 4.4.",
"4.3.l 3.5.,.4.l h 6 o % % % % * % * * * 8 * % % o % o o   o                     O b 4.2.M M <.M 4.4.",
"3.4.l w.t.4.l 2.3.p X o % % % % % % % % % % % % o o o o   o                     = j 4.4.5.4.4.e.n 2.",
"2.b 4.4.4.m w.4.4.a + o % % % % % % % % % % % o o o o   o                       2 m w.t.4.4.2.5.M 3.",
"m u.m j l 3.M 4.j d > o o o o % % % o % o o o o o o   o                       . u 5.3.4.l 9.<.4.4.l ",
"3.4.4.l l t.2.4.b j y X o o o o o % o o o o o o o o                           - b 4.n h j 4.2.w.4.2.",
"t.3.4.w.4.4.4.5.4.3.u =     o o o o o o   o o o                             . w j w.3.M m m t.3.2.3.",
"2.n 3.3.3.1.3.M 2.m a 3 X     X o o   o o o                                 = y b 3.4.4.l 2.4.4.5.r.",
"M 5.4.e.l m 5.0.5.b 3.x ;         o o           o                         O , u m l <.4.4.4.l w.2.<.",
"3.3.4.3.4.3.3.4.l c b c 2 #             o                                 - y g f m j 9.4.1.3.,.l 4.",
"w.6.j 3.3.4.<.4.l j c x u < .                                           = t s c b 2.2.t.0.2.l 0.3.l ",
"4.6.m 2.3.4.,.t.4.M b y y y , O                                       @ < t t x n m 4.t.w.2.m 2.2.3.",
"3.,.,.w.4.5.3.4.m 3.b g d y w 2 O                                 . = 2 y y d j 2.j <.4.3.4.0.m 4.e.",
"4.4.4.4.l 2.3.w.m 3.4.M h d d e , = .                         . O , w t u d B 2.M 4.l 4.4.M M 2.t.3.",
",.3.2.3.4.2.5.4.4.M 4.4.l M n x y w w = @ . .           . . @ - w y u j j 2.7.M 2.t.2.m 4.4.n b 4.4.",
"l 1.w.4.e.4.<.l l b l 4.3.3.3.M c d u y r w , - = - - , , w y u g f n j j <.w.m 4.2.3.l m l <.4.4.e.",
"3.,.3.2.u.5.5.2.4.4.2.3.M 2.2.M b f b m j j h j x d f f d h m 3.4.M M l t.4.<.4.9.2.l 3.9.M 4.<.l 3.",
"u.2.m m 7.,.b 5.b 2.2.m 3.9.e.e.t.m 2.l M 4.4.l 4.e.j l 4.6.0.3.4.5.3.4.2.<.2.n z 4.4.2.w.M l l e.4.",
"5.3.4.w.6.b ,.4.4.t.m 3.l l 4.4.3.2.3.m 5.t.,.4.4.3.m m w.m w.3.3.e.3.3.4.2.5.4.M 4.3.2.4.4.4.2.9.l ",
"f j l 2.4.l w.4.r.w.6.l 4.3.3.4.3.l 2.4.5.5.l 3.4.4.3.m 3.6.w.5.4.t.4.5.4.3.4.4.2.l 4.e.B 4.1.4.j 5."
};
