/* XPM */
static char *result[] = {
/* columns rows colors chars-per-pixel */
"50 50 151 2 ",
"   c #020202",
".  c #050B03",
"X  c #0B0B0B",
"o  c #071404",
"O  c #091206",
"+  c #091B05",
"@  c #0B1209",
"#  c #0C1B08",
"$  c #131313",
"%  c #141D12",
"&  c #1B1B1B",
"*  c #0B2204",
"=  c #0E2D06",
"-  c #132C0C",
";  c #0F3206",
":  c #103506",
">  c #113907",
",  c #13340A",
"<  c #143A09",
"1  c #162B10",
"2  c #183511",
"3  c #1A3A11",
"4  c #1F3B18",
"5  c #232323",
"6  c #2C2C2C",
"7  c #333333",
"8  c #3A3A3A",
"9  c #134507",
"0  c #17450B",
"q  c #1A450F",
"w  c #154D08",
"e  c #194C0C",
"r  c #1B530C",
"t  c #1D5A0D",
"y  c #205711",
"u  c #205C10",
"i  c #1E630C",
"p  c #1D6A0A",
"a  c #21640F",
"s  c #216B0E",
"d  c #22750D",
"f  c #247C0D",
"g  c #287F0E",
"h  c #3D740F",
"j  c #226310",
"k  c #246C11",
"l  c #257411",
"z  c #287712",
"x  c #267C11",
"c  c #297D12",
"v  c #2F701E",
"b  c #3A7512",
"n  c #327D14",
"m  c #3B7A12",
"M  c #32791F",
"N  c #7B540D",
"B  c #755810",
"V  c #516514",
"C  c #5C6310",
"Z  c #516C12",
"A  c #5B6D14",
"S  c #407311",
"D  c #4A7713",
"F  c #547514",
"G  c #5A7416",
"H  c #666310",
"J  c #47703C",
"K  c #444444",
"L  c gray29",
"P  c #4E534D",
"I  c gray33",
"U  c #5C5C5C",
"Y  c #6F6F6F",
"T  c #767676",
"R  c #7C7C7C",
"E  c #9F3809",
"W  c #A9350B",
"Q  c #BB330B",
"!  c #C4250A",
"~  c #CE2208",
"^  c #D82506",
"/  c #D42A06",
"(  c #DE2806",
")  c #DD3806",
"_  c #ED2C04",
"`  c #F62502",
"'  c #F32904",
"]  c #F6220F",
"[  c #F53503",
"{  c #8E4C0F",
"}  c #81550F",
"|  c #994A13",
" . c #B2460E",
".. c #F65603",
"X. c #FA5402",
"o. c #FA6003",
"O. c #A55047",
"+. c #26820D",
"@. c #28830E",
"#. c #29890E",
"$. c #278110",
"%. c #2A8412",
"&. c #2C8B13",
"*. c #2E8718",
"=. c #2E8C18",
"-. c #388114",
";. c #328D17",
":. c #33871C",
">. c #328D19",
",. c #2E9114",
"<. c #329316",
"1. c #339A17",
"2. c #339319",
"3. c #38971E",
"4. c #359A1A",
"5. c #399C1D",
"6. c #37A01C",
"7. c #368224",
"8. c #3A9D20",
"9. c #4D823F",
"0. c #598C4B",
"q. c #539343",
"w. c #618A4E",
"e. c #639954",
"r. c #719866",
"t. c #768173",
"y. c #7E8F7A",
"u. c #7E9A78",
"i. c #79A66D",
"p. c #FB8B03",
"a. c #FB9803",
"s. c #FBA007",
"d. c #FBA608",
"f. c #FBAE0C",
"g. c #FCC319",
"h. c #FDD828",
"j. c #FDDF34",
"k. c #83A27A",
"l. c #82AC78",
"z. c #888888",
"x. c #899885",
"c. c #939393",
"v. c gray61",
"b. c #86A080",
"n. c #8FA08B",
"m. c #91A08C",
"M. c #98B291",
"N. c #A3A3A3",
"B. c #ABABAB",
"V. c gray70",
"C. c #C18C84",
/* pixels */
"%.%.g %.3.2.&.&.2.%.,.d +.+.%.%.k &.f d %.=.@.%.&.&.+.x s %.&.&.%.*.&.g &.&.%.%.&.&.,.=.&.<.f d x l ",
",.,.&.%.1.$.x d %.&.$.&.&.d &.%.&.&.+.&.%.,.&.z d &.&.g &.=.%.@.d %.&.c $.,.c x $.&.$.l x %.$.%.@.s ",
"%.<.z &.&.=.&.g +.@.g &.,.&.&.&.*.%.$.=.,.2.%.=.,.x %.&.c g &.%.x #.c f %.%.@.f &.%.%.&.%.@.$.2.2.<.",
"x c x x $.&.$.,.%.c %.d &.,.c k f @.,.&.&.d x g %.%.2.d f c %.&.&.g g <.%.%.%.&.%.&.&.x $.=.&.&.>.4.",
"%.%.g $.%.%.&.@.&.%.<.2.&.&.=.=.%.c #.%.$.&.%.$.x g &.g &.&.c *.@.c d &.%.%.d %.%.c =.@.%.$.%.#.%.%.",
"$.$.%.$.x $.<.%.%.&.%.&.<.%.$.&.@.@.d d x %.+.d z f &.<.%.&.c x &.*.d &.>.%.%.%.x $.5.&.@.%.&.&.%.%.",
"%.&.l x z c %.,.&.&.x %.+.+.*.&.d #.%.2.#.%.%.&.=.:.%.g &.2.%.l %.%.&.<.&.c &.#.2.f ,.&.+.x %.&.%.%.",
"x x &.&.z &.%.+.%.x x g +.&.$.=.=.&.>.3.<.5.$.%.>.>.:.e.b.u.0.M z n d m ;.;.%.%.,.&.<.+.$.*.%.g g &.",
"$.x %.&.%.c x %.+.c &.,.@.g d c %.c $.%.2.%.&.%.%.;.l.m.r.i.M.n.0.V h { D b c c $.%.c <.=.x d 4.&.@.",
"&.2.x g &.c %.=.&.&.x %.g =.d $.x &.+.@.@.&.c &.%.q.y.l 1.%.c w.C.O.! _ W } %.k &.x d ,.%.g c %.$.%.",
"g @.x =.4.+.x 1.$.2.&.g #.<.,.&.@.&.&.f %.c %.<.%.k.J f &.<.-.S | ] o.a.X. .C f $.d d <.,.d %.&.&.%.",
"=.=.2.&.&.%.@.+.%.%.&.x %.&.&.4.&.d &.x %.@.%.x 7.x.v ;.g &.b N ^ X.g.h.s.' B ;.%.*.1.,.%.$.$.&.$.>.",
"+.%.l &.x %.%.&.%.1.=.f ,.,.@.%.2.x f d *.c c c 9.t.j c $.d c n E [ g.j.f.[ W A %.&.=.%.c &.c :.%.%.",
"+.&.%.x d x &.x d =.c %.g %.c @.2.+.#.&.%.u - + P U @ # t %.c h N ) p.d...( H :.%.*.d 1.,.%.c *.&.+.",
"&.x #.&.x @.&.%.$.%.&.%.x @.d f f ,.2.>.d 3 X X 5 5   X # l %.%.>.Q / ` ~ F A c %.$.@.%.&.d f 2.&.&.",
"&.%.&.6.=.2.&.%.&.&.=.&.s f d 1.<.#.>.&.v 4 & 1 $ X X   O k +.%.m G F W Z h $.*.,.&.d f &.%.d &.,.%.",
"%.%.l $.$.#.x %.=.&.=.$.@.&.&.%.f c d r - $ & & & X .     # < l <.c n D %.@.&.%.&.&.%.%.#.*.%.%.%.&.",
"c %.x *.&.&.&.&.@.,.x $.%.2.%.%.>.a - $ $ $ & & $ X           O t z %.+.=.%.f x %.@.;.=.<.x &.,.#.2.",
"&.%.d %.%.=.d d @.%.%.%.2.p c <.j % $ $ $ & & $ $ X X   X     . X < c %.%.=.&.%.$.&.g x c %.*.%.&.&.",
"g d ,.&.,.l x d x %.%.2.%.g *.y % $ & & & & & $ $ $ $ X X X       . , &.<.x f &.2.d %.2.%.%.%.%.*.+.",
"&.f =.%.&.g &.x %.d x 5.;.2.k 1 & & & & & & & & $ $ $ X X             q =.4.%.2.$.2.&.c =.%.s %.&.$.",
"%.f %.&.=.%.4.<.d %.&.+.%.%.- $ & & 5 & 5 6 6 5 & $ $ $ X X X         @ s %.$.c x %.d $.2.%.f g %.%.",
"=.%.x %.&.f %.#.&.%.g d %.y $ & & 5 5 7 L I I 8 5 $ $ X X X             , g +.%.%.%.&.%.%.*.g g ,.&.",
"&.>.d x &.&.%.x &.<.&.&.*.2 $ & & 5 7 U R z.R U 8 & $ $ X X   X         O s ,.=.d %.$.<.%.&.x +.&.%.",
"+.g x >.=.#.#.;.%.&.&.,.z % & & & 5 L R N.B.v.T L 5 $ X X X               0 %.x d %.f $.&.c 2.1.&.@.",
"d p c %.&.&.&.&.=.d 1.;.r $ & & 5 6 U c.B.V.N.R L 5 $ $ X X X             = *.x &.=.%.&.%.%.=.s &.+.",
"=.%.x &.g >.@.&.$.s f %.q $ & & & 6 I z.N.B.c.Y K 5 $ $ X X               o %.=.&.%.%.>.%.g &.f %.&.",
"<.&.&.g d %.&.=.g d +.+.< $ $ & & 5 L Y z.z.R I 7 $ X X X X X             . c g %.%.,.c x $.=.%.&.&.",
"%.$.&.&.+.%.,.+.d &.%.%.- $ $ & & & 7 L U U L 7 & $ X X   X               . d %.;.&.&.%.,.%.@.=.*.%.",
"&.x %.x *.%.&.%.%.<.&.&., $ $ $ & $ & 5 6 7 5 & $ $ X X X                 o c 2.&.&.%.f g x x x g %.",
"f ,.<.,.2.@.%.=.c 8.;.%.e X $ $ $ & & $ $ $ $ $ $ X X X .                 o %.%.&.g &.&.+.c z f %.=.",
"&.%.g %.*.+.&.f d %.&.&.j @ X $ $ $ $ $ $ $ $ $ X X X   X                 ; %.+.,.&.=.c c c c %.,.@.",
"%.%.f <.,.&.$.+.%.&.$.&.z * X X X $ $ $ $ X X X X X X                     t %.&.&.%.&.&.*.&.&.<.c x ",
"x x &.&.&.x ,.=.%.%.%.d *.q   X X X X X X X X X X                       * %.$.c *.%.,.2.&.&.%.%.$.%.",
"x 5.x d d &.g &.d l =.c &.k O   X X X X X X X X X                       e c %.@.#.&.%.%.f =.%.%.&.d ",
"c &.&.x f >.%.=.x d ,.@.*.l 0     X   . X                             o k s c <.&.=.c k d &.%.<.=.+.",
"2.$.&.,.%.&.&.%.&.@.d x >.a r *                                     o q s d c %.l ,.%.$.+.x 2.%.$.%.",
"%.x &.%.%.#.&.c %.c z &.*.s w 9 +                                 . > t a s g f #.#.&.,.f +.&.&.*.1.",
"c %.&.,.x x *.:.=.x 2.4.c z i w ; +                             . , e r s f d d &.+.%.&.@.&.g &.%.+.",
"%.%.&.*.&.%.%.&.d x &.1.c z d k t < * .                       + ; w t p z @.%.>.x #.d ;.&.&.%.g f &.",
",.&.d %.%.&.%.&.@.%.%.>.=.&.d g i j t > + .             . o ; < r p l z @.2.>.2.%.,.%.2.=.$.f >.@.x ",
"&.&.x $.%.&.f <.=.&.%.l @.&.+.%.x x d k j r 0 > ; : > : e t p t p $.d *.x c l c &.$.&.,.,.$.l %.%.%.",
"%.%.%.,.&.%.&.&.g %.x x $.%.%.1.&.d x $.%.x x %.f x x %.f %.&.>.%.*.%.c &.l +.&.&.d %.,.%.&.=.+.&.<.",
"&.#.%.&.g %.@.=.x &.&.&.x +.,.%.%.&.=.&.&.$.c %.&.*.=.$.&.%.x %.&.2.%.%.&.x =.&.%.&.d ,.&.$.c $.;.%.",
"$.%.$.%.&.c *.,.=.x &.&.c &.=.&.$.$.2.&.<.&.+.%.g &.&.%.f $.=.d =.,.%.&.#.&.;.%.%.>.%.x *.%.c z ,.#.",
"x #.=.&.<.&.@.f f l g %.*.&.&.%.c d $.x @.,.f %.x &.@.%.d %.=.@.&.d &.+.d &.&.x &.@.%.f x f +.&.=.<.",
"%.+.%.%.3.&.%.%.,.&.%.g x %.g $.l d l &.%.%.%.&.&.x g @.d x %.2.<.x x g ;.&.+.&.&.%.d &.;.c &.@.x %.",
"1.%.f x *.x z %.l +.%.x %.;.<.,.2.x $.f %.%.&.f &.,.d g &.=.>.%.&.*.%.&.@.%.@.x %.%.&.$.,.%.d f ,.&.",
"%.%.#.,.=.l $.&.=.=.%.#.d +.&.&.$.$.%.x *.2.@.%.&.&.l x =.$.,.$.%.,.%.%.%.@.&.&.x &.%.$.&.&.&.%.&.x ",
"s l f $.#.$.,.&.2.,.=.f &.%.%.&.%.g $.&.*.*.f &.&.%.%.c $.&.,.=.*.2.&.&.=.%.%.=.%.g &.<.%.&.&.%.d *."
};
