/* XPM */
static char *_bc4f1667a87474ba141837094510de5sWKbIxejxjsURDqc[] = {
/* columns rows colors chars-per-pixel */
"50 50 152 2 ",
"   c #1E6A0B",
".  c #216C0D",
"X  c #22750D",
"o  c #2B720D",
"O  c #247C0D",
"+  c #297F0E",
"@  c #367D0D",
"#  c #226C11",
"$  c #247511",
"%  c #2A7712",
"&  c #267C11",
"*  c #297E12",
"=  c #3C7E11",
"-  c #26820D",
";  c #29830E",
":  c #29890E",
">  c #33870F",
",  c #3C840F",
"<  c #278110",
"1  c #298511",
"2  c #2A8412",
"3  c #2C8613",
"4  c #2B8215",
"5  c #2C8114",
"6  c #2B8715",
"7  c #2C8614",
"8  c #298911",
"9  c #2B8A12",
"0  c #2C8913",
"q  c #2B8C12",
"w  c #2D8F13",
"e  c #2D8B15",
"r  c #2D8D14",
"t  c #2E8E15",
"y  c #2E8D17",
"u  c #2E8518",
"i  c #2F8718",
"p  c #2F8C18",
"a  c #338513",
"s  c #3A8612",
"d  c #328E16",
"f  c #3B8B12",
"g  c #318D19",
"h  c #328D19",
"j  c #2E9113",
"k  c #2E9214",
"l  c #2F9216",
"z  c #319116",
"x  c #329316",
"c  c #329517",
"v  c #339917",
"b  c #339218",
"n  c #329219",
"m  c #339319",
"M  c #34921A",
"N  c #339518",
"B  c #359719",
"V  c #38971E",
"C  c #35991A",
"Z  c #399C1D",
"A  c #37A01C",
"S  c #3A9D20",
"D  c #4E820C",
"F  c #458E0F",
"G  c #4C8E0F",
"H  c #55870F",
"J  c #5A870B",
"K  c #538C0E",
"L  c #5C940F",
"P  c #448512",
"I  c #438D12",
"U  c #4A8B11",
"Y  c #5B8E11",
"T  c #439214",
"R  c #4C9213",
"E  c #519212",
"W  c #5C9411",
"Q  c #569B14",
"!  c #5B9813",
"~  c #61850D",
"^  c #648A0E",
"/  c #64970F",
"(  c #6E940B",
")  c #7D940C",
"_  c #749B0E",
"`  c #7E8F11",
"'  c #699313",
"]  c #649D13",
"[  c #799210",
"{  c #56A017",
"}  c #74A00E",
"|  c #78A70F",
" . c #6EA413",
".. c #76A310",
"X. c #7BA411",
"o. c #848E0F",
"O. c #888F0F",
"+. c #928E0D",
"@. c #9B8F0D",
"#. c #849E0B",
"$. c #8C9A0D",
"%. c #94910D",
"&. c #989511",
"*. c #AA940B",
"=. c #AF990D",
"-. c #BC960C",
";. c #B39C0E",
":. c #84A10E",
">. c #89A50C",
",. c #9EA709",
"<. c #94AA0B",
"1. c #9DAC0D",
"2. c #A1AA0B",
"3. c #AAA90C",
"4. c #B8A70C",
"5. c #BEAB0A",
"6. c #A3B00D",
"7. c #B6B10A",
"8. c #BCB209",
"9. c #CE960A",
"0. c #CB9C0C",
"q. c #D49C0B",
"w. c #DB9C0B",
"e. c #F39E0A",
"r. c #CBA90A",
"t. c #D8A00C",
"y. c #D2A90A",
"u. c #DBA80A",
"i. c #C2B509",
"p. c #C6B80A",
"a. c #CDBB0A",
"s. c #DDBE07",
"d. c #D2B208",
"f. c #DFB508",
"g. c #D4BC08",
"h. c #DCBE08",
"j. c #E4A10B",
"k. c #E9A30A",
"l. c #EDA909",
"z. c #F2A30A",
"x. c #F2AA09",
"c. c #E7B608",
"v. c #EDB208",
"b. c #EBB908",
"n. c #F1BE07",
"m. c #F2B408",
"M. c #F1BA08",
"N. c #E4C107",
"B. c #ECC307",
"V. c #E2C108",
"C. c #EBC208",
"Z. c #F1C507",
/* pixels */
"1 3 + 1 V B 9 9 M 7 w X - - 7 * $ 9 + O 7 d < 1 0 q < $ X & t 9 7 i e O t 9 1 7 e 0 k t p t + $ & $ ",
"w t 9 6 B < & X < w < e 3 X e 1 7 0 - 9 - k 7 $ O q 9 + 9 h 1 1 $ < e + < b < $ 1 0 < $ & < < < - . ",
"1 b $ q 9 p q $ 1 1 ; 0 k 9 w 6 7 1 & t b h < p h % 9 t & + 3 7 & : - $ < e ; O e 9 6 6 e - * b B b ",
"& * < % & t < v < * < X 0 c * # $ * t t 9 O & + < 1 b $ $ * 1 e 9 + + B < 4 6 1 3 0 e & * t 9 t h b ",
"6 6 + < 1 1 t < 1 < M m 6 9 h p 6 * ; 1 < e 6 < + + w * t q % e * * X 7 5 5 X < < * d < 1 < 1 : 7 < ",
"- 4 * < * & b 1 1 e 7 t B 1 < 9 ; - X O & 4 - X $ X w x 3 0 * & e e O e e 1 1 1 * * Z 9 ; 1 9 t < 9 ",
"1 9 $ & $ < 6 k w e $ < - - 6 t O 9 4 M : 6 1 e h i 3 - e b 4 $ 1 1 e k k * e w b O q 9 < * < 6 3 1 ",
"< $ 9 t % e < + < & 4 + 1 1 & b t 0 h b x C * 1 h i < 7 O e C < % < X < t h * 9 j w b < < i 3 + & 7 ",
"* O 3 0 3 % - < - * e t < O X * < < * 6 b 7 7 < a 9 x 0 a R  .K Q > 1 e 1 < $ 1 < 1 * x t < X b t ; ",
"e b * - 9 & 1 h e e * 1 ; t X < $ 7 - - ; 0 < w 1 - G >.p.N.B.B.C.g.2.] > 0 0 # 7 $ O t < & * 9 < 3 ",
"& 1 & t C * * v 4 b 0 & q m k e 3 t 9 + < < 1 b s :.g.B.Z.Z.Z.Z.Z.Z.Z.s.2.{ 1 & 1 X X x b O 1 7 e < ",
"t t h 0 j 3 1 - 1 6 9 & 4 : r C 0 O 0 * < 7 t s 2.N.B.Z.Z.Z.Z.Z.Z.Z.Z.Z.Z.i.W d 6 7 B x < * < e < h ",
"< 3 $ t $ 1 1 9 1 c d O k k + 1 M & + O 7 * f 2.B.Z.Z.Z.Z.Z.Z.Z.Z.Z.Z.Z.Z.B.i.E 4 9 t < * 7 * p 1 3 ",
"< 9 3 $ O * 9 & X t < 5 * < & + d - : 9 e * _ c.Z.Z.Z.Z.Z.Z.Z.n.l.k.k.M.Z.Z.B.1.a p X B c * * i 0 - ",
"0 < 9 e $ 1 0 1 < 1 e < % < O O O k b p O f 8.Z.Z.Z.Z.Z.Z.Z.b.0.&.` %.0.b.Z.Z.h.W < 1 < 0 O O M e 0 ",
"0 1 1 A t m p < t 7 t 7 X & X v x ; h e t  .N.Z.Z.Z.Z.Z.Z.Z.r.^ > h h H r.Z.Z.C.1.r $ O 7 < O e x < ",
"5 < $ < < 9 & 1 t 1 t < ; e h 1 + & - 1 j <.B.Z.Z.Z.Z.Z.Z.B.$.x c < < 0 _ Z.Z.Z.a.> 3 3 w 7 < 1 1 1 ",
"4 1 * 7 e 9 9 9 1 c & < 1 t 9 < d & 1 9 c 7.Z.Z.Z.Z.Z.Z.Z.B.#.3 d < 7 + X.Z.Z.Z.N.F b a B * 7 x 9 B ",
"0 < X 4 4 t X O < 1 4 1 m   * m j t + q a i.Z.Z.Z.Z.Z.Z.Z.Z.8.L ; < d E p.Z.Z.Z.C.! & & * < p 7 9 6 ",
"+ & t 9 k $ & X $ 7 1 b 6 O e 1 - < * 9 % i.Z.Z.Z.Z.Z.Z.Z.Z.B.i.>._ #.p.Z.Z.Z.Z.B.J 1 b * 7 < < e - ",
"e + k < e $ j $ < X * Z h C < 7 < < 7 7 h 4.Z.Z.Z.Z.Z.Z.Z.Z.Z.Z.C.N.B.Z.Z.Z.Z.Z.B.] 7 * e 7 X & 7 < ",
"< $ 6 t e 3 Z x X < t ; < t < + 9 O < 1 s 8.Z.Z.Z.Z.Z.Z.Z.Z.Z.Z.Z.Z.Z.Z.Z.Z.Z.Z.c.K O < b 7 O O 0 4 ",
"e 7 $ 7 w O < : 9 7 + X < 9 6 & 9 1 & s 1.B.Z.Z.Z.Z.Z.Z.Z.Z.Z.Z.Z.Z.Z.Z.Z.Z.Z.Z.y.s e 3 < 7 + + k e ",
"e h X O 0 9 7 % 9 b t 9 t 9 - < 4 9 k  .N.Z.Z.Z.Z.Z.Z.Z.Z.Z.Z.Z.Z.Z.Z.Z.Z.Z.Z.M.+.< < b < h * + t 3 ",
"- & < h t 9 1 t 4 9 w t h & 1 p 7 1 < T 8.Z.Z.Z.Z.Z.Z.Z.Z.Z.Z.Z.Z.Z.Z.Z.Z.Z.Z.u.D 4 O < t 4 B B ; 1 ",
"X   % 1 t 9 7 e e O B h O * t * 1 e 5 _ V.B.Z.Z.Z.Z.Z.Z.Z.Z.Z.Z.Z.Z.Z.Z.Z.Z.v.+.d t 4 9 & * 9 X t - ",
"w 1 % 9 < h 1 1 < . X 3 * $ t 7 * a | g.M.x.m.Z.Z.Z.Z.Z.Z.Z.Z.Z.Z.Z.Z.Z.Z.l.;.R 9 1 4 b 4 & p $ 3 0 ",
"m t e + X & e k O O - + 1 < k 9 < _ g.M.x.z.m.Z.Z.Z.Z.Z.Z.Z.Z.Z.Z.Z.Z.m.l.=.E - 6 < k * & 1 9 6 7 3 ",
"i < 9 6 < 1 x * X 0 1 3 a 1 3 i X.c.B.x.e.m.Z.m.b.n.Z.Z.M.m.M.M.m.x.x.w.o.f ; 1 a t 1 4 j 1 1 t i 1 ",
"6 & 1 & p 9 0 & 1 x e e O 3 ; _ V.B.x.e.m.Z.m.z.w.i.s.3.*.0.w.w.q.-.O.I 6 4 e b w t 4 + + % & & * - ",
"O j B d M < 0 t * S b < O 5 _ g.M.x.z.m.Z.m.z.9.~ f ] s d , U E I @ i w < . 6 1 k $ 9 9 - * % $ 0 t ",
"9 6 + 7 7 - 9 O X < t x 5 _ g.M.x.z.m.M.m.z.q.^ - 0 0 X 3 O < d 7 & < x e . e - k 9 t & < 4 - * t 1 ",
"1 9 O x b 9 < & 6 9 5 e _ c.B.x.e.m.B.f.t.0.' - < e 7 O < < h 1 < & & + & * < e t 6 e e 7 t 0 h & - ",
"& $ 9 9 9 & t t 9 4 1 ( V.Z.x.e.m.Z.c.o.s m m t k 4 d * O i b k k e w 1 1 e < * 7 & k M e t 1 7 * 4 ",
"& C * X O 6 * 9 X % ..g.M.x.e.v.Z.m.k.[ : - b $ $ 6 O 1 t B 7 6 O 9 1 * h 1 < - 9 e < 9 O t 1 1 6 O ",
"4 e t $ O b 4 t $ @ i.M.x.z.y.,.5.j.0.J a 9 O O * 1 & 7 b e x < X v $ 7 B & 4 k e t % # X t < k b & ",
"b < t k 1 q 9 4 : f y.x.e.m.d.W f Y H ; * 1 4 k w < O & e * O 1 < 1 h h k 9 9 6 O k < * & $ B 1 < < ",
"< * 1 3 < 9 9 * 7 P t.z.m.Z.c.) * 6 e $ < t b e % M : X O $ 1 O - & 9 k ; < ; + < 9 e j + < 9 e p C ",
"* 7 7 h % * a h d P t.m.Z.M.z.@.o b k $ b 1 1 < * O q + 9 k e x 9 h t ; t 1 + X w - < e 1 9 & k < < ",
"1 1 9 e e < 4 t O = 4.g.r.0.-.' e 1 9 t X t C < 1 < - j w * b w 9 e < % < 7 9 i + 1 O h 7 9 1 + O q ",
"k t $ 1 5 j 1 0 - < s T T I @ 7 $ e b < 7 1 k * * t 9 * 6 i 1 * < 9 9 * 1 b h B 4 k 1 b h < O h < & ",
"6 t & & 1 0 - M d 7 e X 1 w - 3 < 7 1 e a 5 6 1 1 0 t X 1 1 9 # . 9 X 4 & * $ * t < e d k < $ < 1 1 ",
"1 < 1 w 0 7 < 1 $ 7 % $ & 1 1 C 9 X O < 6 < 1 t 1 e 0 q < e t h 3 9 1 * 6 $ < 9 w O & t 1 t d < 0 B ",
"9 9 1 t + 5 3 w < : j g < + x < < q t e 9 4 4 1 j i d < 1 6 * < 9 V 6 4 e & h w & q O t e * & < h < ",
"& < 4 1 w * 6 w t < w 0 * e t 0 & < v k v 1 < 1 O t t < O * h X t 0 6 w : 0 d < < h * & 6 1 & $ t 1 ",
"- 9 b 9 x e 3 O O $ % e 7 3 t 4 * X 4 $ ; k + 6 % 9 1 9 X < 9 < 0 O 9 + O 0 w % t < 6 O % * ; t t x ",
"6 - < < V 7 i * t 1 < < * < - & $ X $ 9 < 6 < 9 9 & + - X & 1 h x & & $ b 3 - w e 1 O 1 k * 9 ; & 9 ",
"c 1 $ & e * $ 6 $ 1 < O 4 d c m B $ 4 O < 7 q + 1 b X O t p b 1 9 e 4 t < < < % < 6 t < t 4 X O x 0 ",
"6 6 9 k e $ - 9 r h < 1 O O e 0 6 < 6 & i V - < 9 9 & & p & k 1 1 h 9 5 1 < 7 e % 9 1 < e 1 0 < t $ ",
"# X O + 1 < k 9 c m h O 1 1 6 9 1 + & 9 i i + 1 9 1 i & 4 9 t p p b 3 9 t 6 < j 1 * k b 5 e w 0 $ e "
};
