/* XPM */
static char *result[] = {
/* columns rows colors chars-per-pixel */
"50 50 186 2 ",
"   c #413E07",
".  c #683603",
"X  c #3B580B",
"o  c #1C680A",
"O  c #226C0D",
"+  c #2C6F0F",
"@  c #35640D",
"#  c #3B640B",
"$  c #346D0E",
"%  c #396A0D",
"&  c #22740D",
"*  c #28710B",
"=  c #247C0D",
"-  c #2A7F0E",
";  c #34720E",
":  c #236E11",
">  c #356D12",
",  c #247511",
"<  c #2C7711",
"1  c #267C11",
"2  c #297E12",
"3  c #367611",
"4  c #3E7612",
"5  c #327A12",
"6  c #4B4306",
"7  c #434B09",
"8  c #484908",
"9  c #5A4A08",
"0  c #44540A",
"q  c #4C520A",
"w  c #47590A",
"e  c #4C5B0B",
"r  c #52580B",
"t  c #415F10",
"y  c #744305",
"u  c #44620C",
"i  c #4A620C",
"p  c #41690D",
"a  c #4B730E",
"s  c #4D6510",
"d  c #407A13",
"f  c #65670B",
"g  c #850303",
"h  c #8C0505",
"j  c #8E0E0E",
"k  c #920606",
"l  c #9F0707",
"z  c #940A0A",
"x  c #8E1111",
"c  c #901313",
"v  c #9D1414",
"b  c #971919",
"n  c #9C1A1A",
"m  c #A20D0D",
"M  c #AB0E0E",
"N  c #A11616",
"B  c #AE1313",
"V  c #A41B1B",
"C  c #AB1E1E",
"Z  c #B41313",
"A  c #BB1414",
"S  c #872F01",
"D  c #9C2727",
"F  c #A32424",
"G  c #AE2121",
"H  c #A32B2B",
"J  c #AC2C2B",
"K  c #B42222",
"L  c #B02C2C",
"P  c #A53232",
"I  c #AC3636",
"U  c #A63838",
"Y  c #AB3C3C",
"T  c #B43939",
"R  c #B43C3C",
"E  c #994906",
"W  c #A15F0D",
"Q  c #AF4242",
"!  c #AE4A4A",
"~  c #B34545",
"^  c #B24D4D",
"/  c #BA4A4A",
"(  c #B35454",
")  c #B55B5B",
"_  c #BB5A5A",
"`  c #B1605F",
"'  c #B36362",
"]  c #B96565",
"[  c #BD6C6C",
"{  c #BE7070",
"}  c #C15C5C",
"|  c #C36363",
" . c #C47474",
".. c #CA7575",
"X. c #C27B7B",
"o. c #CB7A7A",
"O. c #26820D",
"+. c #29820E",
"@. c #29890E",
"#. c #278110",
"$. c #2A8412",
"%. c #2C8A13",
"&. c #2E8618",
"*. c #2F8C18",
"=. c #318413",
"-. c #318D17",
";. c #398618",
":. c #328D19",
">. c #2E9115",
",. c #329317",
"<. c #339419",
"1. c #34991A",
"2. c #37991B",
"3. c #37A01C",
"4. c #599747",
"5. c #5AA445",
"6. c #63A150",
"7. c #709E62",
"8. c #6FA562",
"9. c #70A762",
"0. c #86B47A",
"q. c #9F9A85",
"w. c #BC9493",
"e. c #9BAD88",
"r. c #93B689",
"t. c #9CB68A",
"y. c #95BA8B",
"u. c #9DAE97",
"i. c #9DAF98",
"p. c #A8A286",
"a. c #A8B5A3",
"s. c #B6BAB3",
"d. c #B8BEB5",
"f. c #BCBCBA",
"g. c #C58181",
"h. c #CA8282",
"j. c #C58F8F",
"k. c #CC8989",
"l. c #D08D8D",
"z. c #C49090",
"x. c #CD9292",
"c. c #C19F9E",
"v. c #CF9898",
"b. c #D29393",
"n. c #D49D9D",
"m. c #C2A09F",
"M. c #C4A3A2",
"N. c #C8A5A5",
"B. c #CAA8A7",
"V. c #C4ACAB",
"C. c #CBA9A8",
"Z. c #D5A3A3",
"A. c #D9A5A5",
"S. c #D6AAAA",
"D. c #DBADAD",
"F. c #CFB6B6",
"G. c #C6BCBB",
"H. c #D0B7B7",
"J. c #DCB2B2",
"K. c #DEBABA",
"L. c #E1BBBB",
"P. c #BEC3BC",
"I. c #BDC8B9",
"U. c #C0C0BE",
"Y. c #C2CEBE",
"T. c #C0D1BB",
"R. c #C3C4C2",
"E. c #C6CBC3",
"W. c #C8CAC7",
"Q. c #CCCDCB",
"!. c #D6C6C6",
"~. c #CDD2CC",
"^. c #D1D2CF",
"/. c #D3D5D3",
"(. c #D9D1D1",
"). c #D6D9D5",
"_. c #D8DAD7",
"`. c #D7D8D8",
"'. c #DDDDDC",
"]. c #E5C7C7",
"[. c #E0DFDF",
"{. c #DFE1DF",
"}. c #E0E0DF",
"|. c #DFE0E0",
" X c #E2E2E2",
".X c #F2E6E6",
/* pixels */
"$.$.- $.2.<.%.%.<.$.>.& O.O.&.2 & @.= = $.-.#.2 %.%.- 1 O #.*.%.$.&.%.- %.%.$.&.%.%.>.%.*.*.O.= < , ",
">.>.%.$.<.#.1 = $.%.#.*.$.= %.$.&.%.O.%.+.>.*.= = %.%.- %.*.$.@.1 #.%.1 #.,.#.& O.%.#., 1 O.O.#.O.O ",
"$.,., %.%.*.@.1 @.#.- %.>.%.%.$.$.$.1 >.,.-.- -.-.1 $.*.1 - %.$.1 @.- = #.%.#.= %.%.&.%.*.O.#.<.<.<.",
"1 2 2 1 #.%.#.,.#.1 $.& %.>.2 & 1 - >.*.%.& 1 a W W a $.= 2 +.*.%.- = ,.#.$.&.%.$.%.$.1 1 *.%.%.-.1.",
"$.$.- #.$.$.%.$.%.+.,.,.%.%.<.%.$.2 O.$.#.%.$.f E E f - *.%.< *.2 2 & %.&.$.= $.O.2 *.+.$.#.%.@.$.#.",
"#.$.$.#.#.1 >.$.$.%.$.*.<.$.1 %.O.+.& = 1 2 X . S S y a $.@.1 < *.*.& %.$.$.#.$.#.1 3.%.O.$.@.*.#.$.",
"$.$., 1 , #.%.>.%.*.1 #.O.O.&.%.= @.&.-.+.X   t 9 9 i 9 i 2.$., $.#.%.>.,.< *.@.<.= %.%.@.1 2 %.%.#.",
"#.1 %.*., %.#.- 2 1 #.O.$.$.2 >.*.%.:.;.0 0 + $.&.;.@.3 q e ;.2 1 O.& $.>.*.#.$.>.%.,.#.1 *.$.- - *.",
"2 = $.%.$.2 #.#.O.2 *.%.@.- & 2 #.< @ 7 t - &.+.&.@.>.*.- i r % :.+.$.%.$.$.1 2 #.#.#.>.*.1 & <.*.@.",
"*.<.1 - $.1 $.-.*.%.1 @.O.-.& 1 + X 7 @ - %.#.%.$.= #.+.<.- % 6 u =.$.-.+.%.%.: &.1 = *.$.- #.%.O.$.",
"- O.1 *.1.O.#.1.#.<.%.1 @.<.,.3 0 0 ; - - 2 $.,.+.$.2 = %.%.$.; e 0 $ = $.<.#.= #.& = ,.>.= $.$.*.1 ",
"%.*.<.%.*.%.#.#.$.$.%.1 $.@.% q # * %.#.#.$.$.= = 2 2 *.O.%.= %.+.w q % #.&.$.-.$.*.<.>.$.1 - %.#.:.",
"#.$., %.1 #.@.@.%.,.*.= >.p 6 % :.- - & &.1 $.,.#.$.$.%.$.= #.2 = ,.d   # - 1 %.$.%.*.@.1 *.2 *.+.$.",
"#.%.$.- 1 1 %.1 & *.#.; q 8 $ O.-.+.@.%.$.2 #.*.%.$.>.$.,.$.#.- - -.+.3 6 7 2 *.$.&.& ,.,.2 2 &.%.O.",
"%.#.@.*.1 #.%.$.#.$.4 q 0 5 & = = >.<.*.= &.1 O.<.*.>.%.$.&.#.#.:.$.$.%.=.0 0 @ 2 2 O.$.*.= = ,.%.%.",
"%.$.%.1.%.<.&.#.=.p e p O = = ,.,.@.*.*.*.<.= *.1 #.#.- $.<.$.#.+.:.:.#.#.= X 7 # $., = $.#.= %.,.#.",
"$.$.1 #.O.%.$.5 s r d =.$.<.:.=.2 $.2 $.<.-.@.- = -.=.2 -.*.2 -.2.$.=.*.$.$.-.> 0 0 5 &.%.&.$.$.$.%.",
"1 $.< *.-.4.0.e.p.t.r.r.y.y.y.r.y.r.y.r.y.y.r.r.r.r.y.r.r.r.r.r.y.y.t.r.y.r.r.y.e.q.e.0.5.2 %.>.%.<.",
"*.#.& :.9.~.}. X X X X X X X X X X X X X X X X X X X X X X X X X X X X X X X X X X X X{.~.8.*.&.%.%.",
"= - >.0.I.{.|. X X X X X X X X[. X X X X X X X}. X X X X X X X X X X X}. X X X X X X X X|.T.#.#.*.= ",
"&.- >.Y._. X X X X X X'.[.[.[.[.}.}.}.[.[.[.[.[.'.[.[.[. X[.[.'.[.[.[.[.[.'.[.[. X X X X|.).O #.%.#.",
"O.1 &.~._.|. X X X!.N.z.j.j.j.j.z.z.z.x.j.j.j.j.j.j.j.x.j.j.j.j.j.z.j.j.j.j.j.N.!. X X X X_.= - $.#.",
"*.%.1 ~._.|. X|.H.) L K K K K K K K K K K K K K K K K K K K K K K K K K K K K L ) H.|.|.|._.- - >.*.",
"%.*.& ~._.|.|.(.' Z A A A A A A A A A A A A A A A A A A A A A A A A A A A A A A B ' (. X[._.2 O.%.%.",
"O.= = ~.).{.|.H.L A A A A A A A A A A A A A A A A A A A A A A Z A A A A A A A A A J F.|.{.).<.<.@.$.",
"& o - ~.).{.{.C.C Z Z A Z Z Z Z Z Z Z A Z Z Z Z Z A Z Z Z A A Z Z Z Z Z A Z Z Z Z G C.{.'.).*.O %.O.",
"*.$.1 ~./.'.{.C.C Z Z Z Z Z Z Z Z Z Z Z Z Z Z Z Z Z Z Z Z Z Z Z Z Z Z M Z Z Z Z Z C B.{.'.).%.= $.%.",
",.%.*.W./.'.'.C.C Z B B B B B B Z M B B B B B Z Z M B B B B B B Z Z M M Z M M Z Z C B.'.'./.*.$.%.$.",
"&.#.%.Q./._.'.B.C M K | h.| K R / B M B R o.o./ B C | o.} C R o... .R } ..o.} K M C B.'.'./.O.*.&.$.",
"$.#.@.E./._._.B.V B h.S...D.o...k.C M I D.b.l.L.~ _ J. .Z./ k.]... .~ b.J.o.J.o.B C B.`._.^.1 2 +.+.",
"= >.,.E.^.`._.B.V T L.( m ~  .X.x.C m | L.G V A.k.[ ].] ( J b.L.Q Y G n.h.m ' D.J V N.`._./., = %.*.",
"@.$.- E.^.`.`.N.V ~ D.Y m m V  .x.V l h.Z.N m k.Z.V x.].L.~ l..XK.S.^ n.X.m Q J.R V N.`./.^.2 2 -.@.",
"@.&.= E.Q./.`.M.V I S.( N ( g.o.v.H v [ J.P F A.g.( ) U S.g.v.S.D F n n.g.n ] S.J n N././.Q.*.-.1 #.",
"1 1 %.R.Q./.`.M.n v X.Z.X.S.[ { J.k.g.( Z.b.x.D.U ) S.X.Z.) g.].g.X.! x.J.g.S. .v V M././.^.$.&.1 #.",
"#.1.#.P.Q.^./.M.n z V )  .( n H ' ] ] H P ] [ Y z v ( [ ( n U ] ] ] U Y ] ] ^ n k n M././.Q.#.$.%.= ",
"#.&.*.P.Q.^.^.M.b k k z j z k k z z z z k z j z z k z j z k k j k z z k z z k z k v M.^.~.Q.#.,.*.O.",
"<.$.*.P.W.~.^.m.n k k k k k k k k k k k k k k k k k k h k k k k k k k k k k k h h b c.^.Q.W.<.#.O.$.",
"#.1 #.d.W.Q.Q.c.b h h h k h h h h h h k h h h h k h k h h k h k h h k h h h k h h b c.Q.Q.Q.$.*.&.1.",
"#.&.$.I.R.Q.Q.c.b h h g h h h h h g h h h h g h h h h h h h h h h h h h h h h h h b c.Q.Q.R.- %.#.#.",
"#.&.%.I.R.Q.Q.V.D g h g g g g g h g g g g g g g g g g g g g g g g g g g g g g g h D B.W.Q.Y.$.O.= %.",
">.%.& d.G.W.W.G.' j g g g . h g . h g g g g g g . g g g g g . g g g h . g g . g j ' G.W.W.R.& :.O.#.",
"%.%.= s.f.W.W.W.V.` D x x x j z x x j j x x x x z x x x c z z x c j z x x z l D ` V.W.R.R.U.1 #.$.$.",
"&.O.O.s.f.R.R.R.R.G.M.w.w.w.w.w.w.w.w.w.w.w.w.w.z.z.w.w.w.w.w.w.w.w.w.w.w.w.w.M.G.R.R.R.R.f.:.1 %.,.",
"%.@.&.a.f.U.R.R.R.R.U.R.R.R.R.R.R.R.R.R.R.R.R.R.R.R.R.R.R.R.R.R.R.R.R.R.R.R.R.R.R.R.R.R.U.d.2 2 -.$.",
"#.$.$.7.u.f.f.U.U.U.U.U.U.U.U.U.U.U.U.U.U.U.U.P.U.U.U.U.U.U.U.U.U.U.U.U.U.U.U.U.U.U.U.f.d.i.< , *.@.",
"1 @.<.:.6.u.s.f.f.f.f.f.f.f.f.f.f.d.f.f.f.f.f.f.f.f.f.f.f.d.f.f.f.f.f.f.f.f.f.f.f.f.f.s.i.4.$.*.*.<.",
"&.1 #.#.2.&.&.2 %.%.$.2 1 2 1 1 , : 1 $.$.&.$.%.&.1 : 2 , 1 $.*.>.2 , , >.%.O.%.*.#.1 $.>.< %.O.= @.",
"1.#.1 1 *.2 , $.= $.#.= $.*.<.,.<.1 1 1 #.$.%.1 @.<.: , %.*.<.%.&.*.2 *.#.$.$.< #.$.%.#.>.2 = = *.%.",
"&.$.@.,.*., #.@.&.>.#.%.& = %.&.$.#.$.1 &.<.@.$.%.%.1 1 *.O.>.#.%.*.%.$.$.$.&.%.1 %.$.#.%.%.%.#.*.- ",
"O & = = @.#.>.%.1.,.*.= %.@.$.%.$.= #.%.&.&.= $.&.@.&.1 $.@.>.&.*.<.%.$.*.$.@.%.$.1 %.,.$.%.%.$., %."
};
