/* XPM */
static char *_e35a57ee5db4408af03d68d8174dd12cR9k0VGwryVgn2wU[] = {
/* columns rows colors chars-per-pixel */
"50 50 125 2 ",
"   c #1B1617",
".  c #1F1B1C",
"X  c #211D1E",
"o  c #231F20",
"O  c #262223",
"+  c #292526",
"@  c #2D292A",
"#  c #312D2E",
"$  c #332F30",
"%  c #363233",
"&  c #393636",
"*  c #3B3738",
"=  c #3D3A3B",
"-  c #413D3E",
";  c #464243",
":  c #494546",
">  c #4A4748",
",  c #4E4B4C",
"<  c #514E4E",
"1  c #534F50",
"2  c #565253",
"3  c #595656",
"4  c #5B5758",
"5  c #5D5A5A",
"6  c #605C5D",
"7  c #625F60",
"8  c #656263",
"9  c #696667",
"0  c #6E6B6B",
"q  c #716E6F",
"w  c #726F70",
"e  c #777575",
"r  c #797677",
"t  c #7A7778",
"y  c #7C7A7B",
"u  c #807D7E",
"i  c #817F80",
"p  c #858384",
"a  c #888687",
"s  c #8C898A",
"d  c #908E8E",
"f  c #928F90",
"g  c #959393",
"h  c #989595",
"j  c #9C9A9B",
"k  c #A19F9F",
"l  c #A19FA0",
"z  c #A4A3A3",
"x  c #A9A7A7",
"c  c #ABAAAA",
"v  c #B0AFAF",
"b  c #B4B3B3",
"n  c #B8B7B7",
"m  c #BCBBBC",
"M  c #C0BFBF",
"N  c #C4C3C4",
"B  c #CAC9C9",
"V  c #C9C8C9",
"C  c #CCCBCB",
"Z  c gray80",
"A  c #CDCCCD",
"S  c #CECDCD",
"D  c #CFCECE",
"F  c #C9C8C8",
"G  c LightGray",
"H  c #D7D6D6",
"J  c #D8D8D8",
"K  c #D9D8D8",
"L  c gray85",
"P  c #DAD9D9",
"I  c #DADADA",
"U  c #DBDADA",
"Y  c gray86",
"T  c gainsboro",
"R  c #E0DFDF",
"E  c #E1E0E0",
"W  c #E1E1E1",
"Q  c #E2E2E2",
"!  c #E3E2E2",
"~  c #E4E3E3",
"^  c #E4E4E4",
"/  c #E5E4E4",
"(  c #E6E5E5",
")  c #E6E6E6",
"_  c #E7E7E7",
"`  c #E7E7E7",
"'  c #E8E7E7",
"]  c #E8E7E8",
"[  c gray91",
"{  c #E9E9E9",
"}  c #EAE9EA",
"|  c #EAEAEA",
" . c #EBEAEA",
".. c gray92",
"X. c #EDECEC",
"o. c gray93",
"O. c #EEEDED",
"+. c #EEEEEE",
"@. c #EFEFEF",
"#. c #F0EFEF",
"$. c gray94",
"%. c #F1F0F0",
"&. c #F1F1F1",
"*. c gray95",
"=. c #F3F2F2",
"-. c #F2F3F3",
";. c #F3F3F3",
":. c #F4F4F4",
">. c gray96",
",. c #F6F6F6",
"<. c gray97",
"1. c gray96",
"2. c #F8F7F7",
"3. c #F8F8F8",
"4. c #F9F8F8",
"5. c #F9F9F9",
"6. c gray98",
"7. c #FBFAFA",
"8. c #FBFAFB",
"9. c #FBFBFB",
"0. c gray99",
"q. c #FDFDFD",
"w. c #FEFEFE",
"e. c white",
"r. c #FFFFFF",
/* pixels */
"e.e.e.e.e.e.e.e.e.e.e.e.e.e.e.e.e.e.e.e.e.e.e.e.e.e.e.e.e.e.e.e.e.e.e.e.e.e.e.e.e.e.e.e.e.e.e.e.e.e.",
"e.e.e.e.e.e.e.e.e.e.e.e.e.e.e.e.e.e.e.e.e.e.e.e.e.e.e.e.e.e.e.e.e.e.e.e.e.e.e.e.e.e.e.e.e.e.e.e.e.e.",
"e.e.e.e.e.e.e.e.e.e.e.e.e.e.e.e.e.e.e.e.e.e.e.e.e.e.e.e.e.e.e.e.e.e.e.e.e.e.e.e.e.e.e.e.e.e.e.e.e.e.",
"e.e.e.e.e.e.e.e.e.e.e.e.e.e.e.e.e.e.e.e.e.e.e.e.e.e.e.e.e.e.e.e.e.e.e.e.e.e.e.e.e.e.e.e.e.e.e.e.e.e.",
"e.e.e.e.e.e.e.e.e.e.e.e.e.e.e.e.e.e.e.e.e.e.e.e.e.e.e.e.e.e.e.e.e.e.e.e.e.e.e.e.e.e.e.e.e.e.e.e.e.e.",
"e.e.e.e.e.e.e.e.e.e.e.e.e.e.e.e.e.e.e.e.e.e.e.e.e.e.e.e.e.e.e.e.e.e.e.e.e.e.e.e.e.e.e.e.e.e.e.e.e.e.",
"e.e.e.e.e.e.e.e.e.e.e.e.e.e.e.e.e.e.e.e.e.e.e.&.z y z &.e.e.e.e.e.e.e.e.e.e.e.e.e.e.e.e.e.e.e.e.e.e.",
"e.e.e.e.e.e.e.e.e.e.e.e.e.e.e.e.e.e.e.e.e.e.6.i o . X y 6.e.e.e.e.e.e.e.e.e.e.e.e.e.e.e.e.e.e.e.e.e.",
"e.e.e.e.e.e.e.e.e.e.e.e.e.e.e.e.e.e.e.e.e.e.T % X o X % J e.e.e.e.e.e.e.e.e.e.e.e.e.e.e.e.e.e.e.e.e.",
"e.e.e.e.e.e.e.e.e.e.e.e.e.e.e.e.e.e.e.e.e.e.K $ X o X $ H e.e.e.e.e.e.e.e.e.e.e.e.e.e.e.e.e.e.e.e.e.",
"e.e.e.e.e.e.e.e.e.e.e.e.e.e.e.e.e.e.e.e.e.e.6.0 . .   0 2.e.e.e.e.e.e.e.e.e.e.e.e.e.e.e.e.e.e.e.e.e.",
"e.e.e.e.e.e.e.e.e.e.e.e.e.e.e.e.e.e.e.e.e.e.~ 5 5 e 4 7  .e.e.e.e.e.e.e.e.e.e.e.e.e.e.e.e.e.e.e.e.e.",
"e.e.e.e.e.e.e.e.e.e.e.e.e.e.e.e.e.e.e.e.e.] 8 e @.e.@.0 0 @.e.e.e.e.e.e.e.e.e.e.e.e.e.e.e.e.e.e.e.e.",
"e.e.e.e.e.e.e.e.e.e.e.e.e.e.e.e.e.e.e.e. .9 w &.e.e.e. .9 t :.e.e.e.e.e.e.e.e.e.e.e.e.e.e.e.e.e.e.e.",
"e.e.e.e.e.e.e.e.e.e.e.e.e.e.e.e.e.e.e.@.0 q X.e.e.e.e.e.^ 6 p ,.e.e.e.e.e.e.e.e.e.e.e.e.e.e.e.e.e.e.",
"e.e.e.e.e.e.e.e.e.e.e.e.e.e.e.e.e.e.&.w 0 @.e.e.e.e.e.e.e.E 5 s 6.e.e.e.e.e.e.e.e.e.e.e.e.e.e.e.e.e.",
"e.e.e.e.e.e.e.e.e.e.e.e.e.e.e.e.e.&.r 0  .e.e.e.e.e.e.e.e.e.J 3 g e.e.e.e.e.e.e.e.e.e.e.e.e.e.e.e.e.",
"e.e.e.e.e.e.e.e.e.e.e.e.e.e.e.e.;.y 9  .e.e.e.e.e.e.e.e.e.e.e.G 2 z e.e.e.e.e.e.e.e.e.e.e.e.e.e.e.e.",
"e.e.e.e.e.e.e.e.e.e.e.e.e.e.e.,.p 8  .e.e.e.e.e.e.e.e.e.e.e.e.e.V 2 v e.e.e.e.e.e.e.e.e.e.e.e.e.e.e.",
"e.e.e.e.e.e.e.e.e.e.e.e.e.e.4.a 9 ^ e.e.e.e.e.e.e.e.e.e.e.e.e.e.e.N 2 n e.e.e.e.e.e.e.e.e.e.e.e.e.e.",
"e.e.e.e.e.e.e.e.e.e.e.e.e.6.s 8 ~ e.e.e.e.e.e.e.e.e.e.e.e.e.e.e.e.e.m 2 N e.e.e.e.e.e.e.e.e.e.e.e.e.",
"e.e.e.e.e.e.e.e.e.e.e.e.6.g 9 ^ e.e.e.e.e.e.e.e.e.e.e.e.e.e.e.e.e.e.e.n 3 A e.e.e.e.e.e.e.e.e.e.e.e.",
"e.e.e.6.V j d d d d d f r $ e f d d d s d s g s d d d d d d d d d d g s , ; s g s d d d h V 6.e.e.e.",
"e.e.@.t @ X X . X X . X . o . X X . X X X X . X X X . X X . X X X . . . O X . . X X X X X @ y @.e.e.",
"e.6.u X X o o o o o o o o o o o o o o o o o o o X O o o o o o o o o o o o o o o X O X O O X X u 6.e.",
"e.A # X O o o o o o o o o o o o o o o o o o o o O X o o o o o o o o o o o o o o O X O X X O X # A e.",
"e.l X o o o o o o o o o o o o o o o o o o o o o X o o o o o o o O o O X o O X O X O X O O X X X l e.",
"e.g X o o o o o X X X . o o o X X X o o o o o . X X X o o o X X . . X O X X X X X X X O X O X X h e.",
"e.h X o o o o X @ , 3 < % O + = ; @ X O O X % , 3 3 = O X O ; 3 3 , # X @ ; ; ; ; ; % O o o o X h e.",
"e.h X o o o X - N &.6.,.J 5 % A { 2 . X X 1 Z :.3.3. .a O t  .3.6.,.N * 2 { $.;.;.,.h . o o o X h e.",
"e.h . X O X X s e.@.b T e.b * J 6.3 . O O j e.E c N e.E ; N e.m s I <.7 3 9.@.v c c 0 o O X X X h e.",
"e.h X O X O X x e.x X 5 m g = J 3.4 . o + m e.a . ;  .,.5 V e.j < 9 8 # 5 9.I > ; ; # o X O X X h e.",
"e.h X X o o o x e.j . o O X % J 3.4 . o + m e.y . * R ,.3 g e.e.,...N ; 4 6.9.@.X.@.y X X o o X h e.",
"e.h X X o o o c e.j . = t 0 = J 3.2 . . O M e.t   & E ,.2 % e a j E e.s 5 6.^ s p p < X o o X X h e.",
"e.h X X o o X k e.N 2 l e.V - J 6.a 5 5 : b e.b 1 e :.$.2 x N 7 & v e.j 4 6.J 2 , < = X o o o X h e.",
"e.h X X o o X 9 ,.e.6.e.e.g % T e.w.e.e.z t e.e.,.w.e.N % m e.:.] 6.e.w 3 e.e.,.;.2.z X o o X X h e.",
"e.h X X O X O O q c m b p $ @ g x x x x q @ y c m b j ; . > j m m n p @ ; z x x x v e o o o o X h e.",
"e.h X X X O X O X O O O X X O X o o O o o O . O + + o . O X X O + O X X o o o o X X X o o o X X h e.",
"e.h X O O X O X o o o o X O X O o o o o o o o o o o o o o o o o o o o o o o o o o o o o o o X X h e.",
"e.j X X X O X O o o o X O X O X o o o o o o o o o o o o o o o o o o o o o o o o o o o o o o o X j e.",
"e.F @ O O X O . o o O X O o o o . O o o o o o o O . O X O X O X o o o o o o o o o o o o o o o @ F e.",
"e.<.e . . O X O o o X O X o o o O O o o o o o O o O X O X O X O o o o o o o o X o o o X o X X e <.e.",
"e.e.) 0 + . . . . . . . . . . . . . . . . . . . . . . . . . . . . . . . X . . X X X . X X + 0 ' e.e.",
"e.e.e.:.m a e e e e r r e r r r e e e e e e e r e r r r e e e e r r r r e e e e r r e e p m :.e.e.e.",
"e.e.e.e.e.e.e.e.e.e.e.e.e.e.e.e.e.e.e.e.e.e.e.e.w.e.e.e.e.e.e.e.e.e.e.e.e.e.e.e.e.e.e.e.e.e.e.e.e.e.",
"e.e.e.e.e.e.e.e.e.e.e.e.e.e.e.e.e.e.e.e.e.e.e.e.e.e.e.e.e.e.e.e.e.e.e.e.e.e.e.e.e.e.e.e.e.e.e.e.e.e.",
"e.e.e.e.e.e.e.e.e.e.e.e.e.e.e.e.e.e.e.e.e.e.e.e.e.e.e.e.e.e.e.e.e.e.e.e.e.e.e.e.e.e.e.e.e.e.e.e.e.e.",
"e.e.e.e.e.e.e.e.e.e.e.e.e.e.e.e.e.e.e.e.e.e.e.e.e.e.e.e.e.e.e.e.e.e.e.e.e.e.e.e.e.e.e.e.e.e.e.e.e.e.",
"e.e.e.e.e.e.e.e.e.e.e.e.e.e.e.e.e.e.e.e.e.e.e.e.e.e.e.e.e.e.e.e.e.e.e.e.e.e.e.e.e.e.e.e.e.e.e.e.e.e.",
"e.e.e.e.e.e.e.e.e.e.e.e.e.e.e.e.e.e.e.e.e.e.e.e.e.e.e.e.e.e.e.e.e.e.e.e.e.e.e.e.e.e.e.e.e.e.e.e.e.e."
};
