/* XPM */
static char *_514d20678bc4dbfc014b83a32b71f65CyytzDmX7FwcdpbA[] = {
/* columns rows colors chars-per-pixel */
"50 50 174 2 ",
"   c None",
".  c #BC7E00",
"X  c #C17E00",
"o  c #BD8102",
"O  c #BD840B",
"+  c #C38401",
"@  c #CA8701",
"#  c #C58900",
"$  c #CC8C00",
"%  c #C2840B",
"&  c #C48B0D",
"*  c #CA8C0A",
"=  c #D28E00",
"-  c #CE9100",
";  c #D49300",
":  c #DB9500",
">  c #D69A00",
",  c #DC9B00",
"<  c #D4940B",
"1  c #D79A0C",
"2  c #DC9B0A",
"3  c #C38A15",
"4  c #C0871A",
"5  c #C1881D",
"6  c #CA9113",
"7  c #CF9B16",
"8  c #C99419",
"9  c #D39613",
"0  c #D69C15",
"q  c #DF9F13",
"w  c #D49B1E",
"e  c #DB9C19",
"r  c #E19700",
"t  c #E39D00",
"y  c #E99F00",
"u  c #E19D0A",
"i  c #DFA101",
"p  c #DDA108",
"a  c #DEA214",
"s  c #DDA01A",
"d  c #DFAA1E",
"f  c #E5A201",
"g  c #EBA400",
"h  c #EDAA00",
"j  c #E4A30B",
"k  c #EAA50B",
"l  c #F1A600",
"z  c #F1AE00",
"x  c #F3AE00",
"c  c #F3AD00",
"v  c #F4AC00",
"b  c #F4AD00",
"n  c #F5AD00",
"m  c #F6AD00",
"M  c #F5AE00",
"N  c #F6AF00",
"B  c #F3AC00",
"V  c #F9AF00",
"C  c #F8AF00",
"Z  c #F7B000",
"A  c #F6B001",
"S  c #F8B100",
"D  c #FAB100",
"F  c #F9B300",
"G  c #FAB300",
"H  c #FBB300",
"J  c #FBB200",
"K  c #FCB300",
"L  c #F9B400",
"P  c #FBB400",
"I  c #FDB400",
"U  c #FCB500",
"Y  c #FEB400",
"T  c #FFB400",
"R  c #FEB500",
"E  c #FEB600",
"W  c #FFB600",
"Q  c #FFB700",
"!  c #FDB400",
"~  c #F9B20B",
"^  c #E1A411",
"/  c #E1A51D",
"(  c #E5A519",
")  c #E4AA1C",
"_  c #F4AE15",
"`  c #C08B20",
"'  c #C79424",
"]  c #C89227",
"[  c #CE9325",
"{  c #C79825",
"}  c #C79528",
"|  c #CA972E",
" . c #D39725",
".. c #D19C27",
"X. c #D89E2D",
"o. c #C39331",
"O. c #CB9B37",
"+. c #C39838",
"@. c #C69938",
"#. c #CC9D3B",
"$. c #D49F37",
"%. c #D39E3F",
"&. c #E19E20",
"*. c #D6A125",
"=. c #DDA423",
"-. c #DDA325",
";. c #DBA122",
":. c #D2A12C",
">. c #DDA328",
",. c #D5A231",
"<. c #DCAC33",
"1. c #D3A53E",
"2. c #DEAB3A",
"3. c #E7A324",
"4. c #E8A425",
"5. c #E5AC23",
"6. c #E3A52F",
"7. c #E3AB2D",
"8. c #EDAE29",
"9. c #EAB027",
"0. c #E9B52F",
"q. c #E1A734",
"w. c #E2A930",
"e. c #E0A931",
"r. c #E1AD35",
"t. c #E0AE36",
"y. c #E2AC35",
"u. c #E1AC38",
"i. c #E2AD3C",
"p. c #E2AC3C",
"a. c #E2B632",
"s. c #E7B635",
"d. c #E7B034",
"f. c #E9B132",
"g. c #E9B33B",
"h. c #E9BF38",
"j. c #F3B53A",
"k. c #F3BA3A",
"l. c #CA9C44",
"z. c #CCAB4F",
"x. c #D4A347",
"c. c #D8A445",
"v. c #DEAA40",
"b. c #D3A74E",
"n. c #DBA64A",
"m. c #D7AE49",
"M. c #D9AF4B",
"N. c #DEB444",
"B. c #DFB84F",
"V. c #CAAC54",
"C. c #D3AF53",
"Z. c #D0AD53",
"A. c #D1AB57",
"S. c #D1AF54",
"D. c #D0A955",
"F. c #DBAF55",
"G. c #D1AC59",
"H. c #D4B153",
"J. c #DFB758",
"K. c #E3AF44",
"L. c #E1AD4B",
"P. c #E5B445",
"I. c #ECBC42",
"U. c #E3B34C",
"Y. c #E9B249",
"T. c #E9B848",
"R. c #F2B345",
"E. c #E3B352",
"W. c #E9B653",
"Q. c #E4B851",
"!. c #E9BB53",
"~. c #EBBA52",
"^. c #EBBC54",
"/. c #F0BA53",
/* pixels */
"                                    Q.t.e.p.p.p.p.e.Q.                                              ",
"                              t.=.^ j j g h B h g f j q / s.                                        ",
"                          h.a , g N D I P N m K K K K V h u a f.                                    ",
"                        a.p , c I I I I h t r t h B V K K N , , f.                                  ",
"                        ^ ; h Q I Q I Q I f t t f t t N K Q h , k                                   ",
"                        j > h Q I Q I I D B f t f g h P I I h , j !.                                ",
"                      2.- f t h I I D h h l B c c L I I K c t f 1 Z.                                ",
"                      4.# # > f h c V P D K K I I D V B h f t = 3                                   ",
"                      -.; . $ , t t f g l l l h h h g t , ; # . ]                                   ",
"                      } ; : ; - - ; : f t l l l t f ; : @ $ # o 9                                   ",
"                      +.o $ r , , ; : f f B N c : t : : ; = + + u ~.                                ",
"                        O + ; ; : , t t t t t t t t : = = @ + ; 1 S.                                ",
"                        % + $ - ; - f f c c m , ; t : @ @ ; , ; & A.                                ",
"                        * . $ ; > : f i h h B , , t t , , , $ . & C.                                ",
"                      6.@ @ $ ; - > : f f h f h t g : , = @ = = * V.                                ",
"                      3.@ + ; : ; ; : f f D A N : t ; > : : ; + 5                                   ",
"                      *., @ # ; , > t f > f h f > i , , ; = # . o.                                  ",
"                      ' $ , : = $ - ; g t c D N , f ; ; $ $ # . |                                   ",
"                       .. # , t , > ; t t h h h , i : ; ; $ + + X.                                  ",
"                      { @ = ; = ; , f f t t t , , t t = $ = $ @ 0                                   ",
"                      o.% ; t ; ; = f f A A A , > t : ; : , ; + 2 /.                                ",
"                      b.O # , ; , > t , g f f f : t t t : @ . ; 2 H.                                ",
"                      1.+ # $ $ ; ; f f h h h t , f , @ # $ ; , &                                   ",
"                      i.$ o $ ; : ; t , c A A > ; , : : , , $ + `                                   ",
"                      1.: - # - - > , t t h h g t f : , ; = @ X 8                                   ",
"                      l.% ; , > - ; ; f f V V m : g : ; = = = + < ^.                                ",
"                        % X ; > , , : t , f t g : t : r : ; + @ 1 M.                                ",
"        P.K.2.=.q.K.K.:.* @ ; $ ; ; , f g f g t , t = : = ; - > $ X.                                ",
"K.>.q j f g g h h g j u : , f , : ; t t B N m t ; t ; , : , : + @ e                                 ",
", f l K K D b b K K K K N g , i f , r t t t r t , t : i ; ; # # ,  .                                ",
"m K Q I I B u , t h N K K K c , , , = f f B l l : f : ; $ $ , > # |                                 ",
"I I Q I I K t t t t t t l K Q h , , t t t l B B : , > , , , ; + O z.                                ",
"I I I I K D B f t t g h D I Q h , , ; t t g h l t , t , ; @ @ @ % G.                                ",
"N I I V l h B h c c D I I I V t t : # t > c D D g ; t ; ; ; ; + % F.                                ",
"f B A D D P K K I Q P D m h g t = + = r , f f g , : , , : ; # @ * H.                                ",
", , t g g h B m c h h g t t : @ . X = g f c N B , f ; ; $ $ : $ &                                   ",
"= # ; , f f m m N , t , : @ # @ . @ : f , B l h , , : : : , = @ 6 <.) ) ) 8.R.                      ",
": : ; ; , i N V N ; , , : ; $ @ + > : t f g t g t t : : : ; : : f f j g t : u 8.                    ",
"; : , t i , f g t t , , ; @ # @ : ; * g j V A N : f : : , g N D I K K K D g : , t.Q.U.              ",
"$ ; : f , B V m , : , : ; = ; : ; @ | N.P.k.9.I.<., t h A D D N N m m K I V , t ; j j j a s 7.I.    ",
"; > > f t h h h : : t : t t , $ . %           U.a g A D h t t f y r l K K B t : @ B I D N B f u ( j.",
"- $ ; , y t y t y t t , ; $ $ @ - *         y.u h I I N y r t f t l K I V g , @ + t h A I I K B t u ",
"> ; ; > t f D N V : t : : ; : , # +       d.2 l K I I I A h f t g D I K l f , + = r t t t B K I B : ",
"> ; , t f t h f h , t t t ; $ @ # *     T.2 f I Q I I K N h h V I I V g f ; $ ; f y t g h A I I l : ",
"$ # ; : f g N h c , t : ; = = ; ; 3     5., g I I Q P h h m K K D B g r , = ; g h B h A K I I D t t ",
": , , , t i B B c ; > , : : t = o o.    ) , t c I Q I P K D N l h f t r ; g D D K I I I K V c g t : ",
"= # ; t f f f h g > t , , @ $ 6 O.      2.p , t h h h c h g h m A l = , t h N l B B c h g f t , ; o ",
"#.' 7 1 j j A P A ; j 2 0  .x.            8 ; : t t t f , f h ~ _ 2 $ ; : y f g y g t f , > $ - 8 @.",
"        L.v.w.7.7.1.M.                    l.4 % < = < 1 9 / <.Y.  x.,.w 9 k j N N ~ 2 1 0 e ..1.    ",
"                                              D.c.$.n.E.                  E.W.g.d.g.L.E.            "
};
