/* XPM */
static char *beb3f48511574b33a400d084948fac2awZhNp5cuZaiLtRC3[] = {
/* columns rows colors chars-per-pixel */
"23 50 218 2 ",
"   c gray94",
".  c #FBFBFB",
"X  c gray99",
"o  c gray95",
"O  c white",
"+  c gray97",
"@  c #F6F6F6",
"#  c #F3F3F3",
"$  c gray98",
"%  c gray92",
"&  c #B7B7B8",
"*  c #8E8F90",
"=  c #D2D2D2",
"-  c #F4F4F4",
";  c #F9F9F9",
":  c #FEFEFE",
">  c #FDFDFD",
",  c gray82",
"<  c #C7C7C8",
"1  c #C7C8C8",
"2  c #C8C8C8",
"3  c #C8C8C9",
"4  c gray79",
"5  c #BEBEBF",
"6  c #8D8D8E",
"7  c #575759",
"8  c #323335",
"9  c #2C2D2F",
"0  c #CACACB",
"q  c #DEDFDF",
"w  c #515253",
"e  c #2A2B2D",
"r  c #292A2C",
"t  c #28292B",
"y  c #2A2B2C",
"u  c #2C2D2E",
"i  c #222325",
"p  c #232426",
"a  c #262729",
"s  c #2D2E30",
"d  c #313234",
"f  c #27282A",
"g  c #272829",
"h  c #28292A",
"j  c #8B8C8D",
"k  c #4A4B4C",
"l  c #2D2F31",
"z  c #1E1F21",
"x  c #202123",
"c  c #212224",
"v  c #242527",
"b  c #3E3F40",
"n  c #3E3E40",
"m  c #3F3F41",
"M  c #303032",
"N  c #828384",
"B  c #4D4E4F",
"V  c #222224",
"C  c #A0A1A2",
"Z  c gray91",
"A  c gainsboro",
"S  c gray90",
"D  c #E1E1E2",
"F  c gray87",
"G  c #757677",
"H  c #868788",
"J  c #4B4C4E",
"K  c #303234",
"L  c #222324",
"P  c #1C1C1E",
"I  c #1A1A1C",
"U  c #1A1B1D",
"Y  c #252527",
"T  c #A8A8A9",
"R  c #F8F8F8",
"E  c #7D7E7F",
"W  c #282A2C",
"Q  c #848586",
"!  c #4B4C4D",
"~  c #1D1E20",
"^  c #18191B",
"/  c #191A1C",
"(  c #1B1C1E",
")  c #1F2022",
"_  c #A6A6A7",
"`  c #7C7D7E",
"'  c #28292C",
"]  c #838485",
"[  c #313335",
"{  c #252628",
"}  c #1B1B1D",
"|  c #1B1C1F",
" . c #1C1D20",
".. c #1D1E21",
"X. c #ACADAE",
"o. c #FDFCFC",
"O. c #878788",
"+. c #4A4B4D",
"@. c #36373A",
"#. c #414143",
"$. c #202223",
"%. c #1D1D20",
"&. c #A5A5A6",
"*. c #343638",
"=. c #393A3B",
"-. c #1C1D1F",
";. c #1C1E20",
":. c #A8A9AA",
">. c gray96",
",. c #7D7D7F",
"<. c #858586",
"1. c #4C4D4F",
"2. c #303133",
"3. c #ABABAC",
"4. c #27292B",
"5. c #868687",
"6. c #2F3133",
"7. c #A4A4A5",
"8. c #F1F1F1",
"9. c #838384",
"0. c #ABACAD",
"q. c #27282B",
"w. c #868688",
"e. c #7D7D7E",
"r. c #2F3033",
"t. c #A5A6A6",
"y. c #2F3032",
"u. c #FDFDFC",
"i. c #1E2022",
"p. c #1F2122",
"a. c #A5A6A7",
"s. c #26282A",
"d. c #2E3032",
"f. c #1E1F22",
"g. c #A7A8A9",
"h. c #4C4D4E",
"j. c #2E2F32",
"k. c #4A4A4C",
"l. c #A4A5A6",
"z. c #7C7C7E",
"x. c #2E2F31",
"c. c #AAABAC",
"v. c #A9AAAB",
"b. c #858687",
"n. c #252627",
"m. c #252729",
"M. c #1D1E1F",
"N. c #1E2021",
"B. c #ACACAD",
"V. c #252629",
"C. c #3A3B3D",
"Z. c #464748",
"A. c #404143",
"S. c #848485",
"D. c #2D2E31",
"F. c #292A2B",
"G. c #2B2C2E",
"H. c #A6A7A8",
"J. c #1B1B1E",
"K. c #2B2D2F",
"L. c #494A4C",
"P. c #1D1D1F",
"I. c #7B7C7D",
"U. c #2C2E30",
"Y. c #242528",
"T. c #1D1F21",
"R. c #1A1B1E",
"E. c #1A1C1D",
"W. c #7C7C7D",
"Q. c #232527",
"!. c #1A1C1E",
"~. c #2B2C2F",
"^. c #1B1D1F",
"/. c #FBFBFA",
"(. c #49494B",
"). c #1B1D1E",
"_. c #222426",
"`. c #1B1C1D",
"'. c #3A3B3C",
"]. c #1E1E21",
"[. c #2A2C2E",
"{. c #48494B",
"}. c #1C1C1F",
"|. c #474749",
" X c #212324",
".X c #797A7B",
"XX c #828283",
"oX c #68696A",
"OX c #4F5052",
"+X c #37383A",
"@X c #1C1E1F",
"#X c #262829",
"$X c #979899",
"%X c #4D4E50",
"&X c #98999A",
"*X c #E2E2E2",
"=X c #DDDDDD",
"-X c #BFC0C1",
";X c #272729",
":X c #9FA0A1",
">X c #F5F5F4",
",X c #EAEAEA",
"<X c #E7E7E7",
"1X c #EEEEEE",
"2X c gray93",
"3X c #DCDCDD",
"4X c #C6C7C8",
"5X c #6D6E70",
"6X c #424345",
"7X c #9D9E9F",
"8X c #CECECF",
"9X c #48484A",
"0X c #333436",
"qX c #EFEFEF",
"wX c #F1F0F1",
"eX c #D2D2D3",
"rX c #B5B6B7",
"tX c #DBDBDC",
/* pixels */
"  . X o O + @ O # $ % & * = @ O - ; : o > ;   ",
", < 1 2 1 2 3 4 5 6 7 8 9 * 0 1 2 2 1 3 1 1 q ",
"w e r e r t y u e i p a s d f g h f f t t e j ",
"k l z x i c c c i v a a s b b n b b b m M e N ",
"B d c c V i i i i p p a 9 C Z A S D F Z G r H ",
"J K c L i V x z P I U Y 9 T ; R @ + R @ E W Q ",
"! K c c ~ U ^ ^ / ( ) Y 9 _ + ; # @ R # ` ' ] ",
"B [ { c } U |  .~ ..x Y 9 X.o.  $ @ o X E ' O.",
"+.@.#.$.%.~ ~ ~ ~ ..x Y 9 &.@ $ o @ ; o ` t ] ",
"J *.=.x -.;.~ ~ ~ ..x v 9 :.; >.@ @ >.+ ,.t <.",
"1.2.x x -. .~ ~ ~ ..x v 9 3.. o R @ # $ E 4.5.",
"+.6.) x -.%.%.%.%...x Y 9 7.>.. o @ $ 8.` 4.9.",
"1.6.) x -. .~ ~ ~ ..x v 9 0.. o R @ # $ E q.w.",
"J 6.) x -.;.~ ~ ~ ..x Y 9 :.; >.@ @ >.+ e.q.<.",
"+.r.) x -. .~ ~ ~ z x Y 9 t.@ $ # @ ; o ` f ] ",
"1.y.z )  . .~ ~ ..) $.v 9 X.u.  $ @ o X E f O.",
"+.y.z )  . .~ z i.p.x v 9 a.@ ; # @ R # ` s.] ",
"! d.z f. .~ z ) ) ) x v 9 g.R @ >.@ @ @ ` s.Q ",
"h.j.z f.~ z ) ) ) x c v 9 0.X 8.; @ o . ,.a H ",
"k.j.z f.~ ) ) ) x i V v 9 l.>.. o @ $ 8.z.a 9.",
"J x.z f.~ ) ) c i i V v 9 c.. # R @ - ; ` a 5.",
"J x.~ z ~ ) c c c c x v 9 v.$ - + @ - R ` a b.",
"k x.~ z ( } ( U U U -.n.9 l.>.. o @ ; 8.z.m.9.",
"1.l ~ -.-.M.N.p.x i { r x.B.X   ; @ o X e.V.H ",
"+.l ~ ( ~ ) c i i a C.Z.A.a.+ R - @ + - ` V.S.",
"+.D.~ ( %.z x V i v F.G.y.H.+ R - @ + - ` { S.",
"h.s M.-.J.I U } ( -.z { K.X.X   ; @ o X ` { H ",
"L.s P.~ -.( ( ( J.( ~ v 9 l.>.. o @ ; 8.I.{ 9.",
"! U.~ ~ -.-.~ ~ ~ ..x v 9 v.$ - + @ - R ` Y.b.",
"J U.~ ~ -.( ~ ~ ~ ..x v 9 c.. # R @ - ; ` v b.",
"L.U.~ ~ -.( ;.~ ~ T.x v 9 7.>.. o @ $ 8.I.v N ",
"J 9 ~ ~ -.R.-.~ ~ ..x v 9 0.X 8.; @ o . ` v H ",
"+.9 M.~ -.E.( %.%...x v 9 g.R @ >.@ @ @ W.v Q ",
"L.9 M.~ -.U (  .%...x v 9 a.@ ; # @ R # I.v ] ",
"J K.~ ~ P U J.-.~ ..x v K.X.u.  $ @ o X ` Q.H ",
"L.K.~ ~ ( !.( -.~ ..x v 9 &.@ $ # @ ; o I.p 9.",
"+.~.~ ~ ^.!.( -.~ ..x v 9 :.; >.@ @ >.+ W.p Q ",
"J G.~ ~ ^.!.( -.~ ..x v 9 3.. o R @ # /.` p 5.",
"(.G.-.~ | R.( -.~ ..x v 9 7.>.. o @ $ 8.I.p N ",
"! ~.x ~ ).E.E.-.%...x v 9 3.. o R @ # $ z._.5.",
"k K n z ( U `.-.%...x v K.:.; >.@ @ >.+ I.i <.",
"(.6.'.].( U U -.~ ..x v K.l.@ $ o @ ; o I.i 9.",
"+.[.z -.U ^ ^ U ( ~ x v G.B.u.  $ @ o X ` i 5.",
"{.e -.(  .~ -.`./ / }.v G.a.+ ; # @ R # I.i N ",
"|.4.( ( ~ N.c  Xc x ) { G.H.R + >.@ + >..X) XX",
"oXOX+Xc !.@Xx i i v a #XG.0.X 8.; @ o . $X%X&X",
"*X=X-X&XoXb a ) x v a ;XG.:X>X. o @ $   # ,X<X",
"$ - 1X2X3X4X:X5X6Xe v n.e 7XR # + @ - R - @ ; ",
"R >.>.R - #   Z 8XT G 9X0XH.; - + @ - R - >.R ",
"2XR R qXX - # > wX+ o eXrXtXo X 8.@ . qX$ @ 1X"
};
