/* XPM */
static char *result[] = {
/* columns rows colors chars-per-pixel */
"50 50 24 1 ",
"  c #256D15",
". c #276E18",
"X c #286E18",
"o c #277414",
"O c #297516",
"+ c #277814",
"@ c #2A7C16",
"# c #2A7518",
"$ c #2C7C19",
"% c #2C8216",
"& c #2E8917",
"* c #2E8319",
"= c #2F8919",
"- c #31851B",
"; c #328B1B",
": c #34921D",
"> c #38961E",
", c #369A1E",
"< c #389B1F",
"1 c #358720",
"2 c #358C20",
"3 c #369320",
"4 c #399521",
"5 c #3A9B22",
/* pixels */
"*-@-4:==3*;+@%-$#*@+;;$-;=@$ $;=%1-@;***;;;=1;%#@X",
":;;*>%@@%;%;*+=*-;%;%:-#@=;@;;-*@$;@%:$#%=%#@%%%% ",
"%:#*=;=@%%@;:=;=-*$;;;*;;@-;$@=-$&$@=-%@;*==-%%:3:",
"@$$@$;$3%#-o*:$X@@:;;+@@%-;#@$*-=@@:$**;-;*$%;-;24",
"**@$**=*;%::=;;2%$%%$;%*@@=$=;$-$$O;*-#*%$;%-%=***",
"%%*%$@:**;-;2*%=%%+@$$@oO@;:*=$$;-#=-%%*%#5=**=;$*",
"%-#$O$*:;-@%%%-;O=*2&-*;;;*@;>$O%*=:;$;=3@=;%#%;=%",
"%#=;#;*@*#%@%*$;;;24:5$*;1%*$;>$@$O*;2$=:=;%$-*@$=",
"$@*;*#%%%$-;*@O$%%$-:-;*;-:=$;:@3**;%$#$$%$:;@o4;*",
";3$@*@-;;;$*@;O%O*%%%=$;-$%$>*@ =;=;%;=.=@@:*@$*%%",
"@%@;,%$,$3;@&:;;*;*@%$*;@-$@&;=$;%$@%3%@%#O;:@*;-%",
";;2;;*%%*-=@%;&5;@;$%*%@@$@;@;@;*=**%1*;%-::%$$;%2",
"%-#=@%*=*:;@3:%*;$$@-$-:%**-*O$$%:5$=$@=$=;*$--2%-",
"$=*@#$&$#;$%$$$$;*&&-$$-*=;%,*$%$-%**$=21-+3:$#-;@",
";$&;@%=***;%@%+@$;;;$-%$>;:;--%*;-*;=;=$$%*%;OO,;*",
";%*5;41$=;;- @+::*:;-4+;$$$@*:%%%2;$%@**:=#+%%@;:%",
"$-#%%*$%;=;$%;;-$$@%:&%@+=$@=&$;:$-;*%=%;*-%;--&=*",
"$%$-;;*;*:$$*:**;$*=;$+@$*-$; @*;$%@;$@%-*;;:#-;=3",
";$o-%;o$%--%3 $::;@;-%$$>=;-%O =@%;$*;-$$;#%$%--*=",
"$$;;;OOoO%%:%@;*%$%;#$;;-$5>$%%*=&@;:%@-:o-:$--%;%",
"-@:$=@;$*o#5::%%%@---*;;&:;;%*:;:*-&:4*3%3-$;-o$-%",
"%@-==*<:#%;**;%$&+%%%;%:O-&;;;;%-;%-;*$$@*#%3*@@*%",
";-$%;@$*=*@+***$=*$@%-%;o;@$$$-#$*@;**%=-%;-%-@$:-",
";2oO;;*$;:;=;=%%%;::---=##@--$O@-3+%@%;;o$%;%2$@;-",
"%@$;;=*;-*;::$*;-%$;;=*=**@=@2%%;;;%@$*#+-@$;$:>**",
"o $-;;-;-+:;O$;$--%%;=@$@%#;-$%3%=;;%32@-;%;-%; ;%",
";*$=$;%&@ @*$$;-$-:;1$;#*;*;*$$;-*$$$-;;;*%3$$-@*&",
":--@+*;;@@%@*%:*%@$##@*$*:=-#*$%:=.@;;:@-%:#$*;*;-",
"-%-;%*:$o;*-;-%-;$@=@-;-$=%*%;;%;=-O*-%%;;%-;*%;-%",
"*$*$-**%-:;=+*$*;5;:-,%#:;$*@*;;%%%--%;:;;-@$$@$$%",
"@;:;:*;;#5;@@$&%;-$@-%$@@=*-;@-;;#-;% ;*;@*;%$O$;;",
"=*@--%*@O-;;-=;$@%$$;;-@$=-@*@%;*$%:-.*%;=;$%$$$;*",
"=-@;:=%%--%;-@O$$@o**;:$%-=#$%;%%@@#$$%;;*;--;;;@$",
"$@==*@;;=$%O-2@2:-2@-:,;;*;$@;4:;;:-*;@$-$;4=;%-$*",
"$>$o@-$=o#;$=:$=@-=;=%;#@*@*;:--@=%$:%*%=;%;@;*=-@",
"%-;$$;%;@#;*;1=%@;;%--+@#*$-:=:%o:@-4#%:;;#Xo;%:;$",
":-;:*&--=%#%3$$*;;@$$=*;;-+@;$@*%%;2:==*@;%@$@3%%%",
"$O*-*&;$*$#=:*o%$--@%;2;#:&oo@*@$@-:*%%@%=-:+%=;-<",
"---;$$-;;#3<=*%+o;=$3%%%$+;@-:*:=;;*;*@O=%%;*=@;%$",
"%%;-;$--@@=5$$*;=*;;o;3**%%:;%:;&;%#-%--@*@;-;*$@&",
";;+**;*;%*$2;;@=#;:***:$%;=$*1=#%&*--:::*:*3;%+2*@",
"=;@*-=@:2*=#%=$%$;%-;%=*-*;o*==X ;o-$$X$;%;::$@%**",
"*%*=*;*&@-$@%*%5*O@%-*$;*;=;$=;;-**#-O$;;+$;*;-$;:",
";=*;@%*;$*=;$$;*%;;=-%$;;-;$;=$$;3-$-$:=%=+;;$$%;*",
"$*%*;$-;;@;;$;;;$@5;,*@*@;;%+$2+:;-&*=;%%;$$=*$@;=",
"@*3*:-*@@#@;=*;$$o%#%:@-$&**#%=%=O;%@=;$;%*@##%;;:",
"*$%%51-$;*$$$%%$+.@***%&=$@*+$*2:$@O;;%=;-#*;$=%@*",
"5%+$-$#=#%*@*;::3@$@%-;@*:o@=;21;;$;%%$@$-;%:$O@;;",
"=*=:;#%=;2%*@+;-*%*@-4%*==#@;@==*;*-*%-;$**@;*;%;@",
" #+@*$==,:2+=**;*@$;1*@*;*1$*==2->-;;**;%$::-;=*#-"
};
