/* XPM */
static char *result[] = {
/* columns rows colors chars-per-pixel */
"50 50 39 1 ",
"  c #F39B12",
". c #F39C12",
"X c #F39D12",
"o c #F39E12",
"O c #F39F12",
"+ c #F1BE0F",
"@ c #F1BF0F",
"# c #F3A012",
"$ c #F3A112",
"% c #F3A212",
"& c #F3A411",
"* c #F3A511",
"= c #F2A611",
"- c #F2A911",
"; c #F2AA11",
": c #F2AB11",
"> c #F2AC11",
", c #F2AE11",
"< c #F2AF11",
"1 c #F2B010",
"2 c #F2B110",
"3 c #F2B011",
"4 c #F2B210",
"5 c #F2B310",
"6 c #F2B410",
"7 c #F2B510",
"8 c #F2B610",
"9 c #F2B710",
"0 c #F2B810",
"q c #F2BA10",
"w c #F1BC10",
"e c #F1BD10",
"r c #F1C00F",
"t c #F1C10F",
"y c #F1C20F",
"u c #F1C30F",
"i c #F1C40F",
"p c #F1C50F",
"a c None",
/* pixels */
"aaaaaaaaaaaaaaaaaaaaaaaaaaaaaaaaaaaaaaaaaaaaaaaaaa",
"aaaaaaaaaaaaaaaaaaaaaaaaaaaaaaaaaaaaaaaaaaaaaaaaaa",
"aaaaaaaaaaaaaaaaaaaaaaaaaaaaaaaaaaaaaaaaaaaaaaaaaa",
"aaaaaaaaaaaaaaaaaaaaaaaaaaaaaaaaaaaaaaaaaaaaaaaaaa",
"aaaaaaaaaaaaaaaaaaaaaaaaaaaaaaaaaaaaaaaaaaaaaaaaaa",
"aaaaaaaaaaaaaaaaaaaaaaaaaaaaiiiiiiiiiaaaaaaaaaaaaa",
"aaaaaaaaaaaaaaaaaaaaaaaaaaiiiiiiiiiiiiiaaaaaaaaaaa",
"aaaaaaaaaaaaaaaaaaaaaaaaaiiiiiiiiiiiiiiiiaaaaaaaaa",
"aaaaaaaaaaaaaaaaaaaaaaaaiiiiiiiiiiiiiiiiiiaaaaaaaa",
"aaaaaaaaaaaaaaaaaaaaaaaiiiiiiiiiiiuyuiiiiiiaaaaaaa",
"aaaaaaaaaaaaaaaaaaaaaaiiiiiiiiiiu9-&=4tiiiiaaaaaaa",
"aaaaaaaaaaaaaaaaaaaaaaiiiiiiiiii4o   .;tiiiiaaaaaa",
"aaaaaaaaaaaaaaaaaaaaaiiiiiiiiiiw#aaaaa.6iiiiaaaaaa",
"aaaaaaaaaaaaaaaaaaaaaiiiiiiiiii6aaaaaaa>uiiiiaaaaa",
"aaaaaaaaaaaaaaaaaaaaaiiiiiiiiii0aaaaaaaauiiiiaaaaa",
"aaaaaaaaaaaaaaaaaaaaiiiiiiiiiiiuaaaaaaaaiiiiiaaaaa",
"aaaaaaaaaaaaaaaaaaaaiiiiiiiiiiiiaaaaaaaiiiiiiaaaaa",
"aaaaaaaaaaaaaaaaaaaaiiiiiiiiiiiiiaaaaaiiiiiiuaaaaa",
"aaaaaaaaaaaaaaaaaaaauiiiiiiiiiiiiiiiiiiiiiiiyaaaaa",
"aaaaaaaaaaaaaaaaaaaa+iiiiiiiiiiiiiiiiiiiiiii@aaaaa",
"aaaaaaaaaaaaaaaaaaaa+iiiiiiiiiiiiiiiiiiiiiipqaaaaa",
"aaaaaaaaaaaaaaaaaaaaiiiiiiiiiiiiiiiiiiiiiiii2aaaaa",
"aaaaaaaaaaaaaaaaaaaiiiiiiiiiiiiiiiiiiiiiiii@*aaaaa",
"aaaaaaaaaaaaaaaaaaiiiiiiiiiiiiiiiiiiiiiiiii1aaaaaa",
"aaaaaaaaaaaaaaaaaaaiiiiiiiiiiiiiiiiiiiiiipq$aaaaaa",
"aaaaaaaaaaaaaaaaaaaiiiiiiiiiiiiiiiiiiiiip+&aaaaaaa",
"aaaaaaaaaaaaaaaaaaiu16uiiiiiiiiiiiiiiiipe* aaaaaaa",
"aaaaaaaaaaaaaaaaaiu<.#eiiiiiiiiiiiiiipu8% aaaaaaaa",
"aaaaaaaaaaaaaaaaiu<XX4uuiiiiiipppppit0-X aaaaaaaaa",
"aaaaaaaaaaaaaaaiu<XX4iy,6uiir<17985>&X aaaaaaaaaaa",
"aaaaaaaaaaaaaaiu<XX4iy>.owii5  .X..  aaaaaaaaaaaaa",
"aaaaaaaaaaaaaiu<XX4iy>..aaiaaaaaaaaaaaaaaaaaaaaaaa",
"aaaaaaaaaaaaiu<XX4iy>..aaaaaaaaaaaaaaaaaaaaaaaaaaa",
"aaaaaaaaaaaiu<XX4iy>..aaaaaaaaaaaaaaaaaaaaaaaaaaaa",
"aaaaaaaaaaiu<XX4iu1X.aaaaaaaaaaaaaaaaaaaaaaaaaaaaa",
"aaaaaaaaaiu<XX4iy<aaaaaaaaaaaaaaaaaaaaaaaaaaaaaaaa",
"aaaaaaaaiu<Xo4iy>.aaaaaaaaaaaaaaaaaaaaaaaaaaaaaaaa",
"aaaaaaaiu<XX1iy>..aaaaaaaaaaaaaaaaaaaaaaaaaaaaaaaa",
"aaaaaaiu<XX4aa2X.aaaaaaaaaaaaaaaaaaaaaaaaaaaaaaaaa",
"aaaaaay3XX4iiaaaaaaaaaaaaaaaaaaaaaaaaaaaaaaaaaaaaa",
"aaaaaa:XX4iy<aaaaaaaaaaaaaaaaaaaaaaaaaaaaaaaaaaaaa",
"aaaaaa.X4iy>.aaaaaaaaaaaaaaaaaaaaaaaaaaaaaaaaaaaaa",
"aaaaaaO4iy>..aaaaaaaaaaaaaaaaaaaaaaaaaaaaaaaaaaaaa",
"aaaaaa4ui4X.aaaaaaaaaaaaaaaaaaaaaaaaaaaaaaaaaaaaaa",
"aaaaaaaaaaaaaaaaaaaaaaaaaaaaaaaaaaaaaaaaaaaaaaaaaa",
"aaaaaaaaaaaaaaaaaaaaaaaaaaaaaaaaaaaaaaaaaaaaaaaaaa",
"aaaaaaaaaaaaaaaaaaaaaaaaaaaaaaaaaaaaaaaaaaaaaaaaaa",
"aaaaaaaaaaaaaaaaaaaaaaaaaaaaaaaaaaaaaaaaaaaaaaaaaa",
"aaaaaaaaaaaaaaaaaaaaaaaaaaaaaaaaaaaaaaaaaaaaaaaaaa",
"aaaaaaaaaaaaaaaaaaaaaaaaaaaaaaaaaaaaaaaaaaaaaaaaaa"
};
