/* XPM */
static char *dbeeb52a68eb451db1751991f23a24feQlrU7UYNC97qBgRt[] = {
/* columns rows colors chars-per-pixel */
"50 50 175 2 ",
"   c None",
".  c #4F1702",
"X  c #551C02",
"o  c #581F03",
"O  c #5D2204",
"+  c #612605",
"@  c #662A06",
"#  c #6A2D07",
"$  c #772502",
"%  c #7B2C05",
"&  c #6F3108",
"*  c #723408",
"=  c #713307",
"-  c #853105",
";  c #9A440B",
":  c #995F00",
">  c #B05C14",
",  c #9E6300",
"<  c #A06400",
"1  c #A56900",
"2  c #AA6E00",
"3  c #AD7100",
"4  c #AF7C04",
"5  c #B17500",
"6  c #B57A00",
"7  c #BA7D00",
"8  c #619D1E",
"9  c #6EA915",
"0  c #66A31D",
"q  c #6BA51B",
"w  c #6EAA1C",
"e  c #64A016",
"r  c #72AD16",
"t  c #71A71E",
"y  c #7FA41E",
"u  c #71AD1C",
"i  c #7DAC1E",
"p  c #75B116",
"a  c #79B516",
"s  c #7FBA17",
"d  c #76B21B",
"f  c #7AB619",
"g  c #7DB918",
"h  c #5D9C27",
"j  c #53922B",
"k  c #589729",
"l  c #559530",
"z  c #589730",
"x  c #629E21",
"c  c #659C33",
"v  c #64A123",
"b  c #6AA522",
"n  c #6CA820",
"m  c #6DA42B",
"M  c #79A727",
"N  c #7CAA23",
"B  c #74A32C",
"V  c #78A628",
"C  c #7AAE2C",
"Z  c #73AA28",
"A  c #7DB225",
"S  c #6FA234",
"D  c #75A632",
"F  c #78A230",
"G  c #76A932",
"H  c #7BAC33",
"J  c #7AA638",
"K  c #7AAB3B",
"L  c #77AA3C",
"P  c #7BAC41",
"I  c #AC880F",
"U  c #BE8100",
"Y  c #B48508",
"T  c #B58A0A",
"R  c #BA8E09",
"E  c #BE9209",
"W  c #A88B12",
"Q  c #AE9212",
"!  c #86A318",
"~  c #8AA11B",
"^  c #A0A217",
"/  c #ACA412",
"(  c #91A32C",
")  c #82B72B",
"_  c #8CA631",
"`  c #8ABB39",
"'  c #C28500",
"]  c #C68A00",
"[  c #CB8D00",
"{  c #CE9100",
"}  c #CB9E07",
"|  c #C29608",
" . c #C69A08",
".. c #C99D08",
"X. c #D39500",
"o. c #D69900",
"O. c #DB9D00",
"+. c #CEA107",
"@. c #D1A407",
"#. c #DCA402",
"$. c #DDAB05",
"%. c #E3A400",
"&. c #E4AB01",
"*. c #E9AE01",
"=. c #ECB200",
"-. c #F4B500",
";. c #F5BE00",
":. c #F8B800",
">. c #F6C200",
",. c #F9C300",
"<. c #82AF4A",
"1. c #83B143",
"2. c #8BB943",
"3. c #86B24B",
"4. c #8AB548",
"5. c #88B247",
"6. c #90BE45",
"7. c #86B252",
"8. c #8DB655",
"9. c #8DB757",
"0. c #93BB58",
"q. c #94B963",
"w. c #9ABE65",
"e. c #9BBE6C",
"r. c #96BA68",
"t. c #95C14D",
"y. c #99C158",
"u. c #A0C75F",
"i. c #9CC164",
"p. c #9DC16C",
"a. c #9FC170",
"s. c #A1C766",
"d. c #A2C56C",
"f. c #A6C96F",
"g. c #A3C476",
"h. c #AFCF7B",
"j. c #A7C876",
"k. c #B0D07C",
"l. c #A9C783",
"z. c #ADCA85",
"x. c #ACCA8A",
"c. c #B1CE88",
"v. c #B6D386",
"b. c #BAD58D",
"n. c #B7D488",
"m. c #B2CD93",
"M. c #BAD493",
"N. c #B8D199",
"B. c #C1D6A5",
"V. c #CADEAC",
"C. c #C6DBA8",
"Z. c #CCDCB5",
"A. c #CFDEBB",
"S. c #D1DFBF",
"D. c #CFE0B5",
"F. c #D3E2BE",
"G. c #DAE6C9",
"H. c #DDE9CB",
"J. c #D7E4C2",
"K. c #E2EBD4",
"L. c #E6EEDB",
"P. c #E8EFDE",
"I. c #E9F1DC",
"U. c #E7F0D9",
"Y. c #EBF2E1",
"T. c #EDF3E4",
"R. c #EFF4E8",
"E. c #F2F6EC",
"W. c #F4F8EE",
"Q. c #F5F7F1",
"!. c #F6F9F1",
"~. c #F6F9F2",
"^. c #FEFEFE",
"/. c #FDFDFC",
"(. c #F8FAF5",
/* pixels */
"                                                > >                                                 ",
"                                              ; ; ; ;                                               ",
"                                            X % - - - *                                             ",
"                                          X .   $ $   = *                                           ",
"                                        X                 =                                         ",
"                                    X X                     & #                                     ",
"                                  O X                         # #                                   ",
"                                O                                 @                                 ",
"                              O                                     @                               ",
"                          + O                                         + +                           ",
"                        + +                                               O                         ",
"                      @                                                     O                       ",
"                  @ @                                                         O o                   ",
"                # #                                                             o o                 ",
"              #                                                                     X               ",
"          * =                                                                         X X           ",
"      ;.*.X.*.;.;.>.;.>.;.>.;.>.;.;.>.;.>.>.;.>.;.;.>.;.;.;.>.;.>.;.;.>.;.;.>.;.;.>.>.*.[ $.;.      ",
"  -.>.>.>.,.,.,.,.,.,.,.>.,.,.>.,.,.,.,.,.>.>.,.,.,.,.,.,.,.,.>.,.>.>.,.,.,.,.,.,.,.>.,.,.,.>.>.-.  ",
"  ;.:.:.:.:.:.:.:.:.:.:.:.:.;.:.:.:.:.:.:.:.:.:.:.:.:.:.:.:.:.:.:.:.;.-.:.:.:.:.:.:.:.:.:.:.-.-.>.  ",
"=.-.-.:.-.:.-.-.:.-.-.-.-.-.-.-.-.-.-.-.-.-.-.;.-.-.-.-.-.-.-.-.:.-.-.;.-.-.-.-.:.:.-.:.-.:.-.-.-.=.",
"=.=.-.-.-.-.-.-.=.*.=.*.=.&.=.*.=.&.=.*.*.*.=.&.*.*.*.=.=.&.=.&.&.=.&.=.=.&.=.*.*.=.-.-.-.-.-.-.=.=.",
"*.=.=.-.=.-.&./ ~ ! ! ! ! ! i ! ! ! ! ! ! ! ! ! ! ! ! ! ! ! ! ! ! ! ! ! ! ! ! i ! ~ / &.=.=.-.-.=.*.",
"%.*.*.=.*.$.~ w d a f f s a a s f f f f a a a f a a f f f f f f g a a g a a s s f d w ~ &.=.=.*.*.&.",
"%.*.*.*.*.^ w s s s s s s s s s s s s s s s s s s s s s s s s s s s g s s g s ! s s s w Q &.*.*.*.%.",
"%.*.*.%.%.N g ) s s s s s s s s g g g g s s s s s s s s s s s s s s s s s g s a s s s s ! %.*.*.%.%.",
"O.%.%.%.@.! s a s ) s a s s s ! s g g g s s s s s s s s f s s f s s s s g s g g g s f f N @.%.%.%.O.",
"O.%.%.%.@.i s a g g g g a a s a g g g g s s ! s s s s s g g f f s a s s g s g g f s f s N +.%.%.%.O.",
"O.O.%.%.+.i a s d g g f a a a a g g g a p p a a a f a p a a a f a a a a f f f a f f f s ! } %.O.O.O.",
"o.O.O.O.} i f f f f d t.b.C.n.6.p a ) k.v.v.k.t.f f u.v.v.v.v.f.A 2.b.` a f ` v.) a a a i } O.#.O.o.",
"o.o.O.O.} i f d f d h.!.L.S.T.R.i.p i./.K.J.Y.W.d.A U.!.G.G.H.V.C n.^.V.d p f.~.t.p d d N } O.o.O.X.",
"X.X.o.o...N d f p 2.E.J.C q ` K.U.C f./.w.t 5.E.Z.C Y.Z.q N n u w M.^./.f.9 f.!.4.p d d N ..o.o.o.{ ",
"{ X.X.X. .M d d r j.^.w.r u 9 z./.0.p./.w.t 8.Q.V.H I.G.w.y.i.2.9 M.!.K.I.H a.~.4.d d d N  .X.X.X.{ ",
"[ { X.X. .N u d w c./.8.w d w p./.w.p./.L.H.R.T.0.H I.(.L.L.L.M.q M.T.q.T.B.g.!.3.w d u C  .X.{ { [ ",
"[ [ X.[ | M w u w g./.w.9 w w l./.9.p./.B.g.a.P w H Y.A.D H H Z q M.R.J l.!.F.E.3.w d n M E { { { ] ",
"] [ [ [ | M n n w 1.E.F.G 0 K K.Y.D p./.q.e 0 w w G Y.Z.v b m b 0 N.R.J m F./.Q.3.w w w M | [ [ ] ] ",
"' ] ] [ E C n n n b l.(.K.Z.P.E.e.e p.^.q.b w n b G L.Q.G.G.H.D.K m.R.L b 7.R.(.3.0 n n M R ] [ ] ] ",
"U ' ] ] R V b b b b v 9.N.C.m.7.b 0 P m.L b b m b b w.m.m.m.m.l.m 9.x.m b v w.m.m b b m V R ] ] ] U ",
"7 ' ' ' T V v v b v v 0 x x x x v b v h v v b v b v 0 h 8 8 8 8 v v x b v v v 0 v v b v B R ' ' U U ",
"7 U U ' T B x v h v v v v v x x v v v v v v x x h b v v h x h b x v v v v v v v v v x x V T 7 ' U 6 ",
"6 7 7 7 T B h x h h h h h c x z h h h h h h h x h h h h h h h h h h h h h h h h h h h h B R 7 7 U 6 ",
"6 6 7 7 Y D h k h h k h h k h h h h k h h k h h h h k h h h h h x k h k h k x k h h h h B T 6 7 6 6 ",
"5 6 6 6 Y F k k k k k k k k k k k j k k k k k k k k k k k k j j k k k k k k k k k j k j F Y 6 6 6 3 ",
"2 5 5 5 6 _ z j j j j j j j j j j j j j j j j j j j j j j j j j l j j j j j j j j j j z ( 6 5 6 5 3 ",
"2 3 5 5 5 Q J l j j j j j j j j j j j j j j j j j j j j j j j j j j j j j j j j j j k L W 5 3 5 3 3 ",
"2 2 3 3 2 5 W _ S c c c c c c c c c c c c c c c c c c c c c c c c c c c c c c c c D _ Q 5 5 2 5 3 1 ",
"1 2 2 2 2 2 3 6 W W W W W W W W W I W W W W W W W W W W W I W W W W W W W W W W W W 4 3 2 2 2 2 2 1 ",
"< 1 1 2 1 2 1 1 2 1 1 1 1 1 1 1 1 1 1 1 1 1 1 1 1 1 1 1 1 1 1 1 1 1 1 1 1 1 1 1 1 1 1 1 1 1 2 1 1 < ",
", < 1 < 1 1 1 1 1 1 1 < 1 1 1 1 1 1 1 1 1 1 1 1 1 < 1 1 1 1 1 1 1 1 1 < 1 1 1 < 1 1 1 1 1 1 1 < < , ",
"  , , , , , , , < < < < < < < < < < < < < < < < < < < < < , < < < < < < < < < < < < < < < < : < :   ",
"    : , : : : : : : : : : : : : : : : : : : : : : : : : : : : : : : : : : : : : : : : : : : : :     "
};
