/* XPM */
static char *result[] = {
/* columns rows colors chars-per-pixel */
"50 50 182 2 ",
"   c #4A3C06",
".  c #593A04",
"X  c #3F4F07",
"o  c #3A5B0B",
"O  c #1E6B0A",
"+  c #216D0E",
"@  c #2B6F0C",
"#  c #33640B",
"$  c #3E630C",
"%  c #356B0E",
"&  c #3A6C0D",
"*  c #22750D",
"=  c #2E750F",
"-  c #247C0D",
";  c #2A7D0E",
":  c #31720D",
">  c #36760E",
",  c #236E11",
"<  c #247511",
"1  c #2A7611",
"2  c #267C11",
"3  c #297E12",
"4  c #387C12",
"5  c #444506",
"6  c #484A07",
"7  c #414B09",
"8  c #584806",
"9  c #514D08",
"0  c #475708",
"q  c #4C5408",
"w  c #485E0E",
"e  c #6A4305",
"r  c #416C0F",
"t  c #4D680E",
"y  c #5A6D0D",
"u  c #47730F",
"i  c #447110",
"p  c #67750A",
"a  c #747108",
"s  c #832E02",
"d  c #974A06",
"f  c #966401",
"g  c #9F6300",
"h  c #976902",
"j  c #A36700",
"k  c #A56800",
"l  c #A96D00",
"z  c #A87701",
"x  c #A97402",
"c  c #B17500",
"v  c #B67B00",
"b  c #BA7D00",
"n  c #26820D",
"m  c #28820E",
"M  c #29890E",
"N  c #278110",
"B  c #2A8412",
"V  c #2C8B13",
"C  c #2E8618",
"Z  c #2F8C18",
"A  c #358613",
"S  c #318E16",
"D  c #328D19",
"F  c #2E9114",
"G  c #329316",
"H  c #339419",
"J  c #359919",
"K  c #35991A",
"L  c #399C1D",
"P  c #37A01C",
"I  c #4F850D",
"U  c #7E9709",
"Y  c #7CB70F",
"T  c #66A310",
"R  c #64A21F",
"E  c #69A61C",
"W  c #6CA91A",
"Q  c #71AD15",
"!  c #74AD1A",
"~  c #75B115",
"^  c #7BB512",
"/  c #7EB910",
"(  c #7EB719",
")  c #549526",
"_  c #5C9B22",
"`  c #529329",
"'  c #58972C",
"]  c #5C992A",
"[  c #7E9722",
"{  c #64A120",
"}  c #6AA523",
"|  c #6FA72D",
" . c #74AB23",
".. c #75AB2C",
"X. c #7BAF2B",
"o. c #7EB22A",
"O. c #75AA36",
"+. c #79AD33",
"@. c #7BAD3C",
"#. c #7CAD43",
"$. c #8E9A1B",
"%. c #929E16",
"&. c #9C961A",
"*. c #949A1B",
"=. c #AE8506",
"-. c #B38403",
";. c #BC8301",
":. c #BD8B01",
">. c #96A60F",
",. c #80A715",
"<. c #83AA11",
"1. c #96A315",
"2. c #9AA613",
"3. c #9CA910",
"4. c #80BB10",
"5. c #A7A70B",
"6. c #B3A505",
"7. c #BCAC04",
"8. c #839822",
"9. c #84A32E",
"0. c #83B72B",
"q. c #88BC2E",
"w. c #88BA36",
"e. c #8BBB3B",
"r. c #C28500",
"t. c #C48A01",
"y. c #CA8D00",
"u. c #C49201",
"i. c #CC9301",
"p. c #CC9C01",
"a. c #D29500",
"s. c #D59A01",
"d. c #DA9D00",
"f. c #C6A803",
"g. c #CCAA05",
"h. c #DCA200",
"j. c #D9A701",
"k. c #C1B205",
"l. c #E3A500",
"z. c #E6AA00",
"x. c #EBAD00",
"c. c #E4B601",
"v. c #E9B000",
"b. c #F3B400",
"n. c #F6B800",
"m. c #F9BE00",
"M. c #FAC000",
"N. c #89B646",
"B. c #8CB946",
"V. c #88B54B",
"C. c #91BB4D",
"Z. c #89B452",
"A. c #93BA5A",
"S. c #96BC62",
"D. c #9BBE65",
"F. c #9BC553",
"G. c #A3CA5F",
"H. c #9DC268",
"J. c #9EC170",
"K. c #A4CA62",
"L. c #A2C768",
"P. c #AACD6D",
"I. c #A6C774",
"U. c #AECE7D",
"Y. c #ADCB83",
"T. c #B5D18B",
"R. c #BCD596",
"E. c #C5DAA4",
"W. c #C6DAAB",
"Q. c #CBDDB4",
"!. c #CFDFBB",
"~. c #CFE0B6",
"^. c #D2E2BC",
"/. c #D9E6C5",
"(. c #DBE9C6",
"). c #DAE7C9",
"_. c #DDE9CB",
"`. c #E2ECD4",
"'. c #E8F1DD",
"]. c #ECF3E2",
"[. c #F3F8ED",
"{. c #FAFCF8",
/* pixels */
"B B ; B K H V V H V V * n n V 3 < V - * V V B B B V n 3 + N V V B C B - V V B B V V F V C F n < 2 < ",
"F F V B J N 2 * B V N V V * B V B V M V B F B 2 - V V * V D B m 2 N V B N G 3 < B V B < 2 N N N m + ",
"B G < V V F V 2 n B ; V F V V B B V 2 V Z F N Z H 2 B V N ; V B 2 M 2 2 B B M - V B B B V N B H H H ",
"2 3 3 2 N V N F B 2 B * V F N , 2 3 G V V - 2 ; N B H 2 2 n B C V n ; J N B B V B V V 3 3 F B V D J ",
"B B 2 2 B B V B V B G H V V Z V B 3 M B N V B B ; - V 3 V V 3 B B 3 * B B B * B B 3 V N B B M M B B ",
"N B B B 2 N G B B V B V H B N V N m * * 2 B ; < < - F G B V 3 3 V B < V V B N B 2 N L V M N V V N B ",
"B V < N < B B F V V 2 B n n C V * V B D V B B y d d y ; B J B < B B V F F 3 V V H - F V N 2 B V B B ",
"2 2 V V < V N ; 3 2 B n N B B Z V V H K F L # . s s e & 3 V K 3 3 N * B V D B B F V Z M 2 C B ; ; V ",
"3 - B V B 3 3 B n 3 V V N n * 3 N 3 3 B D o 7 # q q i q r A G - G B B V B B 2 3 2 B 2 G F 2 * H V V ",
"V H N ; V 2 B V V V B B ; V * N 2 V ; : 7 X 1 F B n B : t q : + V V V V m B V , B 2 - F N 2 3 V N B ",
"; B 2 Z K N N K 3 H V 2 M G F V N V % 5 o 3 B Z B B 2 ; M r 9 % V 3 3 - B K B 2 B * * G H * B V B B ",
"F V D V V V N n N V B 2 B F V K B o 6 # B B B 2 2 B 2 V ; V % 9 r B B B B B B V B V K F B N B V B V ",
"N B 2 V 2 B B M V G V 2 F F N = w 7 @ * B 3 B H N B B V B * B : 0 w A B V N 2 V C V V B 3 V 3 C N B ",
"n V B 2 * 2 V N * Z B B N B % 6 r ; M V V 2 3 V V B F B K B N ; 3 $ 6 & B 2 V Z B C * J F 3 3 C V M ",
"V N V V 2 B B B B B V N 1 r . # * F J D ; V N N J V F V V B N N D B &   $ V V 3 B N M N V 2 * J V V ",
"V N N P V K C N V V V 4 X 7 @ G G m D V C K * C 2 3 N 2 B H N B n D D = X X 1 B F V < * B B - V F B ",
"3 B 2 B N V ; n V A > q $ A D B 2 3 n B G M m ; - B N - V V ; V G m B V ; o 7 % V B B B V B B B B V ",
"B B 2 C V V M V B u 8 & ; H B B H ; M V D m * m 3 B A 3 V + 3 B G B 3 m D 3 #   o B S S H 2 V F M H ",
"V 2 * B B V > U 7.g.g.k.k.k.k.k.k.k.k.k.k.k.7.k.k.k.k.k.k.k.7.k.7.k.7.7.k.k.k.f.p.7.U A B 3 C B V V ",
"; ; Z B F I 5.n.m.n.m.m.m.m.m.m.m.m.m.m.m.m.m.m.M.M.M.M.m.m.M.m.M.M.M.m.m.m.m.M.M.m.m.5.3 V B B C n ",
"V 2 F B V 6.c.n.n.n.n.n.n.n.n.n.n.n.n.n.n.n.n.n.n.n.n.n.n.n.n.n.n.n.n.n.n.n.n.n.n.n.n.c.V B O N V N ",
"N 2 B V V c.v.n.n.b.n.b.v.v.v.v.v.x.v.v.v.x.x.z.v.x.x.z.x.x.v.v.x.x.v.v.v.x.n.n.b.b.n.v.H B - ; B B ",
"Z B < B V j.z.b.b.x.g.2.<.<.<.<.<.<.<.<.<.^ <.<.<.<.<.<.<.<.^ <.<.<.<.<.<.<.>.g.v.b.b.x.B B B ; F V ",
"V D * 2 V h.z.x.x.g.,.^ / / / / / / / / / / Y 4./ / Y 4.4.^ 4.Y / / / / / / ~ ,.g.v.x.z.B C 3 m V B ",
"M 2 2 H V j.l.z.z.5.^ / / / / / 4.4.4.4.4.4.4.4./ / / / / / 4./ / / / / / 4./ ^ 5.z.z.l.V 3 H J B V ",
"* O 3 B V j.l.l.l.3./ / / 4./ / 4.4.^ 4.Y 4.4.4./ / / / / 4.4./ / / / 4./ / / / 3.l.z.l.B B V + V n ",
"V B < V B s.d.l.j.3./ / / / ^ / ^ ^ 4.4.Y Y 4.4./ / Y Y Y / / / / / / / / / / / 3.h.l.d.B 2 V 2 B V ",
"F V V N * p.d.h.h.2.^ / / ( e.P.P.e.^ 4.C.K.G.C.( ( F.K.K.G.w.q.G.o.^ q.F./ ^ ^ 2.h.h.d.2 B C B V V ",
"C N V V N u.s.h.s.3.^ ^ ^ K.[._.`.].F.w.`.`._.[.P.e.].`.)./.K.U.{.I.~ L.(.0./ ^ 2.s.d.s.F B M V B B ",
"B 2 B N C u.a.s.a.2.~ ~ 0._.E.!  .Q.(.C.`.D. .E.^.B.`.A.X.X.Q U.{.).w.L.(.o.~ ~ 2.p.s.a.- 2 2 3 B ; ",
"- F H V H u.i.a.i.2.! ! B.'.A.Q Q L.].D.'.W.T._.T.B.].!.E.R.w.Y.'.Q.R.I.(.X.~ ! 1.i.a.a.n 3 < 2 V V ",
"V B ; B C :.y.a.i.2.! ! N.'.S.Q Q I.].A.`.W.Y.J.X.B.`.D.V.N. .Y.`.A.).Q.(.X.~ ! 1.y.a.y.B 3 3 3 F B ",
"N B - F F :.t.y.u.1.W W X.^./.@.#.).~.V.`.S.T T W V.`.A.O.+. .I.`.O.Y.{.(...W W 1.u.y.t.B V V G 2 N ",
"N 2 V V V :.r.y.t.%.E E W V.~.~.~.Q.#.+.Q.Z.W W W @.~.~.~.W.H.J.Q.} O.~.W.| W W 1.u.y.t.V S B B 2 B ",
"3 K N * * -.r.r.t.%.E E E R | #.#.| R } @.} R R E { @.#.@.#.| | O.E R O.O.} E } $.t.r.;.- V B V V - ",
"B B V 2 * -.;.r.;.$.{ { { { { { R R R { { { { { R R R _ R R R R R R _ R R R { { $.:.r.b * V B F Z 2 ",
"H B V Z B =.b b -.$._ _ _ _ _ _ _ _ _ _ _ _ _ _ _ _ _ { _ _ _ _ _ _ _ { _ _ _ _ $.;.b b 2 2 H N M N ",
"B < B V B z c b ;.$._ _ _ _ _ _ _ _ _ _ _ _ _ _ _ _ ) _ _ _ ) _ _ _ ) _ _ _ _ _ $.v b v ; N V V C K ",
"3 B V D - z x v v &.] ) ) ) ` ) ) ) ) ) ' ) ` ` ) ) ) ) ) ) ) ) ) ) ) ) ) ) ) ] &.v v x V V ; F N 2 ",
"B B V V B x x c c =.9.' ` ` ` ` ` ` ` ` ` ` ` ` ` ` ` ` ` ` ` ` ` ` ` ` ` ` ` 9.-.x c x B V B - - V ",
"F Z * B B x l l l c -.*.8.[ [ [ [ [ [ [ [ [ [ [ [ [ [ [ [ [ [ [ [ [ [ [ [ 8.*.-.x c c l D B * D B n ",
"V V 2 N B h k l l l l l x x x x z z x z x x x x x x x z x z z x z x x x x x x l l l l k F N * B B N ",
"B N N F B a h j j j j j k k k k k k j j j k k k j k k k k k k k k k j j j k j j j j j f B V D N V G ",
"V V M F 2 4 p h g j g g j g g g g g g g g g g g g g g g g g g g g g g g g j g g g g f p V B 2 N G B ",
"2 N B B V 3 B V V 2 V V 3 V Z V 2 N K V G V - V < V V B - 2 Z * Z V B V V V S B N D B N B B 3 < F B ",
"n M F V G V B ; - 2 - V C B V B B * B < M F - B 3 V M V - N V B V - V N * M V 2 V B B - 3 - m V Z H ",
"B N B N L B B B V V B 3 2 B N N * , 2 V N B N V V 2 2 N * 2 B Z G 3 2 2 S V n V V B * B S 3 V m N N ",
"K N 2 2 C 3 < B < B N 2 B D H F H 2 2 2 B B V - V G * - V C H V V C B V B m B 2 B B V N F B < - V V ",
"B B V F Z < N V V Z B M * n V V B N B < V H N B V V 2 2 Z - F N B V V B B B B S 2 V B 2 V V V B V ; ",
", * - 2 M 2 F M J G Z - V N B V N 2 B F C C - V V B C 2 B V Z V V J V B Z B B V B 2 F G B V V B < V "
};
