/* XPM */
static char *result[] = {
/* columns rows colors chars-per-pixel */
"50 50 173 2 ",
"   c #22292E",
".  c #282E2F",
"X  c #26352D",
"o  c #2B312F",
"O  c #242B30",
"+  c #292F31",
"@  c #2D3231",
"#  c #323531",
"$  c #353832",
"%  c #3A3C32",
"&  c #285C1F",
"*  c #216B0E",
"=  c #22740D",
"-  c #247C0D",
";  c #2A7B0F",
":  c #286F15",
">  c #2A6D1C",
",  c #247511",
"<  c #297515",
"1  c #267C11",
"2  c #297E12",
"3  c #2D7D19",
"4  c #274925",
"5  c #3C4D2D",
"6  c #265221",
"7  c #2A5924",
"8  c #3A5E26",
"9  c #3A6024",
"0  c #654200",
"q  c #694601",
"w  c #6D4902",
"e  c #714D02",
"r  c #7A5505",
"t  c #7B5609",
"y  c #7E5809",
"u  c #447B18",
"i  c #464434",
"p  c #4B4634",
"a  c #4D4934",
"s  c #524C35",
"d  c #565135",
"f  c #5C5436",
"g  c #625937",
"h  c #6A5F38",
"j  c #6D6138",
"k  c #726439",
"l  c #7A6B3A",
"z  c #87610D",
"x  c #88620B",
"c  c #8F6810",
"v  c #936C11",
"b  c #9C7315",
"n  c #A17916",
"m  c #A47B1A",
"M  c #816F3B",
"N  c #85733B",
"B  c #89753C",
"V  c #8C7A3C",
"C  c #927C3D",
"Z  c #26820D",
"A  c #28830E",
"S  c #2B8A0F",
"D  c #278110",
"F  c #2A8412",
"G  c #2C8B13",
"H  c #2E8718",
"J  c #2E8C18",
"K  c #328414",
"L  c #3A8415",
"P  c #318C16",
"I  c #3C8B16",
"U  c #3C8318",
"Y  c #328C19",
"T  c #2E9115",
"R  c #329316",
"E  c #3D9017",
"W  c #339319",
"Q  c #3A931B",
"!  c #359A1A",
"~  c #3A9A1C",
"^  c #428616",
"/  c #448E15",
"(  c #458319",
")  c #4B841A",
"_  c #438C1A",
"`  c #4B8B1B",
"'  c #538E1C",
"]  c #43931B",
"[  c #4C931B",
"{  c #4D9A1E",
"}  c #54941E",
"|  c #59961F",
" . c #549A1D",
".. c #508421",
"X. c #489A20",
"o. c #539520",
"O. c #589520",
"+. c #669521",
"@. c #6A9423",
"#. c #679922",
"$. c #6C9C23",
"%. c #739B25",
"&. c #6DA226",
"*. c #71A426",
"=. c #76A229",
"-. c #7AA529",
";. c #819F27",
":. c #829C2D",
">. c #9B833E",
",. c #B18720",
"<. c #BC9027",
"1. c #BE9228",
"2. c #A0873F",
"3. c #84A22B",
"4. c #88A72E",
"5. c #86AA2D",
"6. c #8AA92E",
"7. c #95A42E",
"8. c #99A52E",
"9. c #95A630",
"0. c #9BA731",
"q. c #97AB30",
"w. c #9BAD31",
"e. c #9CB232",
"r. c #A6AD33",
"t. c #ABAD34",
"y. c #A8A139",
"u. c #B2AD36",
"i. c #A6B234",
"p. c #ABB235",
"a. c #B1B136",
"s. c #B3B338",
"d. c #BCB63A",
"f. c #B7B83A",
"g. c #BBBA3A",
"h. c #C3972A",
"j. c #C4982C",
"k. c #CEA130",
"l. c #D1A432",
"z. c #D8AA36",
"x. c #DDAE39",
"c. c #C0BA3C",
"v. c #CEBC3E",
"b. c #E3B43C",
"n. c #AA8E40",
"m. c #B29441",
"M. c #BD9C43",
"N. c #C5A244",
"B. c #C9A544",
"V. c #CFA946",
"C. c #D3AC46",
"Z. c #DBB247",
"A. c #D7BF41",
"S. c #DABF42",
"D. c #DFB748",
"F. c #E6BA47",
"G. c #ECBC41",
"H. c #E1B748",
"J. c #E5BA49",
"K. c #EABE49",
"L. c #D7C141",
"P. c #DBC142",
"I. c #E3C444",
"U. c #ECC647",
"Y. c #EFC24A",
"T. c #EFC848",
"R. c #F4C446",
"E. c #F8C747",
"W. c #F5C64A",
"Q. c #F8C748",
"!. c #F5C949",
"~. c #FFCD4C",
"^. c #FFD04C",
/* pixels */
"F F - G Q R G G R G G = Z Z F F * G - = G P D F G G A 1 * D G G D K G - G G F F G G T G J T - = 2 , ",
"T T G F ! D 1 = F G D G G = G F J G Z T K Q ] ) ` [ [ L / Q G F ; F G 2 D R 2 = F G D , 1 D D F A * ",
"F R , G G T G 1 A A - G T G G G P I ' &.5.e.r.s.f.a.a.i.9.;.$.} U S 2 - F G A - G G F G H Z 1 W R R ",
"1 2 2 1 D G D R 2 2 G = G R K u @.7.g.L.I.!.~.~.~.~.~.~.!.U.S.d.q.$.^ ~ D F H G D G G 2 F G G G W W ",
"F H - D F F G F G D W W K { -.a.A.!.~.~.~.~.~.~.~.~.~.~.~.~.~.~.!.P.r.-.` H = F F 2 G D F D G S F D ",
"Z D F D 1 1 T S F G G E &.r.P.!.~.~.~.~.~.~.~.~.~.~.~.~.~.~.~.~.~.~.~.P.p.#.I F D 1 ~ G A G G G D G ",
"F G 1 1 , 1 F T G P ( 3.v.!.~.~.~.~.~.~.~.~.~.~.~.~.~.~.~.~.~.~.~.~.~.~.!.v.4.[ W - T G D 1 2 G F F ",
"1 1 G G < G F D K ` q.I.~.~.~.~.~.~.~.~.~.~.~.~.~.~.~.~.~.~.~.~.~.~.~.~.~.~.I.w. .P W Z D J F - - G ",
"1 1 G G F 1 2 G ' r.U.~.~.~.~.~.~.~.~.~.~.~.~.~.~.~.~.~.~.~.~.~.~.~.~.~.~.~.~.U.r.} K W J 1 = ! P G ",
"G R 2 - G 2 G O.i.R.~.~.~.~.~.~.~.~.~.~.~.~.~.~.~.~.~.~.~.~.~.~.~.~.~.~.~.~.~.~.R.r.) W F 1 2 F D F ",
"1 F 1 G ! D _ i.U.~.~.~.~.~.~.~.~.~.~.~.~.~.~.~.~.~.~.~.~.~.~.~.~.~.~.~.~.~.~.~.~.T.8.X.! = F G G D ",
"T G Y G G I 3.P.!.~.~.~.~.~.~.~.~.~.~.~.~.~.~.~.~.~.~.~.~.~.~.^.~.~.~.~.~.~.~.~.~.~.I.5.I Z D J D P ",
"D G , 2 : ..y.C.C.C.C.C.C.C.Z.Z.H.J.K.Y.W.~.!.~.~.~.~.~.~.!.Y.Y.J.H.Z.Z.C.C.C.V.V.C.C.y...3 < H F F ",
"D F > & 4 5 d s s p p p s s f f j l N >.m.N.C.Z.C.Z.C.C.N.m.>.N l h g f s a a a a a s d 5 4 6 > F Z ",
"G < 6 . O O                         O + # % a s d d s a % @ + O                           O O 7 3 G ",
"G 2 7 X O O O O O O O O O O O O O O O O O       + + O O O O O O O O O O   +   +   +       + O 7 Y D ",
"F F > 9 % O O O O O O O O O O O O O O O O O + p k k a + O O O O O O O O O O O O O O O O O % 8 3 F G ",
"F F U :.B # O O O O O O O O O O O O O O O + i B.W.!.C.a O O O O O O O O O O O O O O O O # N %.{ S R ",
"G 2 ) d.N.s   O O O O O O O O O O O O O O   l ~.~.^.~.N + O O O O O O O O O O O O O O   p M.d.O.F G ",
"- 1 &.L.C.h O O O O O O O O O O   O O O O @ >.~.~.~.^.n.@ O O O O O O O O O O O O O O   g C.S.$.J D ",
"G 2 6.U.K.N O O O O O O O O O O O O O O O # N.^.~.~.~.V.$ O O O O O O O O O O O O O O O l D.U.3.Y F ",
"D L q.!.K.2.# O O O O O O O O O O O O O O a J.^.~.~.~.Y.d + O O O O O O O O O O O O O + >.Y.!.9.I D ",
"G _ r.~.~.M.p O O O O O O O O O O O O O + l ~.~.~.~.~.~.B @ O O O O O O O O O O O O   i m.~.~.r.{ H ",
"G o.t.~.~.Z.k O O O O O O O O O O O O O % N.^.~.~.~.~.~.V.% O O O O O O O O O O O O   h Z.~.~.t.{ G ",
"A ` s.~.~.W.n.$ O O O O O O O O O O O @ B W.~.~.~.~.~.^.~.C @ O O O O O O O O O O   $ >.W.~.~.g.' A ",
"= u s.~.~.~.H.M + O           O   O # M K.^.~.~.~.~.~.~.~.Y.N $ O                 o l Z.~.~.~.u. .Z ",
"T [ t.~.~.~.~.F.m.l f a i p s f h V M.Y.~.~.~.~.~.~.~.~.~.~.W.N.C j f s i p a f l n.J.~.~.~.~.u.[ S ",
"R [ p.!.~.~.~.~.^.W.Y.K.J.J.K.K.W.~.~.~.~.~.~.~.~.~.~.~.~.~.~.~.~.W.Y.K.J.J.K.Y.!.~.~.~.~.~.~.p.[ F ",
"G L q.!.~.~.~.~.~.~.~.~.~.~.~.~.~.~.~.~.^.~.~.~.~.~.~.~.~.~.~.~.~.~.~.~.~.~.~.~.~.~.~.~.~.~.!.w._ G ",
"F H 3.U.~.~.~.~.~.~.~.~.~.~.~.~.~.~.~.~.~.~.~.~.~.~.~.~.~.~.~.~.~.~.~.~.~.~.~.~.~.~.~.~.~.~.U.:.K D ",
"- T *.P.~.~.~.~.~.~.~.~.~.~.~.~.~.~.~.^.~.~.~.~.~.~.~.~.~.^.~.~.~.~.~.~.~.~.~.~.~.~.~.~.~.~.S.@.H G ",
"G F ' d.~.~.~.~.~.~.~.^.~.~.~.~.~.~.~.~.~.~.~.~.~.~.~.~.~.^.^.~.~.~.~.~.~.~.~.~.~.~.~.~.~.~.d.} T A ",
"F F L w.!.~.~.~.~.~.~.R.l.h.R.~.~.~.~.~.~.~.~.~.~.~.~.~.~.~.~.~.~.~.^.R.h.l.R.~.~.~.~.~.~.!.w.] 2 D ",
"D 1 P &.P.~.~.~.~.~.~.R.1.y b k.W.~.~.~.~.~.~.~.~.~.~.~.~.~.~.~.^.W.l.b r <.R.~.~.~.~.~.~.P.%.Y 2 D ",
"2 ! - ( r.~.~.~.~.~.~.~.b.b w y n k.G.~.~.^.~.~.~.^.^.~.~.~.~.K.k.n y w b b.~.~.~.~.~.~.~.s.[ G G - ",
"D H P 2 %.I.~.~.~.~.~.~.!.z.c 0 q t v ,.k.b.R.W.!.!.R.R.b.l.,.v t w 0 c z.!.~.~.~.~.~.~.P.-.K P J D ",
"W D G R ` i.~.~.~.~.~.~.~.!.z.v q 0 q e t z v b m m n v z t e q 0 q v z.Q.~.~.~.~.~.~.~.t.) W D D A ",
"2 2 A G G &.v.~.~.~.~.~.~.~.E.b.m e 0 0 0 q q q e e q q q 0 0 0 e m x.E.~.~.~.~.~.~.~.v.+.G G G H ! ",
"D F G P , L 4.I.~.~.~.~.~.~.~.~.G.h.v e 0 0 0 0 0 0 0 0 0 0 e c j.G.~.~.~.~.~.~.~.~.I.6.I S - T D Z ",
"A G G H P 2 ` w.T.~.~.~.~.~.~.~.~.R.b.h.m x r e q w e r z n h.b.R.~.~.~.~.~.~.~.~.T.0. .K G G - - G ",
"T G = F G G G } r.!.~.~.~.~.~.~.~.~.~.W.G.x.k.h.1.1.h.k.x.G.W.~.~.~.~.~.~.~.~.~.!.i.} Q P D - P F - ",
"G G 1 D D G - ~ | i.T.~.~.~.~.~.~.~.~.~.~.~.~.!.R.R.R.~.~.~.~.~.~.~.~.~.~.~.~.!.p.O.P R T D 1 F F F ",
"F D F T G G F G F } 0.I.~.~.~.~.~.~.~.~.~.~.~.~.^.^.~.~.~.~.~.~.~.~.~.~.~.~.U.e. .; 2 T F G G 1 G R ",
"G G F G - 2 F T 2 K [ 6.v.~.~.~.~.~.~.~.~.~.~.~.~.~.~.~.~.~.~.~.~.~.~.~.!.v.6.[ G G = P G D 2 D W F ",
"D D F F G D H G G 2 G I +.p.I.!.~.~.~.~.~.~.~.~.~.~.~.~.~.~.~.~.~.~.~.I.p.$.] D D Y D 2 H G 1 , G G ",
"- G T G R G A - - - 2 G P [ -.a.S.Q.~.~.~.~.~.~.~.~.~.~.~.~.~.~.!.P.s.%.^ P P ; G G D - 1 - A G G R ",
"F Z D D Q G H D G G F 2 2 D F ` @.7.d.P.U.!.~.~.~.~.~.~.!.U.P.c.e.%.` 2 W G Z G P F - F G 3 G A 1 F ",
"! F - 1 P 1 , H = F F - F P W R Q U ' @.3.q.p.p.f.g.u.r.w.6.=.| _ Y F G D A D 1 A F G D T F = - R G ",
"H F G T J , Z G G W D G = Z G F F D F 2 Y X./ [ } } ` _ ] F R F G P G 2 G A H G 1 G F D G G G D G 1 ",
"* = - Z F Z T G R T J = G G F G F Z D G H H = G G H F 1 D H G G J R H G G F F G F 1 T T F G G F , G "
};
