/* XPM */
static char *_c3689eaba1c45b5cb39afb48cfc6916iXR5y2TqJORxO6Cn[] = {
/* columns rows colors chars-per-pixel */
"50 50 218 2 ",
"   c #3C0928",
".  c #5D081E",
"X  c #7A0817",
"o  c #6F2618",
"O  c #48162B",
"+  c #53162A",
"@  c #471837",
"#  c #510C25",
"$  c #620A21",
"%  c #4E223C",
"&  c #592839",
"*  c #5C3439",
"=  c #5B3A28",
"-  c #662833",
";  c #783C3C",
":  c #6C373E",
">  c #625A1D",
",  c #674C3D",
"<  c #481B47",
"1  c #4C1D53",
"2  c #562C45",
"3  c #562A42",
"4  c #5A334A",
"5  c #5B3446",
"6  c #512B5A",
"7  c #683B46",
"8  c #733E42",
"9  c #623E53",
"0  c #522466",
"q  c #5C356A",
"w  c #592B74",
"e  c #5E307F",
"r  c #61396A",
"t  c #61377D",
"y  c #774546",
"u  c #6A475C",
"i  c #7A4E59",
"p  c #744C51",
"a  c #6F4D61",
"s  c #6B456D",
"d  c #714F66",
"f  c #725366",
"g  c #75586A",
"h  c #795A6B",
"j  c #7B5D74",
"k  c #7F6373",
"l  c #5C4772",
"z  c #990B12",
"x  c #8F0E17",
"c  c #B50506",
"v  c #BC0909",
"b  c #B80807",
"n  c #BB1A16",
"m  c #AD0A0B",
"M  c #82221F",
"N  c #BE231A",
"B  c #BD320D",
"V  c #931322",
"C  c #8F1C2C",
"Z  c #A81620",
"A  c #C30C0C",
"S  c #CA1113",
"D  c #DC1718",
"F  c #D71616",
"G  c #EC1E1F",
"H  c #CA2904",
"J  c #D53B03",
"K  c #D32E08",
"L  c #F3291E",
"P  c #F73B1A",
"I  c #F93C1A",
"U  c #E63016",
"Y  c #D81F21",
"T  c #EE1E20",
"R  c #C73928",
"E  c #D92423",
"W  c #F42322",
"Q  c #F62A25",
"!  c #9D4110",
"~  c #AC4C12",
"^  c #8A473E",
"/  c #8E513C",
"(  c #AC4938",
")  c #CE560A",
"_  c #FA4716",
"`  c #F1520B",
"'  c #D46208",
"]  c #FA6809",
"[  c #EB7204",
"{  c #FD7B01",
"}  c #FA7504",
"|  c #C95038",
" . c #834440",
".. c #8D524A",
"X. c #975749",
"o. c #8D5755",
"O. c #AC6249",
"+. c #AE6950",
"@. c #8A5A66",
"#. c #866369",
"$. c #846A79",
"%. c #8B717D",
"&. c #957475",
"*. c #AB7867",
"=. c #956251",
"-. c #D35F40",
";. c #F25C4C",
":. c #C77A57",
">. c #D77C56",
",. c #D7714F",
"<. c #DA7E62",
"1. c #738C15",
"2. c #85A31E",
"3. c #FF8101",
"4. c #B88C71",
"5. c #CC825D",
"6. c #D6845C",
"7. c #E08658",
"8. c #C98664",
"9. c #DB8D63",
"0. c #D8966C",
"q. c #DC9877",
"w. c #E4996B",
"e. c #E49769",
"r. c #E7A879",
"t. c #503A93",
"y. c #65398C",
"u. c #693D9A",
"i. c #3F45A8",
"p. c #5B409E",
"a. c #6B409F",
"s. c #724A99",
"d. c #5A4CB6",
"f. c #434CB3",
"g. c #6F44AA",
"h. c #6A44A8",
"j. c #7045AB",
"k. c #644EBC",
"l. c #70618A",
"z. c #4657C8",
"x. c #5A59D1",
"c. c #5760DF",
"v. c #4A64E7",
"b. c #5263E5",
"n. c #476EFA",
"m. c #486BF5",
"M. c #6961CE",
"N. c #8C7584",
"B. c #8F7887",
"V. c #927985",
"C. c #947C8B",
"Z. c #957381",
"A. c #856983",
"S. c #9275AC",
"D. c #997AC3",
"F. c #96818C",
"G. c #99818E",
"H. c #9C8794",
"J. c #A18D99",
"K. c #A5929D",
"L. c #9D84B3",
"P. c #AB9BA3",
"I. c #AA98A3",
"U. c #B39FA5",
"Y. c #B2A3AC",
"T. c #B8A8AE",
"R. c #BAADB4",
"E. c #B6A8B1",
"W. c #BEB3BA",
"Q. c #BCB1B7",
"!. c #D7B38A",
"~. c #ECBB8C",
"^. c #E9B78A",
"/. c #EDBD90",
"(. c #E7AF86",
"). c #C1B6BC",
"_. c #C4B8BB",
"`. c #E9C495",
"'. c #F2C593",
"]. c #F3CE9B",
"[. c #F2C997",
"{. c #F4D19E",
"}. c #E9C68C",
"|. c #D5CBB6",
" X c #F5D5A2",
".X c #F9D7A2",
"XX c #A58CC0",
"oX c #98A7E6",
"OX c #868EDD",
"+X c #C5BBC2",
"@X c #C7BCC5",
"#X c #CAC2C4",
"$X c #CDC6CA",
"%X c #D3CCCE",
"&X c #D6C9C5",
"*X c #D7D1CF",
"=X c #D4CED1",
"-X c #D7D2D4",
";X c #DAD5D6",
":X c #DDD9DB",
">X c #DBD6D9",
",X c #E1DCDF",
"<X c #F4DCC1",
"1X c #E3DFE1",
"2X c #E2DAEE",
"3X c #E6E6E6",
"4X c #E9E7E8",
"5X c #ECECEC",
"6X c #E9E6E6",
"7X c #F1EFEF",
"8X c #EFF0EF",
"9X c #EFF1F0",
"0X c #F3F3F3",
"qX c #F8F7F7",
"wX c #F7F8F7",
"eX c #FBFBFB",
"rX c #F7F8F8",
"tX c #F0F0ED",
/* pixels */
"0X5X0XeX5X0XeX0X5XrX0X5X0XeX5X9XqX9X9X0X0X5X0X0X5X0XrX9X9X0X9X9X0X0X8X0XeX8X9XrX9X5XeX0X5X0X0X5X0XeX",
"0X5X0XeX5X5XeX5X5XeX0X5X0XeX5X0XeX5X5XI.g g A.4X8XwXeX>X$.j E.9XeX0X4X0XrX5X9XeX8X5XeX0X5XeXeX5X0XeX",
"0XeX0X5XeXeX5X0XeX5X9XeX5X5XeX0X4XeX0Xf $ V C Z.H.W.9X:X% o =.Y.5X8XeX9X5XeX0X5X0XeX5X9XeX5X5XeX0X5X",
"0X0X0X5X0X0X5X0X0X9X0X0X0X0X0X0X0X0X0Xg V Q P o o #.+XE.% ) ~ y +X5XrX9X8X0X0X9X0X0X8X0X0X0X0X0X0X5X",
"0X5X0XeX5X5XeX0X5XeX0X4XrXeX4X5X4X>X-Xf V P ] } { ~ % + + ) 3.) 4 ,X5XwXeX3X9XeX5X5XeX0X4XrX0X5X0XeX",
"0XeX0X5X0X0X5X0XqX5X0XqX9X5XeXH.2 2 2 @ V Q I } 3.[ ` T E ] 3.' * :XrX9X9XrX0X5X0XqX5X0XrX9X0XrX0X5X",
"5XeX5X5XeXeX5X0XeX5X9XeX9X5XeXC.# x Z B B F L } 3.3.} ` S ] 3.[ ~ #.k j H.eX0X5XrXeX5X0XeX5X0XeX0X5X",
"0X5X0XeX5X5XeX0X5XeX0X4XqXeX5XN.. v G _ ` K F ` ` ` ` ) b J [ 3.[ + o o d 3X0XeX5X5XeX0X5X0XeX3X0XeX",
"0X0X0X0X0X0X0X0X0X0X0X5X0X0X0XV.. z D T I ` A D W W G H H F ` 3.[ M ' ! f 5X0X0X0X0X0X0X0X0X0X0X0X0X",
"5XeX0X5XeX0X5X0XeX5X0XeX5X5XeXH.@ # m F L L G A D W P } } H ) { } P ] B f rX0X5X0XeX3X0XeX5X5XeX0X3X",
"0X5X0X0X5X0XeX0X5X0X0X5X0XqX5X3XI.+ m c F W G A v F W P } } J K ] L P V f 3X9XrX9X5XeX0X5XeX0X5X0XeX",
"0X5X0XeX5X5XeX0X5XeX0X5X0XeX5XeX@X+ m c v F G v c v F W P P ` ` I W V @.$X5X9XeX0X5XeX0X5X0XeX5X0XeX",
"0XeX0X5XeX0X3X0XeX5X5XeX0X4X).I.Z.X S S b v F R R n v F F G I _ Q ;.- N.5XeX0X5XeX0X5X0XeX5X5XeX9X3X",
"0X0X0X0X0X0X0X0X0X0X0X0X0X5Xu # X c Y T F c n ,.0.,.R S c F G Q ;./.7 B.0X0X0X0X0X0X0X0X0X0X0X0X0X0X",
"0X5X0XeX5X9XeX0X5XeX0X3XrX0Xf X c c v D F c v >.~.{.^.>.R n E ;.'.`.7 C.eX5X0XeX5X5XeX0X5X0XeX3X0XeX",
"0XeX5X5X0X0X5X0XeX5X0XeX0X3Xf X b c c v b c N (.{.{.].'.(.~.~.'.[.0.- N.8XeX0X5X0X0X5X0XeX5X5XeX0X5X",
"9XrX7X9XrX0X5X0XqX9X9XrX9X5X+Xo.X c c R | | S ~..X~.w.r.{.{.{.[.0., + N.8XwXwX5XwX0X5X0XeX5X0XeX0X5X",
"qX4X0XeX5X9XeX9X4XeXqX4XrXrX5XW.@.x m -.w.6.| `.^.5./ =.r.r.r.0./ > O C.eX5XtXeX5X5XeX0X3XeXrX3X0XeX",
"0X0X0X7X0X0X0X0X0X0X0X0X9X9X0X0X@X7 z | e.r.6.`.r.*.4 , O.9.w.5., 1.y K.0XwX0X0X0X0X0X0X0X0X0X0X0X0X",
"9XeX0X4XrXqX4XqXeX4X9XeX9X5XeX0X4X=X9 x | 6.e.[.[..X|.1.= 4.[.[.!.* W.5X5XeX0X3XwXeX3X0XeX5X5XeX0X3X",
"qX4X0XeX5X9XeX7X5XrX0X5XrXeX5X0XeX5X$Xi +  .6.[.{. X X}.!.0.9.r.!.* W.rXrX5X0XeX5X8XeX0X5XeXeX5X0XeX",
"0X9X0XqX9X0X0X9X9XqX0X9X0X0X5X0XeX1Xk F.P.Z.; 9.`.{.{. X.X[.w.:.i Y.3X0X0X5X0XrXtX8X0X0X5X0X0X5X0X0X",
"9XeX9X4XeXqX4XqXeX4X9XeX8X5XeXwX-XJ.$.R.3X_.#.X.0.'.~.<.>.r.5...$.K.4X9X5XeX0X3XeXeX5X0XeX5X5XeX0X3X",
"0X9X0X0X9X9X0X0X0X0X0X9X0X0X0X;XI.f @X:X5XwX-Xg X.4.*.z z ( o.k _.2 W.wX0X0X0XwX9X5X0X0X0X0X0X0X0XqX",
"qX5X0XeX5X9XeX0X5XeX0X5X0XeX>X%.u |.*X5XqXqX0X-Xh & 2 3 3 3 C.%XQ.* R.eXeX5X9XeX8X5XeX0X4XeXeX5X0XeX",
"9XeX9X5XeX0X5X0XeX5X8XeX5X3Xk X.>.0.&X-X;X-X,X0X6X3X1X3X1X&X$X|.5.& +X8X5XeX0X5XrX0X5X0XeX5X5XeX0X4X",
"0X0X0X0X0X0X5X0X0X0X0XrX5X%.X.8.r.5.@.R.K.C.7XeXeXeXeXeX6XC.*.q.6.O.h Y.0XwX0X9X0X0X9X0XwX9X9X0X0X9X",
"0X4X0XeX5X7XeX9X5XeX0X$XC...8.'.'.:.+ g %.K.eXeXeXeXeX7XC.3 ..7.9.w.*.&.H.H.3XeX5X5XeX0X3XeXeX3X0XeX",
"0X0X0X5XqX0X9X0X0X9XwXQ.O 6.'.{.r.O.+   %.3XeXeXeXeXeX-X3    .:.6.[.{.4.* y R.1X0X0X9X0XrX9X0XwX0X5X",
"9XeX0X5XeX0X5X0XeX5X5XT.* !.{.r.+.O @ @ %.,XqXqXeXqX7X+X% @ % : 5.~.[.`.`.!.5 T.eXeX5X0XeX5X5XeX0X5X",
"0X4X0XeX5X5XeX0X5XeXI.y 5.'.{.r.O.2 W.f A.,X*X,X>X>X=XW.3 I.-XU.: 5., &./.8.& ).5X5XeX0X4XrXrX4X0XeX",
"0X0X0X0X0X0X0X0X0XwXG.: ~.{.{.*.i _.5Xh r L.=X*X=X*XW.S.y.s T.6XY.y ( X.o.,.& W.0X0X0X0X0X0X0X0X0X0X",
"5XeX0X4XeXqX4X0XeX5XC.p ].{.4.5 a 3XP.s t.M.oXoXoXoXOXx.x.p.l.E.,XF.=.- + X.%.$XeXeX3X0XeX5X5XeX0X3X",
"0X9X0XeX5X9XrX0X9XeXG.y ^.].=.O a %X< t.b.n.m.b.z.z.v.n.n.n.i.l W.5XN.u u h :XeX8X8XwX0X5XrX0X9X0XrX",
"0X5X0XeX5X0XeX0X5XeXK.: 5.(.0.^ g %X6 i.n.n.m.h.< 0 k.v.m.m.m.z.9 $X3X8X0X3X9XeX8X5XeX0X5XeXeX5X0XeX",
"5XeX0X4XeXqX3X0XeX5X1XU.& * & N.-X>X2 i.n.n.b.6   @ < 6 h.b.n.m.z.r %X9X5XeXwX3XwXeX4X0XeX5X5XeX0X4X",
"0X0X0X0X0X0X0X0X0X0X0X:XR.R.Y.-X%Xg y.x.n.b.d.@ C.R.Q.I.6 p.b.n.v.< W.wX0X0X0X0X0X0X9X0X0X0X9X0X0X0X",
"rX4X0XeX5X5XeX0X4XeXqX4XeXeX5X_.A.w a.k.x.d.w C.=XeX3XB.w u.k.x.f.< Q.eXeX5X9XeX5X5XeX0X4XeXeX3X0XeX",
"9XeX9X5X0X0X5X0XrX5X9XeX0X5XeXC.< a.j.j.j.y.< ;XeX0XR.@ u.j.g.j.a.< +X0X8XwX0X5X0XeX5X0XeX5X5XeX0X5X",
"9XeX0X5XeX0X5X0XrX9X0XqX9X5X5XN.1 g.j.j.a.t 9 >XeX5XP.1 u.g.j.g.y.% E.3X8X0X0X8X0X0X5X0XeX9X5XeX0X5X",
"0X5X0XeX5X5XeX9X5XeX0X5X0XqXk q a.j.j.j.w d 1X0X6XK.6 u.g.g.j.y.@ O % K.eX4X0XeX9X5XeX0X5X0XeX3X0XeX",
"0X0X0X5X0X0X0X0X0X0X0X0X0X0Xa 0 g.j.j.j.0 f 9X9XqXH.< g.g.g.y.9 H.Y.K.N.J.0X0X9X0X0X5X0X0X0X0X0X0X9X",
"5XeX0X5XeXrX4X0XeX5X9XeX4XK.N.L.D.g.g.j.0 g 4X9XeX#Xj y.S.L.S.K.5XeX0XC.a eX0X4XeXeX5X0XeX5X5XeX0X3X",
"rX5X0XeX5X9XeX9X5XrX0X5X1X5 K.5X2XD.D.s.r G.qXqX6XeX).4 #X>X3X0X0X0X0XG.a 3X0XeX5X5XeX0X5X0XeX5X0XeX",
"0X7X0XeX7X0XqX0X5X0X0XtX1X4 I.5XeXeX0Xg V.0X0X0XtX0X_.u Q.#X#X#X#X#X#XN.h 5X0XrX0X5X0X0X5XeX0X5X0XqX",
"9XeX0X3XeX0X4X0XeX5X0XeX:X4 K.5XeXwX:Xa G.eX5X5XeXwX,X+X9 4 4 4 4 4 2 N.;XeX0X4X0XeX5X0XeX5X5XeX0X3X",
"0X5X0X0XtX0X0X0X0X0X0XtX,X2 4 Y.3X%Xh @ V.0XwX0X5X0X0X5XW.).E.Y.W.R.Y.-X0X0X0X0X0X0X0X0X0X0X0X0X0X0X",
"qX5X0XeX5X8XeX0X5XeXwX4X5XG.% u F.%.@ a R.5XeX0X5XwXeX5X0XeX0X9XeXrX5XrXeX5X0XeX5X5XeX0X5X0XeX5X0XeX",
"9XeX0X5XqXrX5X0XeX5X9XeX5X5XC.u u u a ).0XeX5X7XeX7X5XeX0X5X0XeX5X0XeX5X5XeX0X5XrXeX5X7XeX5X5XeX0X5X",
"5XeX0X5X0X0X5X0XeX5X7XeX0X5X7X5X3X5X5X5X0XrX9X7XrX0X5XqX0X5X0XrX5X0XeX9X9XrX0X5X0XqX5X0XrX7X7XrX0X5X"
};
