/* XPM */
static char *a6f1ef4823db4f5b9942b07035e1ecb51O4u7gjej0gWYqTX[] = {
/* columns rows colors chars-per-pixel */
"50 50 242 2 ",
"   c #761D0B",
".  c #7D270A",
"X  c #7E2513",
"o  c #832913",
"O  c #8B2E14",
"+  c #882D1E",
"@  c #852C1A",
"#  c #912D1A",
"$  c #972C19",
"%  c #843416",
"&  c #8D3B1E",
"*  c #89341A",
"=  c #93341B",
"-  c #923B1F",
";  c #9A361D",
":  c #82230D",
">  c #AB381D",
",  c #8C3822",
"<  c #953620",
"1  c #953B22",
"2  c #9B3D24",
"3  c #993C29",
"4  c #982E21",
"5  c #A33E25",
"6  c #A93529",
"7  c #AA3E2B",
"8  c #A23927",
"9  c #8C4324",
"0  c #964325",
"q  c #9A4226",
"w  c #95442A",
"e  c #9C442C",
"r  c #944C2D",
"t  c #9C4C2D",
"y  c #944826",
"u  c #9F502F",
"i  c #9D4531",
"p  c #9D4C33",
"a  c #974C35",
"s  c #9D5234",
"d  c #9E543A",
"f  c #965338",
"g  c #A3442C",
"h  c #AC452C",
"j  c #A44A2C",
"k  c #AB4B2D",
"l  c #A64425",
"z  c #B2472E",
"x  c #BA4B2E",
"c  c #B54628",
"v  c #A54531",
"b  c #AB4431",
"n  c #A44C32",
"m  c #AB4C33",
"M  c #AB4E39",
"N  c #A44E3A",
"B  c #B34D34",
"V  c #B94C31",
"C  c #B14D3A",
"Z  c #BA4B3C",
"A  c #BC4433",
"S  c #A35235",
"D  c #AC5135",
"F  c #AA5937",
"G  c #A5553B",
"H  c #AC543B",
"J  c #A55A3C",
"K  c #AC5A3D",
"L  c #A45A37",
"P  c #B35334",
"I  c #BB5235",
"U  c #B45935",
"Y  c #B3543B",
"T  c #BB553C",
"R  c #B35A3E",
"E  c #BB5A3D",
"W  c #B95B37",
"Q  c #BF522B",
"!  c #B4603E",
"~  c #BC623D",
"^  c #C4592D",
"/  c #C14D36",
"(  c #C3553A",
")  c #C25C3D",
"_  c #C95D3D",
"`  c #C35435",
"'  c #C14B25",
"]  c #C6643D",
"[  c #AD5443",
"{  c #A55D42",
"}  c #AB5E42",
"|  c #B35642",
" . c #BE5644",
".. c #B35B42",
"X. c #BC5C43",
"o. c #B65D49",
"O. c #BB5E4A",
"+. c #BE5748",
"@. c #AD6245",
"#. c #AD644B",
"$. c #AD6B4E",
"%. c #B46345",
"&. c #BC6246",
"*. c #B5644B",
"=. c #BC644B",
"-. c #B36A4C",
";. c #BD6A4D",
":. c #B66844",
">. c #AF6C51",
",. c #BB6653",
"<. c #B56B52",
"1. c #BB6C53",
"2. c #BB6F58",
"3. c #BD7354",
"4. c #BE735B",
"5. c #BA7658",
"6. c #C35C44",
"7. c #CA5D45",
"8. c #CA5E4C",
"9. c #C05543",
"0. c #CC5E51",
"q. c #C36344",
"w. c #C46946",
"e. c #C4644B",
"r. c #CB654C",
"t. c #C46A4C",
"y. c #CB6B4C",
"u. c #CD6844",
"i. c #D36C45",
"p. c #D2664C",
"a. c #D36A4D",
"s. c #D46644",
"d. c #C7714C",
"f. c #D4734E",
"g. c #C46652",
"h. c #C36C53",
"j. c #CC6C53",
"k. c #C36D59",
"l. c #CD6854",
"z. c #D36C53",
"x. c #DB6C53",
"c. c #DB6D5B",
"v. c #D16B58",
"b. c #C47355",
"n. c #CC7255",
"m. c #C4745C",
"M. c #CB745C",
"N. c #C37A5C",
"B. c #CC7A5D",
"V. c #CC7856",
"C. c #D37354",
"Z. c #DB7355",
"A. c #DB7956",
"S. c #D3735B",
"D. c #DB755C",
"F. c #D47B5D",
"G. c #DB7B5D",
"H. c #D27957",
"J. c #E06E54",
"K. c #E37B5C",
"L. c #E17658",
"P. c #CD7661",
"I. c #C57C63",
"U. c #CC7D63",
"Y. c #CE7F68",
"T. c #C57760",
"R. c #D47662",
"E. c #DC7662",
"W. c #D37C63",
"Q. c #DB7C63",
"!. c #D57D6A",
"~. c #DC7E69",
"^. c #E27D64",
"/. c #E37E69",
"(. c #E37763",
"). c #DC825E",
"_. c #E4845E",
"`. c #C68163",
"'. c #CD8365",
"]. c #CC836B",
"[. c #D48265",
"{. c #DB8365",
"}. c #D58867",
"|. c #DA8966",
" X c #D4836B",
".X c #DB846B",
"XX c #D48A6B",
"oX c #DC8A6D",
"OX c #D48571",
"+X c #DC8572",
"@X c #D48B72",
"#X c #DC8C73",
"$X c #DB8B7B",
"%X c #DD9274",
"&X c #DC9479",
"*X c #DA9579",
"=X c #E28264",
"-X c #E3846B",
";X c #EA856C",
":X c #E38A6C",
">X c #EB8B6D",
",X c #E98764",
"<X c #F1896B",
"1X c #E7916F",
"2X c #E38673",
"3X c #E38D73",
"4X c #EB8C73",
"5X c #E58E7A",
"6X c #ED8F7B",
"7X c #EB8473",
"8X c #F18E72",
"9X c #F08571",
"0X c #E49275",
"qX c #EB9274",
"wX c #E3947A",
"eX c #EC947A",
"rX c #E49A7C",
"tX c #EA9A7C",
"yX c #EE9877",
"uX c #F29376",
"iX c #F3937B",
"pX c #F9947D",
"aX c #F49A7D",
"sX c #FA9B7E",
"dX c #F39976",
"fX c #F6A07E",
"gX c #EB9781",
"hX c #E49A81",
"jX c #EB9C83",
"kX c #E99B85",
"lX c #F29683",
"zX c #FD9782",
"xX c #F49C82",
"cX c #FB9B83",
"vX c #F79D89",
"bX c #EBA288",
"nX c #F4A284",
"mX c #FDA186",
"MX c #F4A48B",
"NX c #FEA38C",
"BX c #FAAA8C",
"VX c #FDAB95",
/* pixels */
"` r.u.E x x E y.7.p.) E V 6.G.B I ) I I ) x.W I ( T z.T ^.P T I P q.E A.s._ ] ~ _ ` f.q.z B T C.] ] ",
"Z.C.y.X.( ) q.w.6.a.T &.) 7.E.l W ) ] E W r.W I T P T 6.D.6.I q.q.t.w.).i.) U ~ x ` f.r.T 6.g.l.i.f.",
"mXdXqX:XG.{.:X|.;XD..X0X7XzXNXeX>XsXcXsXiXBXsXmXuXqXQ.4XzXlX-XqX:XF.'.1X=XG.F.fXD.;X3X:XE.:XqXM.^.(.",
"q...*.F = O , % v : K G 3 n 1 ..} =.&.H j F q e o.&.e e n ..n G ;.s u r = = & :.P R F S n M %.1 + + ",
"W.[.%XXX=.=.N.m.R.h.$XrX!.!.OX#X0XtX0X+X X%XB.U.$XOXP.m.OX].Y. XhXOX@X`.b.m.N.%XQ.{.'.XX[.{.gX].$X$X",
"B.M.`.I.k.!.&X*Xm.+X4.`.T.!.VXY.`.].U.U.[.hX+X%XwXY. X XvX4.m.OXT.4.@X].oX).`.'.{.[.XX*X X[.@X].OXOX",
"%.%.@.G G K #.-.k.W.{ d i G !.G K %.G S S -.} } } S G K k.a i d [ f { @.=.i u r X...3.;.} R K S n n ",
".XeXtX0X4XqXtXBXiX-XwX+XP.+X3X[.[..XW.V.M.3X!..X.X3XoX!.gXeX5X+XMXwX$XgXvX{.rXnXF.S.1X}.S..XW.F.G.G.",
"X.E F n.b P F n  .B h.& g 2 = & . D -X&.t.Y m 2 n l.m M g X.| &.=.e } F X.W d.1X5 I k :.E k =X&.~ ~ ",
"z.{.=XuXL.y.n.W.;X;XqXj.z.r.v.e.E =XuX=XQ.H.E.G.S.-XC.j.j.e.r.S.-XS.g.Q.z.r.F.qXs.s.y.V.K.Z.:Xn.d.u.",
"G.>X=XH.D.r.:XBX^.;X4X:X;X;XpXQ.;X=XG._.=XuXG.=X^.=X;XQ.4Xq.l.C.j.h.R :XL.a.D._.K.x.,XC.a.Z.G.=XK.L.",
"q.e.U W B h P t.7 5 m R Y r.z.H E q h l P j.l m < l v g T O # = O O O R T h j l ` I t.k k c m e.q.p.",
">X{.).tXQ.-XoXoX/.D.0X.XR.eXeX3X-X0XsX:XeXaX4X3X-XeX6XgXvX4X3X6XxX[.eXaXsX8X1XdX>X8X4X:XiX2X4X6XiXaX",
"H S S '.m | -.<.e.o.`.@.v ..o.m...F.:.K ..G *.e %.M.o.o.&.1.,.1.[.J -.F Y F J b.X.e.| } =.M P.m.M.m.",
"1.4.4.*Xm.%.$.>.k.k.].$.,.1.m.I.].%X4.1.3.I.m.{ 2.I.#.#.<.4.2.m.XXN.5.N.;.%.3.XX&.;.-.3.,.[ OX].3.;.",
".X X5.`.U.k.`.&X+X+X@X`.kX$XhX]. X'.#X'.4.VXT.hXhXkX@XhXkXhXhXwXbXbX&XBXoXm.`.].!.M.@XhXgX#XkX X#X%X",
"0 1 % . % : s J O e t 9 w F b.r F D j 0 & t.y t F G @.s -.@.s -.3.3.L }.%.y y t b.R ;.K 0 y j F U U ",
"H.{.[.{.C.d.|.qXH.d.}.|.1X4XaXqX:XqX>X=X:XsX3X:X|.{.oX:XeXwXB.oX3X:X|.dX|.V.oXdXqXyXdXdX:X:XqXG.A.Z.",
"z.E.n.-Xx.a.&.=.q.z h.n.j.l.e.j.e.z.j.r.y.6.r.X.l.Y < g 3 H g R X.D &.X.q.n.C.S.q.r.q.X. .r.D.V _ _ ",
"T 6.T r.r.r.e.&.8.( S.e.q.e.q.Y T r.r.E T b Y  .v.Y 5 C m Y b m 6.W E r.z.Q.=XK.r.z.r.6.T a.^.7._ _ ",
"9XiXiXeX9X(.iXmXpXzXmXaXzXcXVX4XpX8XiX4X4XzX4XzXNX6X6XiXcXlXlX6XiXcX-XcX{.D.;X8X;X-XpX;XQ.;X4X;XA.L.",
"X.X...m b 2 ..:.5 b p S Y P M.F X.n n 2 S j.n H g 3 e i | 3 C m 2 j = t.H g D R &.D e.R g m B &.w.w.",
"oX[.`.[.:X+XrXrXP.U.XX`.N.'.*X'.XX'.XXN.+XrX[.m.1. X[.#XrXOX[.U.0XoX'.xX0X[.'.V.B.n.B.V.;.b.W.}.}.).",
"3.'.5.'.m.3.5.5.T.B.*X$.L :.-.L d <.'.-.`.#.N.-.4.#X<.3.m.m.m.'.XX3.b.N.m.N.oXtX} *.1.'.M.b.XXb.3.b.",
":.b.-.`.:.{ f { ,.*.I.5.@.@.r r 9 d #.#.@.{ { r #.N.{ J a r s #.@.S u @.J K 1.wXF @.L J @.@.[.-.:.@.",
"B.W.'.oX.X.XhXbX!.6X&X%X#X0XtX%X&XwXrX5X$XMX0X$XjXMX0X3XxXtXtXtXnXnXwXyX3X0XoX3XoX#X0XeX[.XX0XoX#XoX",
"W B Y m C v k.g.4 [ n N k B t...| H N v g S.m 8.Y H n n n.e.e.X.C b m M Y m k j H Y e.&.q j 1 2 - < ",
"<X;X4X>X(.c.lX2X0.S.Q.-X^./.uX=X/.7X(.S.(.cXE.8XE.^.E.^.cX8XiXiX;Xz.E.^.-Xl.G.7X4X4XuX4XS.Q.G.y.r.j.",
"Z.L.K.=X7.7.g.|  .A v.Q.D.L.Z.y.z.(.c.9.8.8.T 9.l.D.e.C.D.D.z.D.Z.r.a.z.(.r.(.uXD./.D.y.z.S.>X6.l.x.",
"V ) E r.7 6 3 4 7 4 o.X.P _ P k h 9.b $ $ O $ = Y T 5 P Y Y b Y B k B W r.y.G.G.T q.P k R W Q.k B I ",
"A.).F.:X^.D.-X5X/.E.0X0X^.uXdXH.-X7X/.c.v.-X.X-XuXiX:XqXfXqX1XqX:X:X:XyXyXyX1XqX:X0XqX0X).|.fX1X_._.",
"~ ! F S Y e @.m.n H K K n w.F.y | m M M g F...=.&.b.t.:.b.u S L R ! R V.&.S j :.F ! b.b.u L L ;.w.w.",
"|.[.}.XX,.W.hX*XT.,.].].I.#X&XY.W.[.R.m.!.3X#XOX#XY.Y.OX$XI.U.2.B.'.:.0X{.;.B.h.B.;.oXW.t.,.[.W..X.X",
"|.}.`.XX&.m.4.<.Y.,.].].,.m.Y.T.B.3X+X!.!.T.U.m.+Xm.*.,.<.*.<.*. Xh.B.n.;.b.;.{.h.b.M.k.;.=.-Xh.=.;.",
"F w.! d.g m J @.| M =.@.e m [ K ..M.e.:.R D K n ..G @ w 3 p n G W.&.H.R g U m h.R e.| | | | W.Y ..R ",
").1X|.1XC.z.oXxX7X7XxXtX-XiXzXaXqXqX:XF.:XqX.XQ.eX4XW.3X2X|.{.{.4X0X.X4Xh.t.h.S.j.F.S.S.E.S.uXS.G.).",
"i.] W P ` z &.q.h z E U I a.a.E W h D q D y.D P l k k D q.b m k g Y ; j.j - < 2 g g C m M b |  .] ] ",
"_.C.C.A.Z.p.G.G.8.a.G.y.a.^._.a.H.H._.f.G.8XC.G.w.C.A.S.4XG.Q.;XQ.H.e.uXj.j.X.S.z.l.~.c.S.z.S.4X,X,X",
"_ ] w.=X7.6.j.S.p.p.C.w.6.u.u.C.y.A.H.y.d.y.w.E G.;XD.C.^.z.z.F.4XF.F.W.g.h.r.Q.Y X.r.o.O.Y j.Q.=X).",
"q.E D {.V 6.R F 8.7.t.~ k c U V.y.{.R W ~ D X.g Y q.h Y E X.T r.M.&.&.m H k h.n.= m g 3 g < e.l.~ ] ",
".XV.B.U.-XR.+XU.E.S.*X`.{.qXsXoX4XeXeXeX3XmXeX6XlXlXlX/.NX~./.2XeXqX3XyXeXV.vXaX5X.XeXxX2XvXeXiX0X>X",
"O , 9 , o X d { e N X , - q '.%.} K S n H ,.o.| | [ [ 3 R.v M M n t S } ..0 n t R H =.g.K H H H n n ",
"T. XU.U.,.P.&XhX+X5X4.4.,.%.wXB.[.!.!.M.!.5X+X!.R.!.~.!.VX!.!.P.oX[.XX0X0X[.[.[.[.|.5XeX{.M.!.b.m.M.",
" XoXU.&XOX!.I.I.+X!.kX@X XW.U.3.k.P.+XP.R.Y.W.M.!.!.[ [ [ [ | k.3XB.).[.{.[.3XmX%.=.h.M.U.h.4X!.W.!.",
"F K } m.| n a G o.[ @X4.,.k.[ a i n O.M | M N i +.| + +   X @ i %.n F K F R ,.oXH H [ ....| n.o.| | ",
":X:X3XxX-X!.&XMX2X7XkX$X2X2XgX!.2X/.7X!.2X6X2X~.gXlXlXgXlX!.+X!.:X[.{.4XQ.n.F.2Xn.n.!.Q.Q.~.iX-X.X{.",
"W P u k b b =.,.# 8 , 3 7 b S.[ | B m g m O.| M +.o.O.| g.[ o.| e.=...S.&.n m m h.r.l.T < < < = v b ",
"K._.{.V.Z.c.4XQ. .l.g.1.v.D.iXv.S.E.E.c.v./.E.R.R.R.v.E.^.R.S.e.n.C.q.>XQ.r.H.S.Q.G./.z.z e.g.v.e.7.",
"<X_.).).7.J.J.z.Z.x.H.).p.x.a.).H.-Xz.7.8.0.+. .v./.0.c.c.c.C.C.=Xf.A.] i.i.y.:Xz.x.i.s.s._ 3Xl.X.u.",
"] ] ~ ~ > c / x ( P U E c x c U R e.Z 6 6 6 4 # 7 +.6 A / Z W P Z.] i.^ ' c j &.( ` ^ ^ ' c v.Y I ` "
};
